<svg width="100" height="100" viewBox="0 0 100 100" fill="none" xmlns="http://www.w3.org/2000/svg">
<path d="M80.2918 22.2077C74.7502 19.6243 68.7502 17.7493 62.5002 16.666C62.3903 16.6676 62.2854 16.7125 62.2085 16.791C61.4585 18.166 60.5835 19.9577 60.0002 21.3327C53.3709 20.3333 46.6294 20.3333 40.0002 21.3327C39.4168 19.916 38.5418 18.166 37.7502 16.791C37.7085 16.7077 37.5835 16.666 37.4585 16.666C31.2085 17.7493 25.2502 19.6243 19.6668 22.2077C19.6252 22.2077 19.5835 22.2493 19.5418 22.291C8.2085 39.2493 5.0835 55.7493 6.62516 72.0827C6.62516 72.166 6.66683 72.2493 6.75016 72.291C14.2502 77.791 21.4585 81.1243 28.5835 83.3327C28.7085 83.3743 28.8335 83.3327 28.8752 83.2493C30.5418 80.9577 32.0418 78.541 33.3335 75.9993C33.4168 75.8327 33.3335 75.666 33.1668 75.6243C30.7918 74.7077 28.5418 73.6244 26.3335 72.3744C26.1668 72.291 26.1668 72.041 26.2918 71.916C26.7502 71.5827 27.2085 71.2077 27.6668 70.8743C27.7502 70.791 27.8752 70.791 27.9585 70.8327C42.2918 77.3743 57.7502 77.3743 71.9168 70.8327C72.0002 70.791 72.1252 70.791 72.2085 70.8743C72.6668 71.2493 73.1252 71.5827 73.5835 71.9577C73.7502 72.0827 73.7502 72.3327 73.5418 72.416C71.3752 73.7077 69.0835 74.7493 66.7085 75.666C66.5418 75.7077 66.5002 75.916 66.5418 76.041C67.8752 78.5827 69.3752 80.9993 71.0002 83.291C71.1252 83.3327 71.2502 83.3743 71.3752 83.3327C78.5418 81.1243 85.7502 77.791 93.2502 72.291C93.3335 72.2493 93.3752 72.166 93.3752 72.0827C95.2085 53.2077 90.3335 36.8327 80.4585 22.291C80.4168 22.2493 80.3752 22.2077 80.2918 22.2077ZM35.5002 62.1243C31.2085 62.1243 27.6252 58.166 27.6252 53.291C27.6252 48.416 31.1252 44.4577 35.5002 44.4577C39.9168 44.4577 43.4168 48.4577 43.3752 53.291C43.3752 58.166 39.8752 62.1243 35.5002 62.1243ZM64.5418 62.1243C60.2502 62.1243 56.6668 58.166 56.6668 53.291C56.6668 48.416 60.1668 44.4577 64.5418 44.4577C68.9585 44.4577 72.4585 48.4577 72.4168 53.291C72.4168 58.166 68.9585 62.1243 64.5418 62.1243Z" fill="white"/>
</svg>
