<svg width="217" height="217" viewBox="0 0 217 217" fill="none" xmlns="http://www.w3.org/2000/svg">
<path d="M17.0352 51.9442C23.6672 38.3295 38.1243 26.9894 52.7641 23.9155C70.3589 20.2221 93.207 28.019 104.651 41.6203L108.365 46.0342L115.433 39.2625C119.319 35.5379 126.902 30.4302 132.282 27.912C140.668 23.9883 143.767 23.3361 153.986 23.3436C163.669 23.3495 167.489 24.0775 174.338 27.2212C185.571 32.3779 195.39 41.6975 200.382 51.9442C204.022 59.4156 204.46 61.9443 204.414 75.1846C204.319 103.169 197.635 113.861 151.769 159.41C115.97 194.962 113.122 196.995 103.57 193.811C99.0502 192.304 64.9807 160.385 44.3477 138.326C19.5697 111.836 13.0833 98.7696 13.003 75.1846C12.957 61.9443 13.3953 59.4156 17.0352 51.9442Z" fill="white"/>
</svg>