<svg xmlns="http://www.w3.org/2000/svg" xmlns:xlink="http://www.w3.org/1999/xlink" preserveAspectRatio="xMidYMid meet" width="800" height="400" viewBox="0 0 800 400" style="width:100%;height:100%"><defs><animate repeatCount="indefinite" dur="4.1666667s" begin="0s" xlink:href="#_R_G_L_8_G" fill="freeze" attributeName="opacity" from="0" to="0" keyTimes="0;0.024;0.976;1" values="0;1;1;0" keySplines="0.167 0.167 0.833 0.833;0.167 0.167 0.833 0.833;0.167 0.167 0.833 0.833" calcMode="spline"/><animateMotion repeatCount="indefinite" dur="4.1666667s" begin="0s" xlink:href="#_R_G_L_8_G" fill="freeze" keyTimes="0;0.056;0.12;0.316;0.476;1" path="M400 236 C400,236 400,236 400,236 C400,236 226,236 226,236 C226,236 226,236 226,236 C226,236 119,256.47 119,256.47 C119,256.47 119,256.47 119,256.47 " keyPoints="0;0;0.61;0.61;1;1" keySplines="0.167 0.167 0.833 0.833;0.167 0.167 0.833 0.833;0.167 0.167 0.833 0.833;0.167 0.167 0.833 0.833;0 0 0 0" calcMode="spline"/><animateTransform repeatCount="indefinite" dur="4.1666667s" begin="0s" xlink:href="#_R_G_L_8_G" fill="freeze" attributeName="transform" from="1 1" to="0.62 0.62" type="scale" additive="sum" keyTimes="0;0.056;0.12;0.316;0.476;1" values="1 1;1 1;0.76 0.76;0.76 0.76;0.62 0.62;0.62 0.62" keySplines="0.167 0.167 0.833 0.833;0.167 0.167 0.833 0.833;0.333 0 0.667 1;0.167 0.167 0.833 0.833;0 0 0 0" calcMode="spline"/><animateTransform repeatCount="indefinite" dur="4.1666667s" begin="0s" xlink:href="#_R_G_L_8_G" fill="freeze" attributeName="transform" from="-400 -200" to="-400 -200" type="translate" additive="sum" keyTimes="0;1" values="-400 -200;-400 -200" keySplines="0 0 1 1" calcMode="spline"/><animate repeatCount="indefinite" dur="4.1666667s" begin="0s" xlink:href="#_R_G_L_7_G" fill="freeze" attributeName="opacity" from="0" to="0" keyTimes="0;0.024;0.976;1" values="0;1;0.6;0" keySplines="0.167 0.167 0.833 0.833;0.167 0.167 0.833 0.833;0.167 0.167 0.833 0.833" calcMode="spline"/><animateMotion repeatCount="indefinite" dur="4.1666667s" begin="0s" xlink:href="#_R_G_L_7_G" fill="freeze" keyTimes="0;0.056;0.12;0.316;0.476;1" path="M392 149 C392,149 392,149 392,149 C392,149 218,149 218,149 C218,149 218,149 218,149 C218,149 111,169.47 111,169.47 C111,169.47 111,169.47 111,169.47 " keyPoints="0;0;0.61;0.61;1;1" keySplines="0.167 0.167 0.833 0.833;0.167 0.167 0.833 0.833;0.167 0.167 0.833 0.833;0.167 0.167 0.833 0.833;0 0 0 0" calcMode="spline"/><animateTransform repeatCount="indefinite" dur="4.1666667s" begin="0s" xlink:href="#_R_G_L_7_G" fill="freeze" attributeName="transform" from="0.63 0.63" to="0.25 0.25" type="scale" additive="sum" keyTimes="0;0.056;0.12;0.316;0.476;1" values="0.63 0.63;0.63 0.63;0.39 0.39;0.39 0.39;0.25 0.25;0.25 0.25" keySplines="0.167 0.167 0.833 0.833;0.167 0.167 0.833 0.833;0.333 0 0.667 1;0.167 0.167 0.833 0.833;0 0 0 0" calcMode="spline"/><animateTransform repeatCount="indefinite" dur="4.1666667s" begin="0s" xlink:href="#_R_G_L_7_G" fill="freeze" attributeName="transform" from="-400 -200" to="-400 -200" type="translate" additive="sum" keyTimes="0;1" values="-400 -200;-400 -200" keySplines="0 0 1 1" calcMode="spline"/><animate repeatCount="indefinite" dur="4.1666667s" begin="0s" xlink:href="#_R_G_L_6_G" fill="freeze" attributeName="opacity" from="0" to="0" keyTimes="0;0.092;0.148;0.976;1" values="0;0;1;1;0" keySplines="0.167 0.167 0.833 0.833;0.167 0.167 0.833 0.833;0.167 0.167 0.833 0.833;0.167 0.167 0.833 0.833" calcMode="spline"/><animateMotion repeatCount="indefinite" dur="4.1666667s" begin="0s" xlink:href="#_R_G_L_6_G" fill="freeze" keyTimes="0;0.316;0.476;1" path="M511.46 287.51 C511.46,287.51 511.46,287.51 511.46,287.51 C511.46,287.51 362.5,307.98 362.5,307.98 C362.5,307.98 362.5,307.98 362.5,307.98 " keyPoints="0;0;1;1" keySplines="0.167 0.167 0.833 0.833;0.167 0.167 0.833 0.833;0 0 0 0" calcMode="spline"/><animateTransform repeatCount="indefinite" dur="4.1666667s" begin="0s" xlink:href="#_R_G_L_6_G" fill="freeze" attributeName="transform" from="0.4 0.4" to="0.26 0.26" type="scale" additive="sum" keyTimes="0;0.316;0.476;1" values="0.4 0.4;0.4 0.4;0.26 0.26;0.26 0.26" keySplines="0.167 0.167 0.833 0.833;0.167 0.167 0.833 0.833;0 0 0 0" calcMode="spline"/><animateTransform repeatCount="indefinite" dur="4.1666667s" begin="0s" xlink:href="#_R_G_L_6_G" fill="freeze" attributeName="transform" from="-400 -200" to="-400 -200" type="translate" additive="sum" keyTimes="0;1" values="-400 -200;-400 -200" keySplines="0 0 1 1" calcMode="spline"/><animate repeatCount="indefinite" dur="4.1666667s" begin="0s" xlink:href="#_R_G_L_5_G" fill="freeze" attributeName="opacity" from="0" to="0" keyTimes="0;0.12;0.168;0.976;1" values="0;0;0.6;0.6;0" keySplines="0.167 0.167 0.833 0.833;0.167 0.167 0.833 0.833;0.167 0.167 0.833 0.833;0.167 0.167 0.833 0.833" calcMode="spline"/><animateMotion repeatCount="indefinite" dur="4.1666667s" begin="0s" xlink:href="#_R_G_L_5_G" fill="freeze" keyTimes="0;0.316;0.476;1" path="M483 163 C483,163 483,163 483,163 C483,163 338.96,193.47 338.96,193.47 C338.96,193.47 338.96,193.47 338.96,193.47 " keyPoints="0;0;1;1" keySplines="0.167 0.167 0.833 0.833;0.167 0.167 0.833 0.833;0 0 0 0" calcMode="spline"/><animateTransform repeatCount="indefinite" dur="4.1666667s" begin="0s" xlink:href="#_R_G_L_5_G" fill="freeze" attributeName="transform" from="0.29 0.29" to="0.22 0.22" type="scale" additive="sum" keyTimes="0;0.316;0.476;1" values="0.29 0.29;0.29 0.29;0.22 0.22;0.22 0.22" keySplines="0.167 0.167 0.833 0.833;0.167 0.167 0.833 0.833;0 0 0 0" calcMode="spline"/><animateTransform repeatCount="indefinite" dur="4.1666667s" begin="0s" xlink:href="#_R_G_L_5_G" fill="freeze" attributeName="transform" from="-400 -200" to="-400 -200" type="translate" additive="sum" keyTimes="0;1" values="-400 -200;-400 -200" keySplines="0 0 1 1" calcMode="spline"/><animate repeatCount="indefinite" dur="4.1666667s" begin="0s" xlink:href="#_R_G_L_4_G" fill="freeze" attributeName="opacity" from="0" to="0" keyTimes="0;0.476;0.508;0.976;1" values="0;0;1;1;0" keySplines="0.333 0 0.833 0.833;0.333 0 0.833 0.833;0.167 0.167 0.833 0.833;0.167 0.167 0.833 0.833" calcMode="spline"/><animate repeatCount="indefinite" dur="4.1666667s" begin="0s" xlink:href="#_R_G_L_3_G" fill="freeze" attributeName="opacity" from="0" to="0" keyTimes="0;0.476;0.508;0.976;1" values="0;0;0.6;0.6;0" keySplines="0.333 0 0.833 0.833;0.333 0 0.833 0.833;0.167 0.167 0.833 0.833;0.167 0.167 0.833 0.833" calcMode="spline"/><animateMotion repeatCount="indefinite" dur="4.1666667s" begin="0s" xlink:href="#_R_G_L_2_G_D_0_P_0_G_0_T_0" fill="freeze" keyTimes="0;0.568;0.76;1" path="M10196.1 111.53 C10196.1,111.53 10196.1,111.53 10196.1,111.53 C10196.1,111.53 11592.46,111.53 11592.46,111.53 C11592.46,111.53 11592.46,111.53 11592.46,111.53 " keyPoints="0;0;1;1" keySplines="0.167 0.167 0.833 0.833;0.167 0.167 0.833 0.833;0 0 0 0" calcMode="spline"/><animateTransform repeatCount="indefinite" dur="4.1666667s" begin="0s" xlink:href="#_R_G_L_2_G_D_0_P_0_G_0_T_0" fill="freeze" attributeName="transform" from="1 0.6857500000000001" to="1 0.6857500000000001" type="scale" additive="sum" keyTimes="0;1" values="1 0.6857500000000001;1 0.6857500000000001" keySplines="0 0 1 1" calcMode="spline"/><animateMotion repeatCount="indefinite" dur="4.1666667s" begin="0s" xlink:href="#_R_G_L_2_G_D_1_P_0_G_0_T_0" fill="freeze" keyTimes="0;0.568;0.76;1" path="M9368.74 -200.53 C9368.74,-200.53 9368.74,-200.53 9368.74,-200.53 C9368.74,-200.53 10797.62,-200.53 10797.62,-200.53 C10797.62,-200.53 10797.62,-200.53 10797.62,-200.53 " keyPoints="0;0;1;1" keySplines="0.167 0.167 0.833 0.833;0.167 0.167 0.833 0.833;0 0 0 0" calcMode="spline"/><animateTransform repeatCount="indefinite" dur="4.1666667s" begin="0s" xlink:href="#_R_G_L_2_G_D_1_P_0_G_0_T_0" fill="freeze" attributeName="transform" from="1 0.69548" to="1 0.69548" type="scale" additive="sum" keyTimes="0;1" values="1 0.69548;1 0.69548" keySplines="0 0 1 1" calcMode="spline"/><animateMotion repeatCount="indefinite" dur="4.1666667s" begin="0s" xlink:href="#_R_G_L_2_G_D_2_P_0_G_0_T_0" fill="freeze" keyTimes="0;0.568;0.76;1" path="M8522.67 19.04 C8522.67,19.04 8522.67,19.04 8522.67,19.04 C8522.67,19.04 9756.43,19.04 9756.43,19.04 C9756.43,19.04 9756.43,19.04 9756.43,19.04 " keyPoints="0;0;1;1" keySplines="0.167 0.167 0.833 0.833;0.167 0.167 0.833 0.833;0 0 0 0" calcMode="spline"/><animateTransform repeatCount="indefinite" dur="4.1666667s" begin="0s" xlink:href="#_R_G_L_2_G_D_2_P_0_G_0_T_0" fill="freeze" attributeName="transform" from="1 0.62356" to="1 0.62356" type="scale" additive="sum" keyTimes="0;1" values="1 0.62356;1 0.62356" keySplines="0 0 1 1" calcMode="spline"/><animateMotion repeatCount="indefinite" dur="4.1666667s" begin="0s" xlink:href="#_R_G_L_2_G_D_3_P_0_G_0_T_0" fill="freeze" keyTimes="0;0.568;0.76;1" path="M5804.98 145.44 C5804.98,145.44 5804.98,145.44 5804.98,145.44 C5804.98,145.44 7242.4,145.44 7242.4,145.44 C7242.4,145.44 7242.4,145.44 7242.4,145.44 " keyPoints="0;0;1;1" keySplines="0.167 0.167 0.833 0.833;0.167 0.167 0.833 0.833;0 0 0 0" calcMode="spline"/><animateTransform repeatCount="indefinite" dur="4.1666667s" begin="0s" xlink:href="#_R_G_L_2_G_D_3_P_0_G_0_T_0" fill="freeze" attributeName="transform" from="1 0.67777" to="1 0.67777" type="scale" additive="sum" keyTimes="0;1" values="1 0.67777;1 0.67777" keySplines="0 0 1 1" calcMode="spline"/><animateMotion repeatCount="indefinite" dur="4.1666667s" begin="0s" xlink:href="#_R_G_L_2_G_D_4_P_0_G_0_T_0" fill="freeze" keyTimes="0;0.568;0.76;1" path="M3762.52 34.31 C3762.52,34.31 3762.52,34.31 3762.52,34.31 C3762.52,34.31 5553.12,34.31 5553.12,34.31 C5553.12,34.31 5553.12,34.31 5553.12,34.31 " keyPoints="0;0;1;1" keySplines="0.167 0.167 0.833 0.833;0.167 0.167 0.833 0.833;0 0 0 0" calcMode="spline"/><animateTransform repeatCount="indefinite" dur="4.1666667s" begin="0s" xlink:href="#_R_G_L_2_G_D_4_P_0_G_0_T_0" fill="freeze" attributeName="transform" from="1 0.87268" to="1 0.87268" type="scale" additive="sum" keyTimes="0;1" values="1 0.87268;1 0.87268" keySplines="0 0 1 1" calcMode="spline"/><animateMotion repeatCount="indefinite" dur="4.1666667s" begin="0s" xlink:href="#_R_G_L_2_G_D_5_P_0_G_0_T_0" fill="freeze" keyTimes="0;0.568;0.76;1" path="M-196.08 0.13 C-196.08,0.13 -196.08,0.13 -196.08,0.13 C-196.08,0.13 1857.71,0.13 1857.71,0.13 C1857.71,0.13 1857.71,0.13 1857.71,0.13 " keyPoints="0;0;1;1" keySplines="0.167 0.167 0.833 0.833;0.167 0.167 0.833 0.833;0 0 0 0" calcMode="spline"/><animate repeatCount="indefinite" dur="4.1666667s" begin="0s" xlink:href="#_R_G_L_2_G" fill="freeze" attributeName="opacity" from="0.22" to="0" keyTimes="0;0.568;0.976;1" values="0.22;0.22;0.22;0" keySplines="0.167 0.167 0.833 0.833;0.167 0.167 0.833 0.833;0.167 0.167 0.833 0.833" calcMode="spline"/><animateMotion repeatCount="indefinite" dur="4.1666667s" begin="0s" xlink:href="#_R_G_L_2_G" fill="freeze" keyTimes="0;0.568;0.76;1" path="M50.25 169.75 C50.25,169.75 50.25,169.75 50.25,169.75 C50.25,169.75 51.38,169.75 51.38,169.75 C51.38,169.75 51.38,169.75 51.38,169.75 " keyPoints="0;0;1;1" keySplines="0.167 0.167 0.833 0.833;0.167 0.167 0.833 0.833;0 0 0 0" calcMode="spline"/><animateTransform repeatCount="indefinite" dur="4.1666667s" begin="0s" xlink:href="#_R_G_L_2_G" fill="freeze" attributeName="transform" from="0.05949 0.26447" to="0.05949 0.26447" type="scale" additive="sum" keyTimes="0;1" values="0.05949 0.26447;0.05949 0.26447" keySplines="0 0 1 1" calcMode="spline"/><animateTransform repeatCount="indefinite" dur="4.1666667s" begin="0s" xlink:href="#_R_G_L_2_G" fill="freeze" attributeName="transform" from="196 0" to="196 0" type="translate" additive="sum" keyTimes="0;1" values="196 0;196 0" keySplines="0 0 1 1" calcMode="spline"/><animate repeatCount="indefinite" dur="4.1666667s" begin="0s" xlink:href="#_R_G_L_2_G_M" fill="freeze" attributeName="opacity" from="0" to="0" keyTimes="0;0.568;0.5680004;0.764;0.764;1" values="0;0;1;1;0;0" keySplines="0 0 0 0;0 0 0 0;0 0 0 0;0 0 0 0;0 0 0 0" calcMode="spline"/><animate repeatCount="indefinite" dur="4.1666667s" begin="0s" xlink:href="#_R_G_L_1_G" fill="freeze" attributeName="opacity" from="0" to="0" keyTimes="0;0.756;0.78;0.976;1" values="0;0;0.4;0.4;0" keySplines="0.167 0.167 0.833 0.833;0.167 0.167 0.833 0.833;0.167 0.167 0.833 0.833;0.167 0.167 0.833 0.833" calcMode="spline"/><animate repeatCount="indefinite" dur="4.1666667s" begin="0s" xlink:href="#_R_G_L_1_G_M" fill="freeze" attributeName="opacity" from="0" to="0" keyTimes="0;0.764;0.7640004;0.844;0.844;1" values="0;0;1;1;0;0" keySplines="0 0 0 0;0 0 0 0;0 0 0 0;0 0 0 0;0 0 0 0" calcMode="spline"/><animate repeatCount="indefinite" dur="4.1666667s" begin="0s" xlink:href="#_R_G_L_0_G" fill="freeze" attributeName="opacity" from="0" to="0" keyTimes="0;0.764;0.804;0.976;1" values="0;0;1;1;0" keySplines="0.167 0.167 0.833 0.833;0.167 0.167 0.833 0.833;0.167 0.167 0.833 0.833;0.167 0.167 0.833 0.833" calcMode="spline"/><animateMotion repeatCount="indefinite" dur="4.1666667s" begin="0s" xlink:href="#_R_G_L_0_G" fill="freeze" keyTimes="0;0.764;0.804;0.84;1" path="M395.65 104 C395.65,104 395.65,104 395.65,104 C395.65,104 395.65,55.26 395.65,55.26 C395.65,55.26 395.65,76 395.65,76 C395.65,76 395.65,76 395.65,76 " keyPoints="0;0;0.7;1;1" keySplines="0.167 0.167 0.833 0.833;0.167 0.167 0.833 0.833;0.167 0.167 0.833 0.833;0 0 0 0" calcMode="spline"/><animateTransform repeatCount="indefinite" dur="4.1666667s" begin="0s" xlink:href="#_R_G_L_0_G" fill="freeze" attributeName="transform" from="-204 248.242" to="-204 248.242" type="translate" additive="sum" keyTimes="0;1" values="-204 248.242;-204 248.242" keySplines="0 0 1 1" calcMode="spline"/><animate repeatCount="indefinite" dur="4.1666667s" begin="0s" xlink:href="#_R_G_L_0_G_M" fill="freeze" attributeName="opacity" from="0" to="1" keyTimes="0;0.764;0.7640004;1" values="0;0;1;1" keySplines="0 0 0 0;0 0 0 0;0 0 0 0" calcMode="spline"/><animate attributeType="XML" attributeName="opacity" dur="4s" from="0" to="1" xlink:href="#time_group"/></defs><g id="_R_G"><g id="_R_G_L_8_G"><path id="_R_G_L_8_G_D_0_P_0" fill="#333333" fill-opacity="1" fill-rule="nonzero" d=" M423.13 256.66 C423.13,274.15 408.95,288.33 391.46,288.33 C373.97,288.33 359.79,274.15 359.79,256.66 C359.79,239.17 373.97,224.99 391.46,224.99 C408.95,224.99 423.13,239.17 423.13,256.66z "/><path id="_R_G_L_8_G_D_1_P_0" fill="#333333" fill-opacity="1" fill-rule="nonzero" d=" M454.79 322.75 C454.79,322.75 454.79,344.6 454.79,344.6 C454.79,344.6 328.14,344.6 328.14,344.6 C328.66,337.41 327.43,329.22 328.17,322.16 C329.39,310.52 350.33,302.99 359.92,300.27 C381.36,294.2 399.52,293.98 421.07,299.72 C431.35,302.47 453.85,310.12 454.79,322.75z "/></g><g id="_R_G_L_7_G"><path id="_R_G_L_7_G_D_0_P_0" fill="#1a1a1a" fill-opacity="1" fill-rule="nonzero" d=" M173.33 328.21 C173.33,328.21 643.64,328.21 643.64,328.21 C652.54,328.21 659.83,320.92 659.83,312.02 C659.83,312.02 659.83,75.7 659.83,75.7 C659.83,66.8 652.54,59.52 643.64,59.52 C643.64,59.52 173.33,59.52 173.33,59.52 C164.43,59.52 157.15,66.8 157.15,75.7 C157.15,75.7 157.15,312.02 157.15,312.02 C157.15,320.92 164.43,328.21 173.33,328.21z "/><path id="_R_G_L_7_G_D_1_P_0" fill="#5e5e5e" fill-opacity="1" fill-rule="nonzero" d=" M173.33 328.21 C164.43,328.21 157.15,320.92 157.15,312.02 C157.15,312.02 157.15,75.7 157.15,75.7 C157.15,74.31 157.34,72.97 157.68,71.68 C148.28,72.8 140.93,80.84 140.93,90.53 C140.93,90.53 140.93,321.23 140.93,321.23 C140.93,331.68 149.48,340.23 159.93,340.23 C159.93,340.23 624.61,340.23 624.61,340.23 C632.59,340.23 639.46,335.23 642.25,328.21 C642.25,328.21 173.33,328.21 173.33,328.21z "/><path id="_R_G_L_7_G_D_2_P_0" stroke="#ffffff" stroke-linecap="round" stroke-linejoin="round" fill="none" stroke-width="0.5" stroke-opacity="1" d=" M184.59 115.01 C184.59,115.01 445.59,115.01 445.59,115.01 "/><path id="_R_G_L_7_G_D_3_P_0" fill="#5e5e5e" fill-opacity="1" fill-rule="nonzero" d=" M634.49 102.34 C634.49,106.72 630.93,110.28 626.55,110.28 C622.16,110.28 618.61,106.72 618.61,102.34 C618.61,97.95 622.16,94.4 626.55,94.4 C630.93,94.4 634.49,97.95 634.49,102.34z "/><path id="_R_G_L_7_G_D_4_P_0" fill="#5e5e5e" fill-opacity="1" fill-rule="nonzero" d=" M602.49 102.34 C602.49,106.72 598.93,110.28 594.55,110.28 C590.16,110.28 586.61,106.72 586.61,102.34 C586.61,97.95 590.16,94.4 594.55,94.4 C598.93,94.4 602.49,97.95 602.49,102.34z "/><path id="_R_G_L_7_G_D_5_P_0" fill="#5e5e5e" fill-opacity="1" fill-rule="nonzero" d=" M570.49 102.34 C570.49,106.72 566.93,110.28 562.55,110.28 C558.16,110.28 554.61,106.72 554.61,102.34 C554.61,97.95 558.16,94.4 562.55,94.4 C566.93,94.4 570.49,97.95 570.49,102.34z "/><path id="_R_G_L_7_G_D_6_P_0" fill="#5e5e5e" fill-opacity="1" fill-rule="nonzero" d=" M191.45 241.79 C191.45,241.79 504.01,241.79 504.01,241.79 C508.29,241.79 511.79,238.29 511.79,234.01 C511.79,234.01 511.79,154.58 511.79,154.58 C511.79,150.3 508.29,146.8 504.01,146.8 C504.01,146.8 191.45,146.8 191.45,146.8 C187.17,146.8 183.67,150.3 183.67,154.58 C183.67,154.58 183.67,234.01 183.67,234.01 C183.67,238.29 187.17,241.79 191.45,241.79z "/><path id="_R_G_L_7_G_D_7_P_0" fill="#5e5e5e" fill-opacity="1" fill-rule="nonzero" d=" M543.39 305.23 C543.39,305.23 621.82,305.23 621.82,305.23 C624.69,305.23 627.05,302.88 627.05,300 C627.05,300 627.05,151.77 627.05,151.77 C627.05,148.9 624.69,146.54 621.82,146.54 C621.82,146.54 543.39,146.54 543.39,146.54 C540.51,146.54 538.16,148.9 538.16,151.77 C538.16,151.77 538.16,300 538.16,300 C538.16,302.88 540.51,305.23 543.39,305.23z "/><path id="_R_G_L_7_G_D_8_P_0" fill="#1a1a1a" fill-opacity="1" fill-rule="nonzero" d=" M606.92 167.93 C606.92,167.93 558.24,167.93 558.24,167.93 C557.88,167.93 557.58,167.64 557.58,167.28 C557.58,167.28 557.58,164.59 557.58,164.59 C557.58,164.23 557.88,163.93 558.24,163.93 C558.24,163.93 606.92,163.93 606.92,163.93 C607.29,163.93 607.58,164.23 607.58,164.59 C607.58,164.59 607.58,167.28 607.58,167.28 C607.58,167.64 607.29,167.93 606.92,167.93z "/><path id="_R_G_L_7_G_D_9_P_0" fill="#1a1a1a" fill-opacity="1" fill-rule="nonzero" d=" M447.91 170.61 C447.91,170.61 202.08,170.61 202.08,170.61 C200.93,170.61 200,169.67 200,168.53 C200,168.53 200,164.69 200,164.69 C200,163.55 200.93,162.61 202.08,162.61 C202.08,162.61 447.91,162.61 447.91,162.61 C449.06,162.61 450,163.55 450,164.69 C450,164.69 450,168.53 450,168.53 C450,169.67 449.06,170.61 447.91,170.61z "/><path id="_R_G_L_7_G_D_10_P_0" fill="#1a1a1a" fill-opacity="1" fill-rule="nonzero" d=" M398.68 191.01 C398.68,191.01 201.31,191.01 201.31,191.01 C200.59,191.01 200,190.42 200,189.7 C200,189.7 200,188.33 200,188.33 C200,187.61 200.59,187.01 201.31,187.01 C201.31,187.01 398.68,187.01 398.68,187.01 C399.4,187.01 400,187.61 400,188.33 C400,188.33 400,189.7 400,189.7 C400,190.42 399.4,191.01 398.68,191.01z "/><path id="_R_G_L_7_G_D_11_P_0" fill="#1a1a1a" fill-opacity="1" fill-rule="nonzero" d=" M348.86 211.42 C348.86,211.42 201.14,211.42 201.14,211.42 C200.51,211.42 200,210.9 200,210.28 C200,210.28 200,208.56 200,208.56 C200,207.93 200.51,207.42 201.14,207.42 C201.14,207.42 348.86,207.42 348.86,207.42 C349.48,207.42 350,207.93 350,208.56 C350,208.56 350,210.28 350,210.28 C350,210.9 349.48,211.42 348.86,211.42z "/><path id="_R_G_L_7_G_D_12_P_0" fill="#1a1a1a" fill-opacity="1" fill-rule="nonzero" d=" M606.92 187.05 C606.92,187.05 558.24,187.05 558.24,187.05 C557.88,187.05 557.58,186.75 557.58,186.39 C557.58,186.39 557.58,183.71 557.58,183.71 C557.58,183.34 557.88,183.05 558.24,183.05 C558.24,183.05 606.92,183.05 606.92,183.05 C607.29,183.05 607.58,183.34 607.58,183.71 C607.58,183.71 607.58,186.39 607.58,186.39 C607.58,186.75 607.29,187.05 606.92,187.05z "/><path id="_R_G_L_7_G_D_13_P_0" fill="#1a1a1a" fill-opacity="1" fill-rule="nonzero" d=" M606.92 206.16 C606.92,206.16 558.24,206.16 558.24,206.16 C557.88,206.16 557.58,205.87 557.58,205.51 C557.58,205.51 557.58,202.82 557.58,202.82 C557.58,202.46 557.88,202.16 558.24,202.16 C558.24,202.16 606.92,202.16 606.92,202.16 C607.29,202.16 607.58,202.46 607.58,202.82 C607.58,202.82 607.58,205.51 607.58,205.51 C607.58,205.87 607.29,206.16 606.92,206.16z "/><path id="_R_G_L_7_G_D_14_P_0" fill="#1a1a1a" fill-opacity="1" fill-rule="nonzero" d=" M606.92 225.28 C606.92,225.28 558.24,225.28 558.24,225.28 C557.88,225.28 557.58,224.98 557.58,224.62 C557.58,224.62 557.58,221.93 557.58,221.93 C557.58,221.57 557.88,221.28 558.24,221.28 C558.24,221.28 606.92,221.28 606.92,221.28 C607.29,221.28 607.58,221.57 607.58,221.93 C607.58,221.93 607.58,224.62 607.58,224.62 C607.58,224.98 607.29,225.28 606.92,225.28z "/></g><g id="_R_G_L_6_G"><path id="_R_G_L_6_G_D_0_P_0" fill="#333333" fill-opacity="1" fill-rule="nonzero" d=" M618.37 257.32 C618.37,274.81 604.19,288.99 586.69,288.99 C569.2,288.99 555.02,274.81 555.02,257.32 C555.02,239.83 569.2,225.65 586.69,225.65 C604.19,225.65 618.37,239.83 618.37,257.32z "/><path id="_R_G_L_6_G_D_1_P_0" fill="#333333" fill-opacity="1" fill-rule="nonzero" d=" M650.02 323.41 C650.02,323.41 650.02,345.26 650.02,345.26 C650.02,345.26 523.37,345.26 523.37,345.26 C523.89,338.07 522.66,329.88 523.4,322.82 C524.62,311.18 545.57,303.65 555.16,300.93 C576.59,294.86 594.76,294.64 616.3,300.38 C626.59,303.13 649.08,310.78 650.02,323.41z "/><path id="_R_G_L_6_G_D_2_P_0" fill="#333333" fill-opacity="1" fill-rule="nonzero" d=" M525.1 101.41 C525.1,118.9 510.92,133.08 493.43,133.08 C475.94,133.08 461.75,118.9 461.75,101.41 C461.75,83.92 475.94,69.74 493.43,69.74 C510.92,69.74 525.1,83.92 525.1,101.41z "/><path id="_R_G_L_6_G_D_3_P_0" fill="#333333" fill-opacity="1" fill-rule="nonzero" d=" M556.76 167.49 C556.76,167.49 556.76,189.34 556.76,189.34 C556.76,189.34 430.11,189.34 430.11,189.34 C430.63,182.16 429.39,173.97 430.14,166.9 C431.36,155.27 452.3,147.74 461.89,145.02 C483.32,138.95 501.49,138.72 523.04,144.47 C533.32,147.21 555.82,154.87 556.76,167.49z "/><path id="_R_G_L_6_G_D_4_P_0" fill="#333333" fill-opacity="1" fill-rule="nonzero" d=" M425.41 258.3 C425.41,275.8 411.23,289.98 393.74,289.98 C376.24,289.98 362.06,275.8 362.06,258.3 C362.06,240.81 376.24,226.63 393.74,226.63 C411.23,226.63 425.41,240.81 425.41,258.3z "/><path id="_R_G_L_6_G_D_5_P_0" fill="#333333" fill-opacity="1" fill-rule="nonzero" d=" M457.06 324.39 C457.06,324.39 457.07,346.24 457.07,346.24 C457.07,346.24 330.41,346.24 330.41,346.24 C330.93,339.05 329.7,330.86 330.44,323.8 C331.66,312.16 352.61,304.63 362.2,301.92 C383.63,295.84 401.8,295.62 423.34,301.36 C433.63,304.11 456.12,311.76 457.06,324.39z "/></g><g id="_R_G_L_5_G"><path id="_R_G_L_5_G_D_0_P_0" fill="#1a1a1a" fill-opacity="1" fill-rule="nonzero" d=" M717.54 370.65 C717.54,370.65 1101.07,370.65 1101.07,370.65 C1108.33,370.65 1114.27,364.71 1114.27,357.45 C1114.27,357.45 1114.27,164.73 1114.27,164.73 C1114.27,157.47 1108.33,151.53 1101.07,151.53 C1101.07,151.53 717.54,151.53 717.54,151.53 C710.28,151.53 704.34,157.47 704.34,164.73 C704.34,164.73 704.34,357.45 704.34,357.45 C704.34,364.71 710.28,370.65 717.54,370.65z "/><path id="_R_G_L_5_G_D_1_P_0" fill="#5e5e5e" fill-opacity="1" fill-rule="nonzero" d=" M717.54 370.65 C710.28,370.65 704.34,364.71 704.34,357.45 C704.34,357.45 704.34,164.73 704.34,164.73 C704.34,163.6 704.5,162.5 704.77,161.45 C697.11,162.37 691.12,168.93 691.12,176.83 C691.12,176.83 691.12,364.95 691.12,364.95 C691.12,373.47 698.09,380.45 706.61,380.45 C706.61,380.45 1085.55,380.45 1085.55,380.45 C1092.06,380.45 1097.65,376.37 1099.94,370.65 C1099.94,370.65 717.54,370.65 717.54,370.65z "/><path id="_R_G_L_5_G_D_2_P_0" stroke="#ffffff" stroke-linecap="round" stroke-linejoin="round" fill="none" stroke-width="0.5" stroke-opacity="1" d=" M726.72 196.79 C726.72,196.79 939.56,196.79 939.56,196.79 "/><path id="_R_G_L_5_G_D_3_P_0" fill="#5e5e5e" fill-opacity="1" fill-rule="nonzero" d=" M1093.6 186.45 C1093.6,190.03 1090.7,192.93 1087.13,192.93 C1083.55,192.93 1080.65,190.03 1080.65,186.45 C1080.65,182.88 1083.55,179.98 1087.13,179.98 C1090.7,179.98 1093.6,182.88 1093.6,186.45z "/><path id="_R_G_L_5_G_D_4_P_0" fill="#5e5e5e" fill-opacity="1" fill-rule="nonzero" d=" M1067.51 186.45 C1067.51,190.03 1064.61,192.93 1061.03,192.93 C1057.46,192.93 1054.56,190.03 1054.56,186.45 C1054.56,182.88 1057.46,179.98 1061.03,179.98 C1064.61,179.98 1067.51,182.88 1067.51,186.45z "/><path id="_R_G_L_5_G_D_5_P_0" fill="#5e5e5e" fill-opacity="1" fill-rule="nonzero" d=" M1041.41 186.45 C1041.41,190.03 1038.51,192.93 1034.94,192.93 C1031.36,192.93 1028.46,190.03 1028.46,186.45 C1028.46,182.88 1031.36,179.98 1034.94,179.98 C1038.51,179.98 1041.41,182.88 1041.41,186.45z "/><path id="_R_G_L_5_G_D_6_P_0" fill="#5e5e5e" fill-opacity="1" fill-rule="nonzero" d=" M732.31 300.17 C732.31,300.17 987.21,300.17 987.21,300.17 C990.69,300.17 993.55,297.32 993.55,293.83 C993.55,293.83 993.55,229.05 993.55,229.05 C993.55,225.57 990.69,222.71 987.21,222.71 C987.21,222.71 732.31,222.71 732.31,222.71 C728.82,222.71 725.97,225.57 725.97,229.05 C725.97,229.05 725.97,293.83 725.97,293.83 C725.97,297.32 728.82,300.17 732.31,300.17z "/><path id="_R_G_L_5_G_D_7_P_0" fill="#5e5e5e" fill-opacity="1" fill-rule="nonzero" d=" M1019.32 351.91 C1019.32,351.91 1083.27,351.91 1083.27,351.91 C1085.62,351.91 1087.54,349.99 1087.54,347.64 C1087.54,347.64 1087.54,226.77 1087.54,226.77 C1087.54,224.42 1085.62,222.5 1083.27,222.5 C1083.27,222.5 1019.32,222.5 1019.32,222.5 C1016.97,222.5 1015.05,224.42 1015.05,226.77 C1015.05,226.77 1015.05,347.64 1015.05,347.64 C1015.05,349.99 1016.97,351.91 1019.32,351.91z "/><path id="_R_G_L_5_G_D_8_P_0" fill="#1a1a1a" fill-opacity="1" fill-rule="nonzero" d=" M1071.13 239.95 C1071.13,239.95 1031.43,239.95 1031.43,239.95 C1031.13,239.95 1030.89,239.71 1030.89,239.41 C1030.89,239.41 1030.89,237.22 1030.89,237.22 C1030.89,236.93 1031.13,236.68 1031.43,236.68 C1031.43,236.68 1071.13,236.68 1071.13,236.68 C1071.42,236.68 1071.66,236.93 1071.66,237.22 C1071.66,237.22 1071.66,239.41 1071.66,239.41 C1071.66,239.71 1071.42,239.95 1071.13,239.95z "/><path id="_R_G_L_5_G_D_9_P_0" fill="#1a1a1a" fill-opacity="1" fill-rule="nonzero" d=" M941.46 242.13 C941.46,242.13 740.98,242.13 740.98,242.13 C740.05,242.13 739.28,241.37 739.28,240.43 C739.28,240.43 739.28,237.3 739.28,237.3 C739.28,236.37 740.05,235.61 740.98,235.61 C740.98,235.61 941.46,235.61 941.46,235.61 C942.39,235.61 943.15,236.37 943.15,237.3 C943.15,237.3 943.15,240.43 943.15,240.43 C943.15,241.37 942.39,242.13 941.46,242.13z "/><path id="_R_G_L_5_G_D_10_P_0" fill="#1a1a1a" fill-opacity="1" fill-rule="nonzero" d=" M901.31 258.77 C901.31,258.77 740.36,258.77 740.36,258.77 C739.77,258.77 739.28,258.28 739.28,257.69 C739.28,257.69 739.28,256.58 739.28,256.58 C739.28,255.99 739.77,255.51 740.36,255.51 C740.36,255.51 901.31,255.51 901.31,255.51 C901.9,255.51 902.38,255.99 902.38,256.58 C902.38,256.58 902.38,257.69 902.38,257.69 C902.38,258.28 901.9,258.77 901.31,258.77z "/><path id="_R_G_L_5_G_D_11_P_0" fill="#1a1a1a" fill-opacity="1" fill-rule="nonzero" d=" M860.68 275.41 C860.68,275.41 740.21,275.41 740.21,275.41 C739.7,275.41 739.28,274.99 739.28,274.48 C739.28,274.48 739.28,273.07 739.28,273.07 C739.28,272.56 739.7,272.14 740.21,272.14 C740.21,272.14 860.68,272.14 860.68,272.14 C861.19,272.14 861.61,272.56 861.61,273.07 C861.61,273.07 861.61,274.48 861.61,274.48 C861.61,274.99 861.19,275.41 860.68,275.41z "/><path id="_R_G_L_5_G_D_12_P_0" fill="#1a1a1a" fill-opacity="1" fill-rule="nonzero" d=" M1071.13 255.53 C1071.13,255.53 1031.43,255.53 1031.43,255.53 C1031.13,255.53 1030.89,255.29 1030.89,255 C1030.89,255 1030.89,252.81 1030.89,252.81 C1030.89,252.51 1031.13,252.27 1031.43,252.27 C1031.43,252.27 1071.13,252.27 1071.13,252.27 C1071.42,252.27 1071.66,252.51 1071.66,252.81 C1071.66,252.81 1071.66,255 1071.66,255 C1071.66,255.29 1071.42,255.53 1071.13,255.53z "/><path id="_R_G_L_5_G_D_13_P_0" fill="#1a1a1a" fill-opacity="1" fill-rule="nonzero" d=" M1071.13 271.12 C1071.13,271.12 1031.43,271.12 1031.43,271.12 C1031.13,271.12 1030.89,270.88 1030.89,270.59 C1030.89,270.59 1030.89,268.4 1030.89,268.4 C1030.89,268.1 1031.13,267.86 1031.43,267.86 C1031.43,267.86 1071.13,267.86 1071.13,267.86 C1071.42,267.86 1071.66,268.1 1071.66,268.4 C1071.66,268.4 1071.66,270.59 1071.66,270.59 C1071.66,270.88 1071.42,271.12 1071.13,271.12z "/><path id="_R_G_L_5_G_D_14_P_0" fill="#1a1a1a" fill-opacity="1" fill-rule="nonzero" d=" M1071.13 286.71 C1071.13,286.71 1031.43,286.71 1031.43,286.71 C1031.13,286.71 1030.89,286.47 1030.89,286.17 C1030.89,286.17 1030.89,283.98 1030.89,283.98 C1030.89,283.69 1031.13,283.45 1031.43,283.45 C1031.43,283.45 1071.13,283.45 1071.13,283.45 C1071.42,283.45 1071.66,283.69 1071.66,283.98 C1071.66,283.98 1071.66,286.17 1071.66,286.17 C1071.66,286.47 1071.42,286.71 1071.13,286.71z "/><path id="_R_G_L_5_G_D_15_P_0" fill="#1a1a1a" fill-opacity="1" fill-rule="nonzero" d=" M171.08 261.9 C171.08,261.9 641.39,261.9 641.39,261.9 C650.29,261.9 657.58,254.61 657.58,245.71 C657.58,245.71 657.58,9.39 657.58,9.39 C657.58,0.49 650.29,-6.8 641.39,-6.8 C641.39,-6.8 171.08,-6.8 171.08,-6.8 C162.18,-6.8 154.9,0.49 154.9,9.39 C154.9,9.39 154.9,245.71 154.9,245.71 C154.9,254.61 162.18,261.9 171.08,261.9z "/><path id="_R_G_L_5_G_D_16_P_0" fill="#5e5e5e" fill-opacity="1" fill-rule="nonzero" d=" M171.08 261.9 C162.18,261.9 154.9,254.61 154.9,245.71 C154.9,245.71 154.9,9.39 154.9,9.39 C154.9,8 155.09,6.66 155.43,5.37 C146.03,6.49 138.68,14.53 138.68,24.22 C138.68,24.22 138.68,254.91 138.68,254.91 C138.68,265.36 147.23,273.91 157.68,273.91 C157.68,273.91 622.36,273.91 622.36,273.91 C630.35,273.91 637.21,268.91 640.01,261.9 C640.01,261.9 171.08,261.9 171.08,261.9z "/><path id="_R_G_L_5_G_D_17_P_0" stroke="#ffffff" stroke-linecap="round" stroke-linejoin="round" fill="none" stroke-width="0.5" stroke-opacity="1" d=" M182.34 48.7 C182.34,48.7 443.34,48.7 443.34,48.7 "/><path id="_R_G_L_5_G_D_18_P_0" fill="#5e5e5e" fill-opacity="1" fill-rule="nonzero" d=" M632.24 36.02 C632.24,40.41 628.68,43.96 624.3,43.96 C619.91,43.96 616.36,40.41 616.36,36.02 C616.36,31.64 619.91,28.08 624.3,28.08 C628.68,28.08 632.24,31.64 632.24,36.02z "/><path id="_R_G_L_5_G_D_19_P_0" fill="#5e5e5e" fill-opacity="1" fill-rule="nonzero" d=" M600.24 36.02 C600.24,40.41 596.68,43.96 592.3,43.96 C587.91,43.96 584.36,40.41 584.36,36.02 C584.36,31.64 587.91,28.08 592.3,28.08 C596.68,28.08 600.24,31.64 600.24,36.02z "/><path id="_R_G_L_5_G_D_20_P_0" fill="#5e5e5e" fill-opacity="1" fill-rule="nonzero" d=" M568.24 36.02 C568.24,40.41 564.68,43.96 560.3,43.96 C555.91,43.96 552.36,40.41 552.36,36.02 C552.36,31.64 555.91,28.08 560.3,28.08 C564.68,28.08 568.24,31.64 568.24,36.02z "/><path id="_R_G_L_5_G_D_21_P_0" fill="#5e5e5e" fill-opacity="1" fill-rule="nonzero" d=" M189.2 175.48 C189.2,175.48 501.77,175.48 501.77,175.48 C506.04,175.48 509.54,171.98 509.54,167.7 C509.54,167.7 509.54,88.26 509.54,88.26 C509.54,83.99 506.04,80.49 501.77,80.49 C501.77,80.49 189.2,80.49 189.2,80.49 C184.92,80.49 181.42,83.99 181.42,88.26 C181.42,88.26 181.42,167.7 181.42,167.7 C181.42,171.98 184.92,175.48 189.2,175.48z "/><path id="_R_G_L_5_G_D_22_P_0" fill="#5e5e5e" fill-opacity="1" fill-rule="nonzero" d=" M541.14 238.92 C541.14,238.92 619.57,238.92 619.57,238.92 C622.44,238.92 624.8,236.57 624.8,233.69 C624.8,233.69 624.8,85.46 624.8,85.46 C624.8,82.58 622.44,80.23 619.57,80.23 C619.57,80.23 541.14,80.23 541.14,80.23 C538.26,80.23 535.91,82.58 535.91,85.46 C535.91,85.46 535.91,233.69 535.91,233.69 C535.91,236.57 538.26,238.92 541.14,238.92z "/><path id="_R_G_L_5_G_D_23_P_0" fill="#1a1a1a" fill-opacity="1" fill-rule="nonzero" d=" M604.67 101.62 C604.67,101.62 555.99,101.62 555.99,101.62 C555.63,101.62 555.33,101.33 555.33,100.96 C555.33,100.96 555.33,98.28 555.33,98.28 C555.33,97.92 555.63,97.62 555.99,97.62 C555.99,97.62 604.67,97.62 604.67,97.62 C605.04,97.62 605.33,97.92 605.33,98.28 C605.33,98.28 605.33,100.96 605.33,100.96 C605.33,101.33 605.04,101.62 604.67,101.62z "/><path id="_R_G_L_5_G_D_24_P_0" fill="#1a1a1a" fill-opacity="1" fill-rule="nonzero" d=" M445.66 104.3 C445.66,104.3 199.83,104.3 199.83,104.3 C198.68,104.3 197.75,103.36 197.75,102.22 C197.75,102.22 197.75,98.38 197.75,98.38 C197.75,97.24 198.68,96.3 199.83,96.3 C199.83,96.3 445.66,96.3 445.66,96.3 C446.81,96.3 447.75,97.24 447.75,98.38 C447.75,98.38 447.75,102.22 447.75,102.22 C447.75,103.36 446.81,104.3 445.66,104.3z "/><path id="_R_G_L_5_G_D_25_P_0" fill="#1a1a1a" fill-opacity="1" fill-rule="nonzero" d=" M396.43 124.7 C396.43,124.7 199.06,124.7 199.06,124.7 C198.34,124.7 197.75,124.11 197.75,123.39 C197.75,123.39 197.75,122.02 197.75,122.02 C197.75,121.3 198.34,120.7 199.06,120.7 C199.06,120.7 396.43,120.7 396.43,120.7 C397.15,120.7 397.75,121.3 397.75,122.02 C397.75,122.02 397.75,123.39 397.75,123.39 C397.75,124.11 397.15,124.7 396.43,124.7z "/><path id="_R_G_L_5_G_D_26_P_0" fill="#1a1a1a" fill-opacity="1" fill-rule="nonzero" d=" M346.61 145.1 C346.61,145.1 198.89,145.1 198.89,145.1 C198.26,145.1 197.75,144.59 197.75,143.97 C197.75,143.97 197.75,142.24 197.75,142.24 C197.75,141.62 198.26,141.1 198.89,141.1 C198.89,141.1 346.61,141.1 346.61,141.1 C347.23,141.1 347.75,141.62 347.75,142.24 C347.75,142.24 347.75,143.97 347.75,143.97 C347.75,144.59 347.23,145.1 346.61,145.1z "/><path id="_R_G_L_5_G_D_27_P_0" fill="#1a1a1a" fill-opacity="1" fill-rule="nonzero" d=" M604.67 120.74 C604.67,120.74 555.99,120.74 555.99,120.74 C555.63,120.74 555.33,120.44 555.33,120.08 C555.33,120.08 555.33,117.39 555.33,117.39 C555.33,117.03 555.63,116.74 555.99,116.74 C555.99,116.74 604.67,116.74 604.67,116.74 C605.04,116.74 605.33,117.03 605.33,117.39 C605.33,117.39 605.33,120.08 605.33,120.08 C605.33,120.44 605.04,120.74 604.67,120.74z "/><path id="_R_G_L_5_G_D_28_P_0" fill="#1a1a1a" fill-opacity="1" fill-rule="nonzero" d=" M604.67 139.85 C604.67,139.85 555.99,139.85 555.99,139.85 C555.63,139.85 555.33,139.56 555.33,139.19 C555.33,139.19 555.33,136.51 555.33,136.51 C555.33,136.15 555.63,135.85 555.99,135.85 C555.99,135.85 604.67,135.85 604.67,135.85 C605.04,135.85 605.33,136.15 605.33,136.51 C605.33,136.51 605.33,139.19 605.33,139.19 C605.33,139.56 605.04,139.85 604.67,139.85z "/><path id="_R_G_L_5_G_D_29_P_0" fill="#1a1a1a" fill-opacity="1" fill-rule="nonzero" d=" M604.67 158.96 C604.67,158.96 555.99,158.96 555.99,158.96 C555.63,158.96 555.33,158.67 555.33,158.31 C555.33,158.31 555.33,155.62 555.33,155.62 C555.33,155.26 555.63,154.96 555.99,154.96 C555.99,154.96 604.67,154.96 604.67,154.96 C605.04,154.96 605.33,155.26 605.33,155.62 C605.33,155.62 605.33,158.31 605.33,158.31 C605.33,158.67 605.04,158.96 604.67,158.96z "/></g><g id="_R_G_L_4_G" transform=" translate(609.501, 307.926) scale(0.26, 0.26) translate(-400, -200)"><path id="_R_G_L_4_G_D_0_P_0" fill="#333333" fill-opacity="1" fill-rule="nonzero" d=" M618.37 -50.15 C618.37,-32.66 604.19,-18.48 586.69,-18.48 C569.2,-18.48 555.02,-32.66 555.02,-50.15 C555.02,-67.64 569.2,-81.82 586.69,-81.82 C604.19,-81.82 618.37,-67.64 618.37,-50.15z "/><path id="_R_G_L_4_G_D_1_P_0" fill="#333333" fill-opacity="1" fill-rule="nonzero" d=" M650.02 15.93 C650.02,15.93 650.02,37.78 650.02,37.78 C650.02,37.78 523.37,37.78 523.37,37.78 C523.89,30.6 522.66,22.41 523.4,15.34 C524.62,3.7 545.57,-3.82 555.16,-6.54 C576.59,-12.61 594.76,-12.84 616.3,-7.09 C626.59,-4.35 649.08,3.3 650.02,15.93z "/><path id="_R_G_L_4_G_D_2_P_0" fill="#333333" fill-opacity="1" fill-rule="nonzero" d=" M811.37 -48.97 C811.37,-31.48 797.19,-17.3 779.7,-17.3 C762.21,-17.3 748.02,-31.48 748.02,-48.97 C748.02,-66.46 762.21,-80.64 779.7,-80.64 C797.19,-80.64 811.37,-66.46 811.37,-48.97z "/><path id="_R_G_L_4_G_D_3_P_0" fill="#333333" fill-opacity="1" fill-rule="nonzero" d=" M843.03 17.11 C843.03,17.11 843.03,38.97 843.03,38.97 C843.03,38.97 716.38,38.97 716.38,38.97 C716.9,31.78 715.66,23.59 716.41,16.52 C717.63,4.89 738.57,-2.64 748.16,-5.36 C769.59,-11.43 787.76,-11.66 809.31,-5.91 C819.59,-3.16 842.09,4.49 843.03,17.11z "/><path id="_R_G_L_4_G_D_4_P_0" fill="#333333" fill-opacity="1" fill-rule="nonzero" d=" M425.41 -49.17 C425.41,-31.68 411.23,-17.5 393.74,-17.5 C376.24,-17.5 362.06,-31.68 362.06,-49.17 C362.06,-66.66 376.24,-80.84 393.74,-80.84 C411.23,-80.84 425.41,-66.66 425.41,-49.17z "/><path id="_R_G_L_4_G_D_5_P_0" fill="#333333" fill-opacity="1" fill-rule="nonzero" d=" M457.06 16.91 C457.06,16.91 457.07,38.76 457.07,38.76 C457.07,38.76 330.41,38.76 330.41,38.76 C330.93,31.58 329.7,23.39 330.44,16.32 C331.66,4.69 352.61,-2.84 362.2,-5.56 C383.63,-11.63 401.8,-11.86 423.34,-6.11 C433.63,-3.37 456.12,4.28 457.06,16.91z "/><path id="_R_G_L_4_G_D_6_P_0" fill="#333333" fill-opacity="1" fill-rule="nonzero" d=" M618.37 109.6 C618.37,127.09 604.19,141.27 586.69,141.27 C569.2,141.27 555.02,127.09 555.02,109.6 C555.02,92.11 569.2,77.93 586.69,77.93 C604.19,77.93 618.37,92.11 618.37,109.6z "/><path id="_R_G_L_4_G_D_7_P_0" fill="#333333" fill-opacity="1" fill-rule="nonzero" d=" M650.02 175.68 C650.02,175.68 650.02,197.53 650.02,197.53 C650.02,197.53 523.37,197.53 523.37,197.53 C523.89,190.35 522.66,182.16 523.4,175.09 C524.62,163.46 545.57,155.93 555.16,153.21 C576.59,147.14 594.76,146.91 616.3,152.66 C626.59,155.4 649.08,163.05 650.02,175.68z "/><path id="_R_G_L_4_G_D_8_P_0" fill="#333333" fill-opacity="1" fill-rule="nonzero" d=" M811.37 110.78 C811.37,128.27 797.19,142.45 779.7,142.45 C762.21,142.45 748.02,128.27 748.02,110.78 C748.02,93.29 762.21,79.11 779.7,79.11 C797.19,79.11 811.37,93.29 811.37,110.78z "/><path id="_R_G_L_4_G_D_9_P_0" fill="#333333" fill-opacity="1" fill-rule="nonzero" d=" M843.03 176.87 C843.03,176.87 843.03,198.72 843.03,198.72 C843.03,198.72 716.38,198.72 716.38,198.72 C716.9,191.53 715.66,183.34 716.41,176.28 C717.63,164.64 738.57,157.11 748.16,154.39 C769.59,148.32 787.76,148.1 809.31,153.84 C819.59,156.59 842.09,164.24 843.03,176.87z "/><path id="_R_G_L_4_G_D_10_P_0" fill="#333333" fill-opacity="1" fill-rule="nonzero" d=" M425.41 110.58 C425.41,128.07 411.23,142.25 393.74,142.25 C376.24,142.25 362.06,128.07 362.06,110.58 C362.06,93.09 376.24,78.91 393.74,78.91 C411.23,78.91 425.41,93.09 425.41,110.58z "/><path id="_R_G_L_4_G_D_11_P_0" fill="#333333" fill-opacity="1" fill-rule="nonzero" d=" M457.06 176.66 C457.06,176.66 457.07,198.51 457.07,198.51 C457.07,198.51 330.41,198.51 330.41,198.51 C330.93,191.33 329.7,183.14 330.44,176.07 C331.66,164.44 352.61,156.91 362.2,154.19 C383.63,148.12 401.8,147.89 423.34,153.64 C433.63,156.38 456.12,164.04 457.06,176.66z "/><path id="_R_G_L_4_G_D_12_P_0" fill="#333333" fill-opacity="1" fill-rule="nonzero" d=" M618.37 257.32 C618.37,274.81 604.19,288.99 586.69,288.99 C569.2,288.99 555.02,274.81 555.02,257.32 C555.02,239.83 569.2,225.65 586.69,225.65 C604.19,225.65 618.37,239.83 618.37,257.32z "/><path id="_R_G_L_4_G_D_13_P_0" fill="#333333" fill-opacity="1" fill-rule="nonzero" d=" M650.02 323.41 C650.02,323.41 650.02,345.26 650.02,345.26 C650.02,345.26 523.37,345.26 523.37,345.26 C523.89,338.07 522.66,329.88 523.4,322.82 C524.62,311.18 545.57,303.65 555.16,300.93 C576.59,294.86 594.76,294.64 616.3,300.38 C626.59,303.13 649.08,310.78 650.02,323.41z "/><path id="_R_G_L_4_G_D_14_P_0" fill="#333333" fill-opacity="1" fill-rule="nonzero" d=" M811.37 258.51 C811.37,276 797.19,290.18 779.7,290.18 C762.21,290.18 748.02,276 748.02,258.51 C748.02,241.02 762.21,226.84 779.7,226.84 C797.19,226.84 811.37,241.02 811.37,258.51z "/><path id="_R_G_L_4_G_D_15_P_0" fill="#333333" fill-opacity="1" fill-rule="nonzero" d=" M843.03 324.59 C843.03,324.59 843.03,346.44 843.03,346.44 C843.03,346.44 716.38,346.44 716.38,346.44 C716.9,339.26 715.66,331.07 716.41,324 C717.63,312.36 738.57,304.84 748.16,302.12 C769.59,296.05 787.76,295.82 809.31,301.57 C819.59,304.31 842.09,311.96 843.03,324.59z "/><path id="_R_G_L_4_G_D_16_P_0" fill="#333333" fill-opacity="1" fill-rule="nonzero" d=" M425.41 258.3 C425.41,275.8 411.23,289.98 393.74,289.98 C376.24,289.98 362.06,275.8 362.06,258.3 C362.06,240.81 376.24,226.63 393.74,226.63 C411.23,226.63 425.41,240.81 425.41,258.3z "/><path id="_R_G_L_4_G_D_17_P_0" fill="#333333" fill-opacity="1" fill-rule="nonzero" d=" M457.06 324.39 C457.06,324.39 457.07,346.24 457.07,346.24 C457.07,346.24 330.41,346.24 330.41,346.24 C330.93,339.05 329.7,330.86 330.44,323.8 C331.66,312.16 352.61,304.63 362.2,301.92 C383.63,295.84 401.8,295.62 423.34,301.36 C433.63,304.11 456.12,311.76 457.06,324.39z "/></g><g id="_R_G_L_3_G" transform=" translate(627.955, 174.473) scale(0.22, 0.22) translate(-400, -200)"><path id="_R_G_L_3_G_D_0_P_0" fill="#1a1a1a" fill-opacity="1" fill-rule="nonzero" d=" M373.58 37.45 C373.58,37.45 757.1,37.45 757.1,37.45 C764.36,37.45 770.3,31.51 770.3,24.25 C770.3,24.25 770.3,-168.46 770.3,-168.46 C770.3,-175.72 764.36,-181.66 757.1,-181.66 C757.1,-181.66 373.58,-181.66 373.58,-181.66 C366.32,-181.66 360.38,-175.72 360.38,-168.46 C360.38,-168.46 360.38,24.25 360.38,24.25 C360.38,31.51 366.32,37.45 373.58,37.45z "/><path id="_R_G_L_3_G_D_1_P_0" fill="#5e5e5e" fill-opacity="1" fill-rule="nonzero" d=" M373.58 37.45 C366.32,37.45 360.38,31.51 360.38,24.25 C360.38,24.25 360.38,-168.46 360.38,-168.46 C360.38,-169.59 360.54,-170.69 360.81,-171.74 C353.15,-170.82 347.15,-164.27 347.15,-156.37 C347.15,-156.37 347.15,31.76 347.15,31.76 C347.15,40.28 354.12,47.25 362.65,47.25 C362.65,47.25 741.59,47.25 741.59,47.25 C748.1,47.25 753.69,43.18 755.97,37.45 C755.97,37.45 373.58,37.45 373.58,37.45z "/><path id="_R_G_L_3_G_D_2_P_0" stroke="#ffffff" stroke-linecap="round" stroke-linejoin="round" fill="none" stroke-width="0.5" stroke-opacity="1" d=" M382.76 -136.4 C382.76,-136.4 595.6,-136.4 595.6,-136.4 "/><path id="_R_G_L_3_G_D_3_P_0" fill="#5e5e5e" fill-opacity="1" fill-rule="nonzero" d=" M749.64 -146.74 C749.64,-143.16 746.74,-140.27 743.16,-140.27 C739.59,-140.27 736.69,-143.16 736.69,-146.74 C736.69,-150.32 739.59,-153.22 743.16,-153.22 C746.74,-153.22 749.64,-150.32 749.64,-146.74z "/><path id="_R_G_L_3_G_D_4_P_0" fill="#5e5e5e" fill-opacity="1" fill-rule="nonzero" d=" M723.54 -146.74 C723.54,-143.16 720.65,-140.27 717.07,-140.27 C713.49,-140.27 710.59,-143.16 710.59,-146.74 C710.59,-150.32 713.49,-153.22 717.07,-153.22 C720.65,-153.22 723.54,-150.32 723.54,-146.74z "/><path id="_R_G_L_3_G_D_5_P_0" fill="#5e5e5e" fill-opacity="1" fill-rule="nonzero" d=" M697.45 -146.74 C697.45,-143.16 694.55,-140.27 690.97,-140.27 C687.4,-140.27 684.5,-143.16 684.5,-146.74 C684.5,-150.32 687.4,-153.22 690.97,-153.22 C694.55,-153.22 697.45,-150.32 697.45,-146.74z "/><path id="_R_G_L_3_G_D_6_P_0" fill="#5e5e5e" fill-opacity="1" fill-rule="nonzero" d=" M388.35 -33.02 C388.35,-33.02 643.24,-33.02 643.24,-33.02 C646.73,-33.02 649.58,-35.87 649.58,-39.36 C649.58,-39.36 649.58,-104.14 649.58,-104.14 C649.58,-107.63 646.73,-110.48 643.24,-110.48 C643.24,-110.48 388.35,-110.48 388.35,-110.48 C384.86,-110.48 382.01,-107.63 382.01,-104.14 C382.01,-104.14 382.01,-39.36 382.01,-39.36 C382.01,-35.87 384.86,-33.02 388.35,-33.02z "/><path id="_R_G_L_3_G_D_7_P_0" fill="#5e5e5e" fill-opacity="1" fill-rule="nonzero" d=" M675.35 18.72 C675.35,18.72 739.31,18.72 739.31,18.72 C741.65,18.72 743.57,16.8 743.57,14.45 C743.57,14.45 743.57,-106.43 743.57,-106.43 C743.57,-108.77 741.65,-110.69 739.31,-110.69 C739.31,-110.69 675.35,-110.69 675.35,-110.69 C673.01,-110.69 671.09,-108.77 671.09,-106.43 C671.09,-106.43 671.09,14.45 671.09,14.45 C671.09,16.8 673.01,18.72 675.35,18.72z "/><path id="_R_G_L_3_G_D_8_P_0" fill="#1a1a1a" fill-opacity="1" fill-rule="nonzero" d=" M727.16 -93.25 C727.16,-93.25 687.46,-93.25 687.46,-93.25 C687.17,-93.25 686.93,-93.49 686.93,-93.78 C686.93,-93.78 686.93,-95.97 686.93,-95.97 C686.93,-96.27 687.17,-96.51 687.46,-96.51 C687.46,-96.51 727.16,-96.51 727.16,-96.51 C727.46,-96.51 727.7,-96.27 727.7,-95.97 C727.7,-95.97 727.7,-93.78 727.7,-93.78 C727.7,-93.49 727.46,-93.25 727.16,-93.25z "/><path id="_R_G_L_3_G_D_9_P_0" fill="#1a1a1a" fill-opacity="1" fill-rule="nonzero" d=" M597.49 -91.06 C597.49,-91.06 397.02,-91.06 397.02,-91.06 C396.09,-91.06 395.32,-91.83 395.32,-92.76 C395.32,-92.76 395.32,-95.89 395.32,-95.89 C395.32,-96.82 396.09,-97.59 397.02,-97.59 C397.02,-97.59 597.49,-97.59 597.49,-97.59 C598.43,-97.59 599.19,-96.82 599.19,-95.89 C599.19,-95.89 599.19,-92.76 599.19,-92.76 C599.19,-91.83 598.43,-91.06 597.49,-91.06z "/><path id="_R_G_L_3_G_D_10_P_0" fill="#1a1a1a" fill-opacity="1" fill-rule="nonzero" d=" M557.34 -74.43 C557.34,-74.43 396.39,-74.43 396.39,-74.43 C395.8,-74.43 395.32,-74.91 395.32,-75.5 C395.32,-75.5 395.32,-76.61 395.32,-76.61 C395.32,-77.2 395.8,-77.69 396.39,-77.69 C396.39,-77.69 557.34,-77.69 557.34,-77.69 C557.93,-77.69 558.42,-77.2 558.42,-76.61 C558.42,-76.61 558.42,-75.5 558.42,-75.5 C558.42,-74.91 557.93,-74.43 557.34,-74.43z "/><path id="_R_G_L_3_G_D_11_P_0" fill="#1a1a1a" fill-opacity="1" fill-rule="nonzero" d=" M516.71 -57.79 C516.71,-57.79 396.25,-57.79 396.25,-57.79 C395.74,-57.79 395.32,-58.21 395.32,-58.72 C395.32,-58.72 395.32,-60.12 395.32,-60.12 C395.32,-60.63 395.74,-61.05 396.25,-61.05 C396.25,-61.05 516.71,-61.05 516.71,-61.05 C517.22,-61.05 517.64,-60.63 517.64,-60.12 C517.64,-60.12 517.64,-58.72 517.64,-58.72 C517.64,-58.21 517.22,-57.79 516.71,-57.79z "/><path id="_R_G_L_3_G_D_12_P_0" fill="#1a1a1a" fill-opacity="1" fill-rule="nonzero" d=" M727.16 -77.66 C727.16,-77.66 687.46,-77.66 687.46,-77.66 C687.17,-77.66 686.93,-77.9 686.93,-78.2 C686.93,-78.2 686.93,-80.39 686.93,-80.39 C686.93,-80.68 687.17,-80.92 687.46,-80.92 C687.46,-80.92 727.16,-80.92 727.16,-80.92 C727.46,-80.92 727.7,-80.68 727.7,-80.39 C727.7,-80.39 727.7,-78.2 727.7,-78.2 C727.7,-77.9 727.46,-77.66 727.16,-77.66z "/><path id="_R_G_L_3_G_D_13_P_0" fill="#1a1a1a" fill-opacity="1" fill-rule="nonzero" d=" M727.16 -62.07 C727.16,-62.07 687.46,-62.07 687.46,-62.07 C687.17,-62.07 686.93,-62.31 686.93,-62.61 C686.93,-62.61 686.93,-64.8 686.93,-64.8 C686.93,-65.09 687.17,-65.33 687.46,-65.33 C687.46,-65.33 727.16,-65.33 727.16,-65.33 C727.46,-65.33 727.7,-65.09 727.7,-64.8 C727.7,-64.8 727.7,-62.61 727.7,-62.61 C727.7,-62.31 727.46,-62.07 727.16,-62.07z "/><path id="_R_G_L_3_G_D_14_P_0" fill="#1a1a1a" fill-opacity="1" fill-rule="nonzero" d=" M727.16 -46.49 C727.16,-46.49 687.46,-46.49 687.46,-46.49 C687.17,-46.49 686.93,-46.73 686.93,-47.02 C686.93,-47.02 686.93,-49.21 686.93,-49.21 C686.93,-49.51 687.17,-49.75 687.46,-49.75 C687.46,-49.75 727.16,-49.75 727.16,-49.75 C727.46,-49.75 727.7,-49.51 727.7,-49.21 C727.7,-49.21 727.7,-47.02 727.7,-47.02 C727.7,-46.73 727.46,-46.49 727.16,-46.49z "/><path id="_R_G_L_3_G_D_15_P_0" fill="#1a1a1a" fill-opacity="1" fill-rule="nonzero" d=" M588.69 416.29 C588.69,416.29 972.21,416.29 972.21,416.29 C979.47,416.29 985.41,410.35 985.41,403.09 C985.41,403.09 985.41,210.38 985.41,210.38 C985.41,203.11 979.47,197.18 972.21,197.18 C972.21,197.18 588.69,197.18 588.69,197.18 C581.43,197.18 575.49,203.11 575.49,210.38 C575.49,210.38 575.49,403.09 575.49,403.09 C575.49,410.35 581.43,416.29 588.69,416.29z "/><path id="_R_G_L_3_G_D_16_P_0" fill="#5e5e5e" fill-opacity="1" fill-rule="nonzero" d=" M588.69 416.29 C581.43,416.29 575.49,410.35 575.49,403.09 C575.49,403.09 575.49,210.38 575.49,210.38 C575.49,209.24 575.65,208.15 575.92,207.09 C568.26,208.01 562.26,214.57 562.26,222.47 C562.26,222.47 562.26,410.59 562.26,410.59 C562.26,419.12 569.23,426.09 577.76,426.09 C577.76,426.09 956.7,426.09 956.7,426.09 C963.21,426.09 968.8,422.01 971.08,416.29 C971.08,416.29 588.69,416.29 588.69,416.29z "/><path id="_R_G_L_3_G_D_17_P_0" stroke="#ffffff" stroke-linecap="round" stroke-linejoin="round" fill="none" stroke-width="0.5" stroke-opacity="1" d=" M597.87 242.43 C597.87,242.43 810.71,242.43 810.71,242.43 "/><path id="_R_G_L_3_G_D_18_P_0" fill="#5e5e5e" fill-opacity="1" fill-rule="nonzero" d=" M964.75 232.09 C964.75,235.67 961.85,238.57 958.27,238.57 C954.7,238.57 951.8,235.67 951.8,232.09 C951.8,228.52 954.7,225.62 958.27,225.62 C961.85,225.62 964.75,228.52 964.75,232.09z "/><path id="_R_G_L_3_G_D_19_P_0" fill="#5e5e5e" fill-opacity="1" fill-rule="nonzero" d=" M938.65 232.09 C938.65,235.67 935.76,238.57 932.18,238.57 C928.6,238.57 925.7,235.67 925.7,232.09 C925.7,228.52 928.6,225.62 932.18,225.62 C935.76,225.62 938.65,228.52 938.65,232.09z "/><path id="_R_G_L_3_G_D_20_P_0" fill="#5e5e5e" fill-opacity="1" fill-rule="nonzero" d=" M912.56 232.09 C912.56,235.67 909.66,238.57 906.08,238.57 C902.51,238.57 899.61,235.67 899.61,232.09 C899.61,228.52 902.51,225.62 906.08,225.62 C909.66,225.62 912.56,228.52 912.56,232.09z "/><path id="_R_G_L_3_G_D_21_P_0" fill="#5e5e5e" fill-opacity="1" fill-rule="nonzero" d=" M603.46 345.81 C603.46,345.81 858.35,345.81 858.35,345.81 C861.84,345.81 864.69,342.96 864.69,339.47 C864.69,339.47 864.69,274.69 864.69,274.69 C864.69,271.21 861.84,268.35 858.35,268.35 C858.35,268.35 603.46,268.35 603.46,268.35 C599.97,268.35 597.12,271.21 597.12,274.69 C597.12,274.69 597.12,339.47 597.12,339.47 C597.12,342.96 599.97,345.81 603.46,345.81z "/><path id="_R_G_L_3_G_D_22_P_0" fill="#5e5e5e" fill-opacity="1" fill-rule="nonzero" d=" M890.46 397.55 C890.46,397.55 954.42,397.55 954.42,397.55 C956.76,397.55 958.68,395.63 958.68,393.29 C958.68,393.29 958.68,272.41 958.68,272.41 C958.68,270.06 956.76,268.14 954.42,268.14 C954.42,268.14 890.46,268.14 890.46,268.14 C888.12,268.14 886.2,270.06 886.2,272.41 C886.2,272.41 886.2,393.29 886.2,393.29 C886.2,395.63 888.12,397.55 890.46,397.55z "/><path id="_R_G_L_3_G_D_23_P_0" fill="#1a1a1a" fill-opacity="1" fill-rule="nonzero" d=" M942.27 285.59 C942.27,285.59 902.57,285.59 902.57,285.59 C902.28,285.59 902.04,285.35 902.04,285.05 C902.04,285.05 902.04,282.86 902.04,282.86 C902.04,282.57 902.28,282.33 902.57,282.33 C902.57,282.33 942.27,282.33 942.27,282.33 C942.57,282.33 942.81,282.57 942.81,282.86 C942.81,282.86 942.81,285.05 942.81,285.05 C942.81,285.35 942.57,285.59 942.27,285.59z "/><path id="_R_G_L_3_G_D_24_P_0" fill="#1a1a1a" fill-opacity="1" fill-rule="nonzero" d=" M812.6 287.77 C812.6,287.77 612.13,287.77 612.13,287.77 C611.2,287.77 610.43,287.01 610.43,286.07 C610.43,286.07 610.43,282.94 610.43,282.94 C610.43,282.01 611.2,281.25 612.13,281.25 C612.13,281.25 812.6,281.25 812.6,281.25 C813.54,281.25 814.3,282.01 814.3,282.94 C814.3,282.94 814.3,286.07 814.3,286.07 C814.3,287.01 813.54,287.77 812.6,287.77z "/><path id="_R_G_L_3_G_D_25_P_0" fill="#1a1a1a" fill-opacity="1" fill-rule="nonzero" d=" M772.45 304.41 C772.45,304.41 611.5,304.41 611.5,304.41 C610.91,304.41 610.43,303.93 610.43,303.34 C610.43,303.34 610.43,302.22 610.43,302.22 C610.43,301.63 610.91,301.15 611.5,301.15 C611.5,301.15 772.45,301.15 772.45,301.15 C773.04,301.15 773.53,301.63 773.53,302.22 C773.53,302.22 773.53,303.34 773.53,303.34 C773.53,303.93 773.04,304.41 772.45,304.41z "/><path id="_R_G_L_3_G_D_26_P_0" fill="#1a1a1a" fill-opacity="1" fill-rule="nonzero" d=" M731.82 321.05 C731.82,321.05 611.36,321.05 611.36,321.05 C610.85,321.05 610.43,320.63 610.43,320.12 C610.43,320.12 610.43,318.72 610.43,318.72 C610.43,318.2 610.85,317.79 611.36,317.79 C611.36,317.79 731.82,317.79 731.82,317.79 C732.33,317.79 732.75,318.2 732.75,318.72 C732.75,318.72 732.75,320.12 732.75,320.12 C732.75,320.63 732.33,321.05 731.82,321.05z "/><path id="_R_G_L_3_G_D_27_P_0" fill="#1a1a1a" fill-opacity="1" fill-rule="nonzero" d=" M942.27 301.17 C942.27,301.17 902.57,301.17 902.57,301.17 C902.28,301.17 902.04,300.93 902.04,300.64 C902.04,300.64 902.04,298.45 902.04,298.45 C902.04,298.15 902.28,297.91 902.57,297.91 C902.57,297.91 942.27,297.91 942.27,297.91 C942.57,297.91 942.81,298.15 942.81,298.45 C942.81,298.45 942.81,300.64 942.81,300.64 C942.81,300.93 942.57,301.17 942.27,301.17z "/><path id="_R_G_L_3_G_D_28_P_0" fill="#1a1a1a" fill-opacity="1" fill-rule="nonzero" d=" M942.27 316.76 C942.27,316.76 902.57,316.76 902.57,316.76 C902.28,316.76 902.04,316.52 902.04,316.23 C902.04,316.23 902.04,314.04 902.04,314.04 C902.04,313.74 902.28,313.5 902.57,313.5 C902.57,313.5 942.27,313.5 942.27,313.5 C942.57,313.5 942.81,313.74 942.81,314.04 C942.81,314.04 942.81,316.23 942.81,316.23 C942.81,316.52 942.57,316.76 942.27,316.76z "/><path id="_R_G_L_3_G_D_29_P_0" fill="#1a1a1a" fill-opacity="1" fill-rule="nonzero" d=" M942.27 332.35 C942.27,332.35 902.57,332.35 902.57,332.35 C902.28,332.35 902.04,332.11 902.04,331.81 C902.04,331.81 902.04,329.62 902.04,329.62 C902.04,329.33 902.28,329.09 902.57,329.09 C902.57,329.09 942.27,329.09 942.27,329.09 C942.57,329.09 942.81,329.33 942.81,329.62 C942.81,329.62 942.81,331.81 942.81,331.81 C942.81,332.11 942.57,332.35 942.27,332.35z "/><path id="_R_G_L_3_G_D_30_P_0" fill="#1a1a1a" fill-opacity="1" fill-rule="nonzero" d=" M136.8 291.37 C136.8,291.37 477.27,291.37 477.27,291.37 C483.71,291.37 488.99,286.1 488.99,279.65 C488.99,279.65 488.99,108.58 488.99,108.58 C488.99,102.13 483.71,96.86 477.27,96.86 C477.27,96.86 136.8,96.86 136.8,96.86 C130.36,96.86 125.09,102.13 125.09,108.58 C125.09,108.58 125.09,279.65 125.09,279.65 C125.09,286.1 130.36,291.37 136.8,291.37z "/><path id="_R_G_L_3_G_D_31_P_0" fill="#5e5e5e" fill-opacity="1" fill-rule="nonzero" d=" M136.8 291.37 C130.36,291.37 125.09,286.1 125.09,279.65 C125.09,279.65 125.09,108.58 125.09,108.58 C125.09,107.57 125.23,106.6 125.47,105.66 C118.67,106.48 113.35,112.3 113.35,119.31 C113.35,119.31 113.35,286.32 113.35,286.32 C113.35,293.88 119.53,300.07 127.1,300.07 C127.1,300.07 463.49,300.07 463.49,300.07 C469.27,300.07 474.24,296.45 476.27,291.37 C476.27,291.37 136.8,291.37 136.8,291.37z "/><path id="_R_G_L_3_G_D_32_P_0" stroke="#ffffff" stroke-linecap="round" stroke-linejoin="round" fill="none" stroke-width="0.5" stroke-opacity="1" d=" M144.95 137.03 C144.95,137.03 333.9,137.03 333.9,137.03 "/><path id="_R_G_L_3_G_D_33_P_0" fill="#5e5e5e" fill-opacity="1" fill-rule="nonzero" d=" M470.64 127.86 C470.64,131.03 468.07,133.61 464.89,133.61 C461.72,133.61 459.15,131.03 459.15,127.86 C459.15,124.68 461.72,122.11 464.89,122.11 C468.07,122.11 470.64,124.68 470.64,127.86z "/><path id="_R_G_L_3_G_D_34_P_0" fill="#5e5e5e" fill-opacity="1" fill-rule="nonzero" d=" M447.48 127.86 C447.48,131.03 444.9,133.61 441.73,133.61 C438.55,133.61 435.98,131.03 435.98,127.86 C435.98,124.68 438.55,122.11 441.73,122.11 C444.9,122.11 447.48,124.68 447.48,127.86z "/><path id="_R_G_L_3_G_D_35_P_0" fill="#5e5e5e" fill-opacity="1" fill-rule="nonzero" d=" M424.31 127.86 C424.31,131.03 421.74,133.61 418.56,133.61 C415.39,133.61 412.82,131.03 412.82,127.86 C412.82,124.68 415.39,122.11 418.56,122.11 C421.74,122.11 424.31,124.68 424.31,127.86z "/><path id="_R_G_L_3_G_D_36_P_0" fill="#5e5e5e" fill-opacity="1" fill-rule="nonzero" d=" M149.92 228.81 C149.92,228.81 376.19,228.81 376.19,228.81 C379.29,228.81 381.82,226.28 381.82,223.18 C381.82,223.18 381.82,165.67 381.82,165.67 C381.82,162.58 379.29,160.05 376.19,160.05 C376.19,160.05 149.92,160.05 149.92,160.05 C146.82,160.05 144.29,162.58 144.29,165.67 C144.29,165.67 144.29,223.18 144.29,223.18 C144.29,226.28 146.82,228.81 149.92,228.81z "/><path id="_R_G_L_3_G_D_37_P_0" fill="#5e5e5e" fill-opacity="1" fill-rule="nonzero" d=" M404.7 274.74 C404.7,274.74 461.47,274.74 461.47,274.74 C463.55,274.74 465.26,273.03 465.26,270.95 C465.26,270.95 465.26,163.65 465.26,163.65 C465.26,161.56 463.55,159.86 461.47,159.86 C461.47,159.86 404.7,159.86 404.7,159.86 C402.61,159.86 400.91,161.56 400.91,163.65 C400.91,163.65 400.91,270.95 400.91,270.95 C400.91,273.03 402.61,274.74 404.7,274.74z "/><path id="_R_G_L_3_G_D_38_P_0" fill="#1a1a1a" fill-opacity="1" fill-rule="nonzero" d=" M450.69 175.34 C450.69,175.34 415.45,175.34 415.45,175.34 C415.18,175.34 414.97,175.13 414.97,174.87 C414.97,174.87 414.97,172.93 414.97,172.93 C414.97,172.66 415.18,172.45 415.45,172.45 C415.45,172.45 450.69,172.45 450.69,172.45 C450.95,172.45 451.17,172.66 451.17,172.93 C451.17,172.93 451.17,174.87 451.17,174.87 C451.17,175.13 450.95,175.34 450.69,175.34z "/><path id="_R_G_L_3_G_D_39_P_0" fill="#1a1a1a" fill-opacity="1" fill-rule="nonzero" d=" M335.58 177.28 C335.58,177.28 157.61,177.28 157.61,177.28 C156.78,177.28 156.11,176.6 156.11,175.78 C156.11,175.78 156.11,173 156.11,173 C156.11,172.17 156.78,171.49 157.61,171.49 C157.61,171.49 335.58,171.49 335.58,171.49 C336.41,171.49 337.09,172.17 337.09,173 C337.09,173 337.09,175.78 337.09,175.78 C337.09,176.6 336.41,177.28 335.58,177.28z "/><path id="_R_G_L_3_G_D_40_P_0" fill="#1a1a1a" fill-opacity="1" fill-rule="nonzero" d=" M299.94 192.05 C299.94,192.05 157.06,192.05 157.06,192.05 C156.53,192.05 156.11,191.62 156.11,191.1 C156.11,191.1 156.11,190.11 156.11,190.11 C156.11,189.59 156.53,189.16 157.06,189.16 C157.06,189.16 299.94,189.16 299.94,189.16 C300.46,189.16 300.89,189.59 300.89,190.11 C300.89,190.11 300.89,191.1 300.89,191.1 C300.89,191.62 300.46,192.05 299.94,192.05z "/><path id="_R_G_L_3_G_D_41_P_0" fill="#1a1a1a" fill-opacity="1" fill-rule="nonzero" d=" M263.87 206.82 C263.87,206.82 156.93,206.82 156.93,206.82 C156.48,206.82 156.11,206.45 156.11,206 C156.11,206 156.11,204.75 156.11,204.75 C156.11,204.3 156.48,203.93 156.93,203.93 C156.93,203.93 263.87,203.93 263.87,203.93 C264.32,203.93 264.69,204.3 264.69,204.75 C264.69,204.75 264.69,206 264.69,206 C264.69,206.45 264.32,206.82 263.87,206.82z "/><path id="_R_G_L_3_G_D_42_P_0" fill="#1a1a1a" fill-opacity="1" fill-rule="nonzero" d=" M450.69 189.18 C450.69,189.18 415.45,189.18 415.45,189.18 C415.18,189.18 414.97,188.97 414.97,188.71 C414.97,188.71 414.97,186.76 414.97,186.76 C414.97,186.5 415.18,186.29 415.45,186.29 C415.45,186.29 450.69,186.29 450.69,186.29 C450.95,186.29 451.17,186.5 451.17,186.76 C451.17,186.76 451.17,188.71 451.17,188.71 C451.17,188.97 450.95,189.18 450.69,189.18z "/><path id="_R_G_L_3_G_D_43_P_0" fill="#1a1a1a" fill-opacity="1" fill-rule="nonzero" d=" M450.69 203.02 C450.69,203.02 415.45,203.02 415.45,203.02 C415.18,203.02 414.97,202.81 414.97,202.54 C414.97,202.54 414.97,200.6 414.97,200.6 C414.97,200.34 415.18,200.12 415.45,200.12 C415.45,200.12 450.69,200.12 450.69,200.12 C450.95,200.12 451.17,200.34 451.17,200.6 C451.17,200.6 451.17,202.54 451.17,202.54 C451.17,202.81 450.95,203.02 450.69,203.02z "/><path id="_R_G_L_3_G_D_44_P_0" fill="#1a1a1a" fill-opacity="1" fill-rule="nonzero" d=" M450.69 216.86 C450.69,216.86 415.45,216.86 415.45,216.86 C415.18,216.86 414.97,216.64 414.97,216.38 C414.97,216.38 414.97,214.44 414.97,214.44 C414.97,214.18 415.18,213.96 415.45,213.96 C415.45,213.96 450.69,213.96 450.69,213.96 C450.95,213.96 451.17,214.18 451.17,214.44 C451.17,214.44 451.17,216.38 451.17,216.38 C451.17,216.64 450.95,216.86 450.69,216.86z "/></g><g id="_R_G_L_2_G_M"><g id="_R_G_L_2_G"><g id="_R_G_L_2_G_D_0_P_0_G_0_T_0"><path id="_R_G_L_2_G_D_0_P_0" fill="#f9e3ba" fill-opacity="1" fill-rule="nonzero" d=" M61.5 -113.5 C61.5,-113.5 61.5,113.5 61.5,113.5 C61.5,122.88 53.88,130.5 44.5,130.5 C44.5,130.5 -44.5,130.5 -44.5,130.5 C-53.88,130.5 -61.5,122.88 -61.5,113.5 C-61.5,113.5 -61.5,-113.5 -61.5,-113.5 C-61.5,-122.88 -53.88,-130.5 -44.5,-130.5 C-44.5,-130.5 44.5,-130.5 44.5,-130.5 C53.88,-130.5 61.5,-122.88 61.5,-113.5z "/></g><g id="_R_G_L_2_G_D_1_P_0_G_0_T_0"><path id="_R_G_L_2_G_D_1_P_0" fill="#f9e3ba" fill-opacity="1" fill-rule="nonzero" d=" M61.5 -113.5 C61.5,-113.5 61.5,113.5 61.5,113.5 C61.5,122.88 53.88,130.5 44.5,130.5 C44.5,130.5 -44.5,130.5 -44.5,130.5 C-53.88,130.5 -61.5,122.88 -61.5,113.5 C-61.5,113.5 -61.5,-113.5 -61.5,-113.5 C-61.5,-122.88 -53.88,-130.5 -44.5,-130.5 C-44.5,-130.5 44.5,-130.5 44.5,-130.5 C53.88,-130.5 61.5,-122.88 61.5,-113.5z "/></g><g id="_R_G_L_2_G_D_2_P_0_G_0_T_0"><path id="_R_G_L_2_G_D_2_P_0" fill="#f9e3ba" fill-opacity="1" fill-rule="nonzero" d=" M61.5 -113.5 C61.5,-113.5 61.5,113.5 61.5,113.5 C61.5,122.88 53.88,130.5 44.5,130.5 C44.5,130.5 -44.5,130.5 -44.5,130.5 C-53.88,130.5 -61.5,122.88 -61.5,113.5 C-61.5,113.5 -61.5,-113.5 -61.5,-113.5 C-61.5,-122.88 -53.88,-130.5 -44.5,-130.5 C-44.5,-130.5 44.5,-130.5 44.5,-130.5 C53.88,-130.5 61.5,-122.88 61.5,-113.5z "/></g><g id="_R_G_L_2_G_D_3_P_0_G_0_T_0"><path id="_R_G_L_2_G_D_3_P_0" fill="#f9e3ba" fill-opacity="1" fill-rule="nonzero" d=" M61.5 -113.5 C61.5,-113.5 61.5,113.5 61.5,113.5 C61.5,122.88 53.88,130.5 44.5,130.5 C44.5,130.5 -44.5,130.5 -44.5,130.5 C-53.88,130.5 -61.5,122.88 -61.5,113.5 C-61.5,113.5 -61.5,-113.5 -61.5,-113.5 C-61.5,-122.88 -53.88,-130.5 -44.5,-130.5 C-44.5,-130.5 44.5,-130.5 44.5,-130.5 C53.88,-130.5 61.5,-122.88 61.5,-113.5z "/></g><g id="_R_G_L_2_G_D_4_P_0_G_0_T_0"><path id="_R_G_L_2_G_D_4_P_0" fill="#f9e3ba" fill-opacity="1" fill-rule="nonzero" d=" M61.5 -113.5 C61.5,-113.5 61.5,113.5 61.5,113.5 C61.5,122.88 53.88,130.5 44.5,130.5 C44.5,130.5 -44.5,130.5 -44.5,130.5 C-53.88,130.5 -61.5,122.88 -61.5,113.5 C-61.5,113.5 -61.5,-113.5 -61.5,-113.5 C-61.5,-122.88 -53.88,-130.5 -44.5,-130.5 C-44.5,-130.5 44.5,-130.5 44.5,-130.5 C53.88,-130.5 61.5,-122.88 61.5,-113.5z "/></g><g id="_R_G_L_2_G_D_5_P_0_G_0_T_0"><path id="_R_G_L_2_G_D_5_P_0" fill="#f9e3ba" fill-opacity="1" fill-rule="nonzero" d=" M61.5 -113.5 C61.5,-113.5 61.5,113.5 61.5,113.5 C61.5,122.88 53.88,130.5 44.5,130.5 C44.5,130.5 -44.5,130.5 -44.5,130.5 C-53.88,130.5 -61.5,122.88 -61.5,113.5 C-61.5,113.5 -61.5,-113.5 -61.5,-113.5 C-61.5,-122.88 -53.88,-130.5 -44.5,-130.5 C-44.5,-130.5 44.5,-130.5 44.5,-130.5 C53.88,-130.5 61.5,-122.88 61.5,-113.5z "/></g></g></g><g id="_R_G_L_1_G_M"><g id="_R_G_L_1_G" transform=" translate(142, 186.5) scale(0.37052999999999997, 0.37228) translate(0, 0)"><path id="_R_G_L_1_G_D_0_P_0" fill="#f9e3ba" fill-opacity="1" fill-rule="nonzero" d=" M1661.12 -24.96 C1661.12,-24.96 1661.12,92.86 1661.12,92.86 C1661.12,97.77 1657.12,101.76 1652.19,101.76 C1652.19,101.76 1417.62,101.76 1417.62,101.76 C1412.68,101.76 1408.68,97.77 1408.68,92.86 C1408.68,92.86 1408.68,-24.96 1408.68,-24.96 C1408.68,-29.88 1412.68,-33.86 1417.62,-33.86 C1417.62,-33.86 1652.19,-33.86 1652.19,-33.86 C1657.12,-33.86 1661.12,-29.88 1661.12,-24.96z "/><path id="_R_G_L_1_G_D_1_P_0" fill="#f9e3ba" fill-opacity="1" fill-rule="nonzero" d=" M1525.75 -241.63 C1525.75,-241.63 1525.75,-133.7 1525.75,-133.7 C1525.75,-129.2 1521.78,-125.54 1516.88,-125.54 C1516.88,-125.54 1284.17,-125.54 1284.17,-125.54 C1279.28,-125.54 1275.3,-129.2 1275.3,-133.7 C1275.3,-133.7 1275.3,-241.63 1275.3,-241.63 C1275.3,-246.13 1279.28,-249.78 1284.17,-249.78 C1284.17,-249.78 1516.88,-249.78 1516.88,-249.78 C1521.78,-249.78 1525.75,-246.13 1525.75,-241.63z "/><path id="_R_G_L_1_G_D_2_P_0" fill="#f9e3ba" fill-opacity="1" fill-rule="nonzero" d=" M1364.23 -86.48 C1364.23,-86.48 1364.23,19.27 1364.23,19.27 C1364.23,23.68 1360.69,27.26 1356.33,27.26 C1356.33,27.26 1148.8,27.26 1148.8,27.26 C1144.44,27.26 1140.89,23.68 1140.89,19.27 C1140.89,19.27 1140.89,-86.48 1140.89,-86.48 C1140.89,-90.88 1144.44,-94.46 1148.8,-94.46 C1148.8,-94.46 1356.33,-94.46 1356.33,-94.46 C1360.69,-94.46 1364.23,-90.88 1364.23,-86.48z "/><path id="_R_G_L_1_G_D_3_P_0" fill="#f9e3ba" fill-opacity="1" fill-rule="nonzero" d=" M948.6 3.43 C948.6,3.43 948.6,110.47 948.6,110.47 C948.6,114.93 944.77,118.56 940.04,118.56 C940.04,118.56 715.24,118.56 715.24,118.56 C710.51,118.56 706.67,114.93 706.67,110.47 C706.67,110.47 706.67,3.43 706.67,3.43 C706.67,-1.03 710.51,-4.65 715.24,-4.65 C715.24,-4.65 940.04,-4.65 940.04,-4.65 C944.77,-4.65 948.6,-1.03 948.6,3.43z "/><path id="_R_G_L_1_G_D_4_P_0" fill="#f9e3ba" fill-opacity="1" fill-rule="nonzero" d=" M681.23 -94.84 C681.23,-94.84 681.23,49.85 681.23,49.85 C681.23,55.88 676.38,60.78 670.41,60.78 C670.41,60.78 386.46,60.78 386.46,60.78 C380.49,60.78 375.64,55.88 375.64,49.85 C375.64,49.85 375.64,-94.84 375.64,-94.84 C375.64,-100.87 380.49,-105.77 386.46,-105.77 C386.46,-105.77 670.41,-105.77 670.41,-105.77 C676.38,-105.77 681.23,-100.87 681.23,-94.84z "/><path id="_R_G_L_1_G_D_5_P_0" fill="#f9e3ba" fill-opacity="1" fill-rule="nonzero" d=" M94.55 -131.9 C94.55,-131.9 94.55,36.71 94.55,36.71 C94.55,43.74 88.96,49.45 82.07,49.45 C82.07,49.45 -245.53,49.45 -245.53,49.45 C-252.42,49.45 -258.01,43.74 -258.01,36.71 C-258.01,36.71 -258.01,-131.9 -258.01,-131.9 C-258.01,-138.93 -252.42,-144.64 -245.53,-144.64 C-245.53,-144.64 82.07,-144.64 82.07,-144.64 C88.96,-144.64 94.55,-138.93 94.55,-131.9z "/></g></g><g id="_R_G_L_0_G_M"><g id="_R_G_L_0_G"><path id="_R_G_L_0_G_D_0_P_0" fill="#f9e3ba" fill-opacity="1" fill-rule="nonzero" d=" M-28.29 -263 C-28.29,-263 -28.29,-261.49 -28.29,-261.49 C-28.29,-261.49 -35.26,-261.49 -35.26,-261.49 C-35.26,-261.49 -35.91,-260.79 -35.91,-260.79 C-35.91,-260.79 -35.91,-256.91 -35.91,-256.91 C-35.91,-256.91 -31.04,-256.91 -31.04,-256.91 C-31.04,-256.91 -31.04,-255.38 -31.04,-255.38 C-31.04,-255.38 -35.91,-255.38 -35.91,-255.38 C-35.91,-255.38 -35.91,-251.03 -35.91,-251.03 C-35.91,-251.03 -35.09,-249.81 -35.09,-249.81 C-35.09,-249.81 -28.29,-249.81 -28.29,-249.81 C-28.29,-249.81 -28.29,-248.3 -28.29,-248.3 C-28.29,-248.3 -35.91,-248.3 -35.91,-248.3 C-35.91,-248.3 -37.59,-250.82 -37.59,-250.82 C-37.59,-250.82 -37.59,-261.26 -37.59,-261.26 C-37.59,-261.26 -35.89,-263 -35.89,-263 C-35.89,-263 -28.29,-263 -28.29,-263z "/><path id="_R_G_L_0_G_D_1_P_0" fill="#f9e3ba" fill-opacity="1" fill-rule="nonzero" d=" M-48.51 -256.91 C-48.51,-256.91 -43.64,-256.91 -43.64,-256.91 C-43.64,-256.91 -42.56,-257.98 -42.56,-257.98 C-42.56,-257.98 -42.56,-259.47 -42.56,-259.47 C-42.56,-259.47 -43.95,-261.49 -43.95,-261.49 C-43.95,-261.49 -48.51,-261.49 -48.51,-261.49 C-48.51,-261.49 -48.51,-256.91 -48.51,-256.91z  M-43.13 -263 C-43.13,-263 -40.86,-259.7 -40.86,-259.7 C-40.86,-259.7 -40.86,-257.6 -40.86,-257.6 C-40.86,-257.6 -42.94,-255.48 -42.94,-255.48 C-42.94,-255.48 -40.86,-252.48 -40.86,-252.48 C-40.86,-252.48 -40.86,-248.3 -40.86,-248.3 C-40.86,-248.3 -42.56,-248.3 -42.56,-248.3 C-42.56,-248.3 -42.56,-252.29 -42.56,-252.29 C-42.56,-252.29 -44.69,-255.38 -44.69,-255.38 C-44.69,-255.38 -46.85,-255.38 -46.85,-255.38 C-46.85,-255.38 -48.51,-256.4 -48.51,-256.4 C-48.51,-256.4 -48.51,-248.3 -48.51,-248.3 C-48.51,-248.3 -50.19,-248.3 -50.19,-248.3 C-50.19,-248.3 -50.19,-263 -50.19,-263 C-50.19,-263 -43.13,-263 -43.13,-263z "/><path id="_R_G_L_0_G_D_2_P_0" fill="#f9e3ba" fill-opacity="1" fill-rule="nonzero" d=" M-53.46 -263 C-53.46,-263 -53.46,-248.3 -53.46,-248.3 C-53.46,-248.3 -55.17,-248.3 -55.17,-248.3 C-55.17,-248.3 -55.17,-249.33 -55.17,-249.33 C-55.17,-249.33 -56.84,-248.3 -56.84,-248.3 C-56.84,-248.3 -61.09,-248.3 -61.09,-248.3 C-61.09,-248.3 -62.79,-250.82 -62.79,-250.82 C-62.79,-250.82 -62.79,-263 -62.79,-263 C-62.79,-263 -61.11,-263 -61.11,-263 C-61.11,-263 -61.11,-251.03 -61.11,-251.03 C-61.11,-251.03 -60.29,-249.81 -60.29,-249.81 C-60.29,-249.81 -55.84,-249.81 -55.84,-249.81 C-55.84,-249.81 -55.17,-250.5 -55.17,-250.5 C-55.17,-250.5 -55.17,-263 -55.17,-263 C-55.17,-263 -53.46,-263 -53.46,-263z "/><path id="_R_G_L_0_G_D_3_P_0" fill="#f9e3ba" fill-opacity="1" fill-rule="nonzero" d=" M-75.03 -261.26 C-75.03,-261.26 -75.03,-250.82 -75.03,-250.82 C-75.03,-250.82 -73.35,-248.3 -73.35,-248.3 C-73.35,-248.3 -67.43,-248.3 -67.43,-248.3 C-67.43,-248.3 -66,-249.81 -66,-249.81 C-66,-249.81 -66.84,-251.07 -66.84,-251.07 C-66.84,-251.07 -68.1,-249.81 -68.1,-249.81 C-68.1,-249.81 -72.53,-249.81 -72.53,-249.81 C-72.53,-249.81 -73.35,-251.03 -73.35,-251.03 C-73.35,-251.03 -73.35,-260.79 -73.35,-260.79 C-73.35,-260.79 -72.7,-261.49 -72.7,-261.49 C-72.7,-261.49 -68.23,-261.49 -68.23,-261.49 C-68.23,-261.49 -67.11,-259.76 -67.11,-259.76 C-67.11,-259.76 -66.04,-260.9 -66.04,-260.9 C-66.04,-260.9 -67.43,-263 -67.43,-263 C-67.43,-263 -73.33,-263 -73.33,-263 C-73.33,-263 -75.03,-261.26 -75.03,-261.26z "/><path id="_R_G_L_0_G_D_4_P_0" fill="#f9e3ba" fill-opacity="1" fill-rule="nonzero" d=" M-78.68 -263 C-78.68,-263 -78.68,-261.49 -78.68,-261.49 C-78.68,-261.49 -85.66,-261.49 -85.66,-261.49 C-85.66,-261.49 -86.31,-260.79 -86.31,-260.79 C-86.31,-260.79 -86.31,-256.91 -86.31,-256.91 C-86.31,-256.91 -81.44,-256.91 -81.44,-256.91 C-81.44,-256.91 -81.44,-255.38 -81.44,-255.38 C-81.44,-255.38 -86.31,-255.38 -86.31,-255.38 C-86.31,-255.38 -86.31,-251.03 -86.31,-251.03 C-86.31,-251.03 -85.49,-249.81 -85.49,-249.81 C-85.49,-249.81 -78.68,-249.81 -78.68,-249.81 C-78.68,-249.81 -78.68,-248.3 -78.68,-248.3 C-78.68,-248.3 -86.31,-248.3 -86.31,-248.3 C-86.31,-248.3 -87.99,-250.82 -87.99,-250.82 C-87.99,-250.82 -87.99,-261.26 -87.99,-261.26 C-87.99,-261.26 -86.29,-263 -86.29,-263 C-86.29,-263 -78.68,-263 -78.68,-263z "/><path id="_R_G_L_0_G_D_5_P_0" fill="#f9e3ba" fill-opacity="1" fill-rule="nonzero" d=" M-100.57 -261.26 C-100.57,-261.26 -100.57,-257.87 -100.57,-257.87 C-100.57,-257.87 -98.89,-255.38 -98.89,-255.38 C-98.89,-255.38 -93.59,-255.38 -93.59,-255.38 C-93.59,-255.38 -92.96,-254.47 -92.96,-254.47 C-92.96,-254.47 -92.96,-250.25 -92.96,-250.25 C-92.96,-250.25 -93.47,-249.81 -93.47,-249.81 C-93.47,-249.81 -98.87,-249.81 -98.87,-249.81 C-98.87,-249.81 -99.52,-250.71 -99.52,-250.71 C-99.52,-250.71 -100.57,-249.6 -100.57,-249.6 C-100.57,-249.6 -99.64,-248.3 -99.64,-248.3 C-99.64,-248.3 -92.75,-248.3 -92.75,-248.3 C-92.75,-248.3 -91.28,-249.83 -91.28,-249.83 C-91.28,-249.83 -91.28,-254.66 -91.28,-254.66 C-91.28,-254.66 -92.78,-256.89 -92.78,-256.89 C-92.78,-256.89 -98.05,-256.89 -98.05,-256.89 C-98.05,-256.89 -98.89,-258.11 -98.89,-258.11 C-98.89,-258.11 -98.89,-260.81 -98.89,-260.81 C-98.89,-260.81 -98.26,-261.49 -98.26,-261.49 C-98.26,-261.49 -93.78,-261.49 -93.78,-261.49 C-93.78,-261.49 -92.92,-260.23 -92.92,-260.23 C-92.92,-260.23 -91.85,-261.28 -91.85,-261.28 C-91.85,-261.28 -92.96,-263 -92.96,-263 C-92.96,-263 -98.89,-263 -98.89,-263 C-98.89,-263 -100.57,-261.26 -100.57,-261.26z "/><path id="_R_G_L_0_G_D_6_P_0" fill="#f9e3ba" fill-opacity="1" fill-rule="nonzero" d=" M235.59 -263.44 C235.59,-263.44 235.59,-261.93 235.59,-261.93 C235.59,-261.93 228.61,-261.93 228.61,-261.93 C228.61,-261.93 227.96,-261.24 227.96,-261.24 C227.96,-261.24 227.96,-257.35 227.96,-257.35 C227.96,-257.35 232.83,-257.35 232.83,-257.35 C232.83,-257.35 232.83,-255.82 232.83,-255.82 C232.83,-255.82 227.96,-255.82 227.96,-255.82 C227.96,-255.82 227.96,-251.47 227.96,-251.47 C227.96,-251.47 228.78,-250.26 228.78,-250.26 C228.78,-250.26 235.59,-250.26 235.59,-250.26 C235.59,-250.26 235.59,-248.74 235.59,-248.74 C235.59,-248.74 227.96,-248.74 227.96,-248.74 C227.96,-248.74 226.28,-251.26 226.28,-251.26 C226.28,-251.26 226.28,-261.7 226.28,-261.7 C226.28,-261.7 227.98,-263.44 227.98,-263.44 C227.98,-263.44 235.59,-263.44 235.59,-263.44z "/><path id="_R_G_L_0_G_D_7_P_0" fill="#f9e3ba" fill-opacity="1" fill-rule="nonzero" d=" M215.36 -257.35 C215.36,-257.35 220.24,-257.35 220.24,-257.35 C220.24,-257.35 221.31,-258.42 221.31,-258.42 C221.31,-258.42 221.31,-259.92 221.31,-259.92 C221.31,-259.92 219.92,-261.93 219.92,-261.93 C219.92,-261.93 215.36,-261.93 215.36,-261.93 C215.36,-261.93 215.36,-257.35 215.36,-257.35z  M220.74 -263.44 C220.74,-263.44 223.01,-260.15 223.01,-260.15 C223.01,-260.15 223.01,-258.05 223.01,-258.05 C223.01,-258.05 220.93,-255.93 220.93,-255.93 C220.93,-255.93 223.01,-252.92 223.01,-252.92 C223.01,-252.92 223.01,-248.74 223.01,-248.74 C223.01,-248.74 221.31,-248.74 221.31,-248.74 C221.31,-248.74 221.31,-252.73 221.31,-252.73 C221.31,-252.73 219.19,-255.82 219.19,-255.82 C219.19,-255.82 217.02,-255.82 217.02,-255.82 C217.02,-255.82 215.36,-256.85 215.36,-256.85 C215.36,-256.85 215.36,-248.74 215.36,-248.74 C215.36,-248.74 213.68,-248.74 213.68,-248.74 C213.68,-248.74 213.68,-263.44 213.68,-263.44 C213.68,-263.44 220.74,-263.44 220.74,-263.44z "/><path id="_R_G_L_0_G_D_8_P_0" fill="#f9e3ba" fill-opacity="1" fill-rule="nonzero" d=" M210.41 -263.44 C210.41,-263.44 210.41,-248.74 210.41,-248.74 C210.41,-248.74 208.71,-248.74 208.71,-248.74 C208.71,-248.74 208.71,-249.77 208.71,-249.77 C208.71,-249.77 207.03,-248.74 207.03,-248.74 C207.03,-248.74 202.78,-248.74 202.78,-248.74 C202.78,-248.74 201.08,-251.26 201.08,-251.26 C201.08,-251.26 201.08,-263.44 201.08,-263.44 C201.08,-263.44 202.76,-263.44 202.76,-263.44 C202.76,-263.44 202.76,-251.47 202.76,-251.47 C202.76,-251.47 203.58,-250.26 203.58,-250.26 C203.58,-250.26 208.03,-250.26 208.03,-250.26 C208.03,-250.26 208.71,-250.95 208.71,-250.95 C208.71,-250.95 208.71,-263.44 208.71,-263.44 C208.71,-263.44 210.41,-263.44 210.41,-263.44z "/><path id="_R_G_L_0_G_D_9_P_0" fill="#f9e3ba" fill-opacity="1" fill-rule="nonzero" d=" M188.84 -261.7 C188.84,-261.7 188.84,-251.26 188.84,-251.26 C188.84,-251.26 190.52,-248.74 190.52,-248.74 C190.52,-248.74 196.44,-248.74 196.44,-248.74 C196.44,-248.74 197.87,-250.26 197.87,-250.26 C197.87,-250.26 197.03,-251.52 197.03,-251.52 C197.03,-251.52 195.77,-250.26 195.77,-250.26 C195.77,-250.26 191.34,-250.26 191.34,-250.26 C191.34,-250.26 190.52,-251.47 190.52,-251.47 C190.52,-251.47 190.52,-261.24 190.52,-261.24 C190.52,-261.24 191.17,-261.93 191.17,-261.93 C191.17,-261.93 195.64,-261.93 195.64,-261.93 C195.64,-261.93 196.76,-260.21 196.76,-260.21 C196.76,-260.21 197.83,-261.34 197.83,-261.34 C197.83,-261.34 196.44,-263.44 196.44,-263.44 C196.44,-263.44 190.54,-263.44 190.54,-263.44 C190.54,-263.44 188.84,-261.7 188.84,-261.7z "/><path id="_R_G_L_0_G_D_10_P_0" fill="#f9e3ba" fill-opacity="1" fill-rule="nonzero" d=" M185.19 -263.44 C185.19,-263.44 185.19,-261.93 185.19,-261.93 C185.19,-261.93 178.21,-261.93 178.21,-261.93 C178.21,-261.93 177.56,-261.24 177.56,-261.24 C177.56,-261.24 177.56,-257.35 177.56,-257.35 C177.56,-257.35 182.44,-257.35 182.44,-257.35 C182.44,-257.35 182.44,-255.82 182.44,-255.82 C182.44,-255.82 177.56,-255.82 177.56,-255.82 C177.56,-255.82 177.56,-251.47 177.56,-251.47 C177.56,-251.47 178.38,-250.26 178.38,-250.26 C178.38,-250.26 185.19,-250.26 185.19,-250.26 C185.19,-250.26 185.19,-248.74 185.19,-248.74 C185.19,-248.74 177.56,-248.74 177.56,-248.74 C177.56,-248.74 175.88,-251.26 175.88,-251.26 C175.88,-251.26 175.88,-261.7 175.88,-261.7 C175.88,-261.7 177.58,-263.44 177.58,-263.44 C177.58,-263.44 185.19,-263.44 185.19,-263.44z "/><path id="_R_G_L_0_G_D_11_P_0" fill="#f9e3ba" fill-opacity="1" fill-rule="nonzero" d=" M163.3 -261.7 C163.3,-261.7 163.3,-258.32 163.3,-258.32 C163.3,-258.32 164.98,-255.82 164.98,-255.82 C164.98,-255.82 170.28,-255.82 170.28,-255.82 C170.28,-255.82 170.91,-254.92 170.91,-254.92 C170.91,-254.92 170.91,-250.7 170.91,-250.7 C170.91,-250.7 170.4,-250.26 170.4,-250.26 C170.4,-250.26 165.01,-250.26 165.01,-250.26 C165.01,-250.26 164.35,-251.16 164.35,-251.16 C164.35,-251.16 163.3,-250.05 163.3,-250.05 C163.3,-250.05 164.23,-248.74 164.23,-248.74 C164.23,-248.74 171.12,-248.74 171.12,-248.74 C171.12,-248.74 172.59,-250.28 172.59,-250.28 C172.59,-250.28 172.59,-255.11 172.59,-255.11 C172.59,-255.11 171.1,-257.33 171.1,-257.33 C171.1,-257.33 165.82,-257.33 165.82,-257.33 C165.82,-257.33 164.98,-258.55 164.98,-258.55 C164.98,-258.55 164.98,-261.26 164.98,-261.26 C164.98,-261.26 165.61,-261.93 165.61,-261.93 C165.61,-261.93 170.09,-261.93 170.09,-261.93 C170.09,-261.93 170.95,-260.67 170.95,-260.67 C170.95,-260.67 172.02,-261.72 172.02,-261.72 C172.02,-261.72 170.91,-263.44 170.91,-263.44 C170.91,-263.44 164.98,-263.44 164.98,-263.44 C164.98,-263.44 163.3,-261.7 163.3,-261.7z "/><path id="_R_G_L_0_G_D_12_P_0" fill="#f9e3ba" fill-opacity="1" fill-rule="nonzero" d=" M527.96 -262.94 C527.96,-262.94 527.96,-261.43 527.96,-261.43 C527.96,-261.43 520.99,-261.43 520.99,-261.43 C520.99,-261.43 520.34,-260.74 520.34,-260.74 C520.34,-260.74 520.34,-256.85 520.34,-256.85 C520.34,-256.85 525.21,-256.85 525.21,-256.85 C525.21,-256.85 525.21,-255.32 525.21,-255.32 C525.21,-255.32 520.34,-255.32 520.34,-255.32 C520.34,-255.32 520.34,-250.97 520.34,-250.97 C520.34,-250.97 521.16,-249.75 521.16,-249.75 C521.16,-249.75 527.96,-249.75 527.96,-249.75 C527.96,-249.75 527.96,-248.24 527.96,-248.24 C527.96,-248.24 520.34,-248.24 520.34,-248.24 C520.34,-248.24 518.66,-250.76 518.66,-250.76 C518.66,-250.76 518.66,-261.2 518.66,-261.2 C518.66,-261.2 520.36,-262.94 520.36,-262.94 C520.36,-262.94 527.96,-262.94 527.96,-262.94z "/><path id="_R_G_L_0_G_D_13_P_0" fill="#f9e3ba" fill-opacity="1" fill-rule="nonzero" d=" M507.74 -256.85 C507.74,-256.85 512.61,-256.85 512.61,-256.85 C512.61,-256.85 513.68,-257.92 513.68,-257.92 C513.68,-257.92 513.68,-259.41 513.68,-259.41 C513.68,-259.41 512.29,-261.43 512.29,-261.43 C512.29,-261.43 507.74,-261.43 507.74,-261.43 C507.74,-261.43 507.74,-256.85 507.74,-256.85z  M513.11 -262.94 C513.11,-262.94 515.38,-259.64 515.38,-259.64 C515.38,-259.64 515.38,-257.54 515.38,-257.54 C515.38,-257.54 513.3,-255.42 513.3,-255.42 C513.3,-255.42 515.38,-252.42 515.38,-252.42 C515.38,-252.42 515.38,-248.24 515.38,-248.24 C515.38,-248.24 513.68,-248.24 513.68,-248.24 C513.68,-248.24 513.68,-252.23 513.68,-252.23 C513.68,-252.23 511.56,-255.32 511.56,-255.32 C511.56,-255.32 509.4,-255.32 509.4,-255.32 C509.4,-255.32 507.74,-256.35 507.74,-256.35 C507.74,-256.35 507.74,-248.24 507.74,-248.24 C507.74,-248.24 506.06,-248.24 506.06,-248.24 C506.06,-248.24 506.06,-262.94 506.06,-262.94 C506.06,-262.94 513.11,-262.94 513.11,-262.94z "/><path id="_R_G_L_0_G_D_14_P_0" fill="#f9e3ba" fill-opacity="1" fill-rule="nonzero" d=" M502.78 -262.94 C502.78,-262.94 502.78,-248.24 502.78,-248.24 C502.78,-248.24 501.08,-248.24 501.08,-248.24 C501.08,-248.24 501.08,-249.27 501.08,-249.27 C501.08,-249.27 499.4,-248.24 499.4,-248.24 C499.4,-248.24 495.16,-248.24 495.16,-248.24 C495.16,-248.24 493.46,-250.76 493.46,-250.76 C493.46,-250.76 493.46,-262.94 493.46,-262.94 C493.46,-262.94 495.14,-262.94 495.14,-262.94 C495.14,-262.94 495.14,-250.97 495.14,-250.97 C495.14,-250.97 495.96,-249.75 495.96,-249.75 C495.96,-249.75 500.41,-249.75 500.41,-249.75 C500.41,-249.75 501.08,-250.45 501.08,-250.45 C501.08,-250.45 501.08,-262.94 501.08,-262.94 C501.08,-262.94 502.78,-262.94 502.78,-262.94z "/><path id="_R_G_L_0_G_D_15_P_0" fill="#f9e3ba" fill-opacity="1" fill-rule="nonzero" d=" M481.21 -261.2 C481.21,-261.2 481.21,-250.76 481.21,-250.76 C481.21,-250.76 482.89,-248.24 482.89,-248.24 C482.89,-248.24 488.82,-248.24 488.82,-248.24 C488.82,-248.24 490.24,-249.75 490.24,-249.75 C490.24,-249.75 489.4,-251.01 489.4,-251.01 C489.4,-251.01 488.14,-249.75 488.14,-249.75 C488.14,-249.75 483.71,-249.75 483.71,-249.75 C483.71,-249.75 482.89,-250.97 482.89,-250.97 C482.89,-250.97 482.89,-260.74 482.89,-260.74 C482.89,-260.74 483.55,-261.43 483.55,-261.43 C483.55,-261.43 488.02,-261.43 488.02,-261.43 C488.02,-261.43 489.13,-259.71 489.13,-259.71 C489.13,-259.71 490.2,-260.84 490.2,-260.84 C490.2,-260.84 488.82,-262.94 488.82,-262.94 C488.82,-262.94 482.92,-262.94 482.92,-262.94 C482.92,-262.94 481.21,-261.2 481.21,-261.2z "/><path id="_R_G_L_0_G_D_16_P_0" fill="#f9e3ba" fill-opacity="1" fill-rule="nonzero" d=" M477.56 -262.94 C477.56,-262.94 477.56,-261.43 477.56,-261.43 C477.56,-261.43 470.59,-261.43 470.59,-261.43 C470.59,-261.43 469.94,-260.74 469.94,-260.74 C469.94,-260.74 469.94,-256.85 469.94,-256.85 C469.94,-256.85 474.81,-256.85 474.81,-256.85 C474.81,-256.85 474.81,-255.32 474.81,-255.32 C474.81,-255.32 469.94,-255.32 469.94,-255.32 C469.94,-255.32 469.94,-250.97 469.94,-250.97 C469.94,-250.97 470.76,-249.75 470.76,-249.75 C470.76,-249.75 477.56,-249.75 477.56,-249.75 C477.56,-249.75 477.56,-248.24 477.56,-248.24 C477.56,-248.24 469.94,-248.24 469.94,-248.24 C469.94,-248.24 468.26,-250.76 468.26,-250.76 C468.26,-250.76 468.26,-261.2 468.26,-261.2 C468.26,-261.2 469.96,-262.94 469.96,-262.94 C469.96,-262.94 477.56,-262.94 477.56,-262.94z "/><path id="_R_G_L_0_G_D_17_P_0" fill="#f9e3ba" fill-opacity="1" fill-rule="nonzero" d=" M455.68 -261.2 C455.68,-261.2 455.68,-257.82 455.68,-257.82 C455.68,-257.82 457.36,-255.32 457.36,-255.32 C457.36,-255.32 462.65,-255.32 462.65,-255.32 C462.65,-255.32 463.28,-254.42 463.28,-254.42 C463.28,-254.42 463.28,-250.19 463.28,-250.19 C463.28,-250.19 462.78,-249.75 462.78,-249.75 C462.78,-249.75 457.38,-249.75 457.38,-249.75 C457.38,-249.75 456.73,-250.66 456.73,-250.66 C456.73,-250.66 455.68,-249.54 455.68,-249.54 C455.68,-249.54 456.6,-248.24 456.6,-248.24 C456.6,-248.24 463.49,-248.24 463.49,-248.24 C463.49,-248.24 464.96,-249.77 464.96,-249.77 C464.96,-249.77 464.96,-254.6 464.96,-254.6 C464.96,-254.6 463.47,-256.83 463.47,-256.83 C463.47,-256.83 458.2,-256.83 458.2,-256.83 C458.2,-256.83 457.36,-258.05 457.36,-258.05 C457.36,-258.05 457.36,-260.76 457.36,-260.76 C457.36,-260.76 457.99,-261.43 457.99,-261.43 C457.99,-261.43 462.46,-261.43 462.46,-261.43 C462.46,-261.43 463.32,-260.17 463.32,-260.17 C463.32,-260.17 464.39,-261.22 464.39,-261.22 C464.39,-261.22 463.28,-262.94 463.28,-262.94 C463.28,-262.94 457.36,-262.94 457.36,-262.94 C457.36,-262.94 455.68,-261.2 455.68,-261.2z "/></g></g></g><g id="time_group"/></svg>