<svg xmlns="http://www.w3.org/2000/svg" xmlns:xlink="http://www.w3.org/1999/xlink" preserveAspectRatio="xMidYMid meet" width="800" height="400" viewBox="0 0 800 400" style="width:100%;height:100%"><defs><animate repeatCount="indefinite" dur="4.5833333s" begin="0s" xlink:href="#_R_G_L_13_G" fill="freeze" attributeName="opacity" from="0" to="0" keyTimes="0;0.0727273;0.2327273;0.8727273;0.9781818;1" values="0;1;0.6;0.6;0;0" keySplines="0.167 0.167 0.833 0.833;0.167 0.167 0.833 0.833;0.167 0.167 0.833 0.833;0.167 0.167 0.833 0.833;0 0 0 0" calcMode="spline"/><animateMotion repeatCount="indefinite" dur="4.5833333s" begin="0s" xlink:href="#_R_G_L_13_G" fill="freeze" keyTimes="0;0.0727273;0.1090909;0.1927273;1" path="M402 200 C402,200 402,200 402,200 C402,200 148,200 148,200 C148,200 447,83 447,83 C447,83 447,83 447,83 " keyPoints="0;0;0.44;1;1" keySplines="0.167 0.167 0.833 0.833;0.167 0.167 0.833 0.833;0.167 0.167 0.833 0.833;0 0 0 0" calcMode="spline"/><animateTransform repeatCount="indefinite" dur="4.5833333s" begin="0s" xlink:href="#_R_G_L_13_G" fill="freeze" attributeName="transform" from="1 1" to="0.36 0.36" type="scale" additive="sum" keyTimes="0;0.0727273;0.1090909;1" values="1 1;1 1;0.36 0.36;0.36 0.36" keySplines="0.167 0.167 0.833 0.833;0.167 0.167 0.833 0.833;0 0 0 0" calcMode="spline"/><animateTransform repeatCount="indefinite" dur="4.5833333s" begin="0s" xlink:href="#_R_G_L_13_G" fill="freeze" attributeName="transform" from="-400 -200" to="-400 -200" type="translate" additive="sum" keyTimes="0;1" values="-400 -200;-400 -200" keySplines="0 0 1 1" calcMode="spline"/><animate repeatCount="indefinite" dur="4.5833333s" begin="0s" xlink:href="#_R_G_L_13_G_M" fill="freeze" attributeName="opacity" from="0" to="1" keyTimes="0;0.1090909;0.1090913;1" values="0;0;1;1" keySplines="0 0 0 0;0 0 0 0;0 0 0 0" calcMode="spline"/><animate repeatCount="indefinite" dur="4.5833333s" begin="0s" xlink:href="#_R_G_L_12_G" fill="freeze" attributeName="opacity" from="0" to="0" keyTimes="0;0.0727273;0.8727273;0.9781818;1" values="0;1;1;0;0" keySplines="0.167 0.167 0.833 0.833;0.167 0.167 0.833 0.833;0.167 0.167 0.833 0.833;0 0 0 0" calcMode="spline"/><animateMotion repeatCount="indefinite" dur="4.5833333s" begin="0s" xlink:href="#_R_G_L_12_G" fill="freeze" keyTimes="0;0.0727273;0.1090909;0.1927273;1" path="M315.5 106 C315.5,106 315.5,106 315.5,106 C315.5,106 117,167 117,167 C117,167 416,50 416,50 C416,50 416,50 416,50 " keyPoints="0;0;0.39;1;1" keySplines="0.167 0.167 0.833 0.833;0.167 0.167 0.833 0.833;0.167 0.167 0.833 0.833;0 0 0 0" calcMode="spline"/><animateTransform repeatCount="indefinite" dur="4.5833333s" begin="0s" xlink:href="#_R_G_L_12_G" fill="freeze" attributeName="transform" from="1 1" to="0.36 0.36" type="scale" additive="sum" keyTimes="0;0.0727273;0.1090909;1" values="1 1;1 1;0.36 0.36;0.36 0.36" keySplines="0.167 0.167 0.833 0.833;0.167 0.167 0.833 0.833;0 0 0 0" calcMode="spline"/><animate repeatCount="indefinite" dur="4.5833333s" begin="0s" xlink:href="#_R_G_L_12_G_M" fill="freeze" attributeName="opacity" from="0" to="1" keyTimes="0;0.1090909;0.1090913;1" values="0;0;1;1" keySplines="0 0 0 0;0 0 0 0;0 0 0 0" calcMode="spline"/><animate repeatCount="indefinite" dur="4.5833333s" begin="0s" xlink:href="#_R_G_L_11_G" fill="freeze" attributeName="opacity" from="0" to="0" keyTimes="0;0.0727273;0.8727273;0.9781818;1" values="0;1;1;0;0" keySplines="0.167 0.167 0.833 0.833;0.167 0.167 0.833 0.833;0.167 0.167 0.833 0.833;0 0 0 0" calcMode="spline"/><animateMotion repeatCount="indefinite" dur="4.5833333s" begin="0s" xlink:href="#_R_G_L_11_G" fill="freeze" keyTimes="0;0.0727273;0.1090909;0.1927273;1" path="M402 200 C402,200 402,200 402,200 C402,200 148,200 148,200 C148,200 656,200 656,200 C656,200 656,200 656,200 " keyPoints="0;0;0.33;1;1" keySplines="0.167 0.167 0.833 0.833;0.167 0.167 0.833 0.833;0.167 0.167 0.833 0.833;0 0 0 0" calcMode="spline"/><animateTransform repeatCount="indefinite" dur="4.5833333s" begin="0s" xlink:href="#_R_G_L_11_G" fill="freeze" attributeName="transform" from="1 1" to="0.36 0.36" type="scale" additive="sum" keyTimes="0;0.0727273;0.1090909;1" values="1 1;1 1;0.36 0.36;0.36 0.36" keySplines="0.167 0.167 0.833 0.833;0.167 0.167 0.833 0.833;0 0 0 0" calcMode="spline"/><animateTransform repeatCount="indefinite" dur="4.5833333s" begin="0s" xlink:href="#_R_G_L_11_G" fill="freeze" attributeName="transform" from="-400 -200" to="-400 -200" type="translate" additive="sum" keyTimes="0;1" values="-400 -200;-400 -200" keySplines="0 0 1 1" calcMode="spline"/><animate repeatCount="indefinite" dur="4.5833333s" begin="0s" xlink:href="#_R_G_L_11_G_M" fill="freeze" attributeName="opacity" from="0" to="1" keyTimes="0;0.1090909;0.1090913;1" values="0;0;1;1" keySplines="0 0 0 0;0 0 0 0;0 0 0 0" calcMode="spline"/><animate repeatCount="indefinite" dur="4.5833333s" begin="0s" xlink:href="#_R_G_L_10_G" fill="freeze" attributeName="opacity" from="0" to="0" keyTimes="0;0.0727273;0.8727273;0.9781818;1" values="0;1;1;0;0" keySplines="0.167 0.167 0.833 0.833;0.167 0.167 0.833 0.833;0.167 0.167 0.833 0.833;0 0 0 0" calcMode="spline"/><animateMotion repeatCount="indefinite" dur="4.5833333s" begin="0s" xlink:href="#_R_G_L_10_G" fill="freeze" keyTimes="0;0.0727273;0.1090909;0.1927273;1" path="M315.5 106 C315.5,106 315.5,106 315.5,106 C315.5,106 117,167 117,167 C117,167 625,167 625,167 C625,167 625,167 625,167 " keyPoints="0;0;0.29;1;1" keySplines="0.167 0.167 0.833 0.833;0.167 0.167 0.833 0.833;0.167 0.167 0.833 0.833;0 0 0 0" calcMode="spline"/><animateTransform repeatCount="indefinite" dur="4.5833333s" begin="0s" xlink:href="#_R_G_L_10_G" fill="freeze" attributeName="transform" from="1 1" to="0.36 0.36" type="scale" additive="sum" keyTimes="0;0.0727273;0.1090909;1" values="1 1;1 1;0.36 0.36;0.36 0.36" keySplines="0.167 0.167 0.833 0.833;0.167 0.167 0.833 0.833;0 0 0 0" calcMode="spline"/><animate repeatCount="indefinite" dur="4.5833333s" begin="0s" xlink:href="#_R_G_L_10_G_M" fill="freeze" attributeName="opacity" from="0" to="1" keyTimes="0;0.1090909;0.1090913;1" values="0;0;1;1" keySplines="0 0 0 0;0 0 0 0;0 0 0 0" calcMode="spline"/><animate repeatCount="indefinite" dur="4.5833333s" begin="0s" xlink:href="#_R_G_L_9_G" fill="freeze" attributeName="opacity" from="0" to="0" keyTimes="0;0.0727273;0.2327273;0.8727273;0.9781818;1" values="0;1;0.6;0.6;0;0" keySplines="0.167 0.167 0.833 0.833;0.167 0.167 0.833 0.833;0.167 0.167 0.833 0.833;0.167 0.167 0.833 0.833;0 0 0 0" calcMode="spline"/><animateMotion repeatCount="indefinite" dur="4.5833333s" begin="0s" xlink:href="#_R_G_L_9_G" fill="freeze" keyTimes="0;0.0727273;0.1090909;0.1927273;1" path="M402 200 C402,200 402,200 402,200 C402,200 148,200 148,200 C148,200 453,324 453,324 C453,324 453,324 453,324 " keyPoints="0;0;0.44;1;1" keySplines="0.167 0.167 0.833 0.833;0.167 0.167 0.833 0.833;0.167 0.167 0.833 0.833;0 0 0 0" calcMode="spline"/><animateTransform repeatCount="indefinite" dur="4.5833333s" begin="0s" xlink:href="#_R_G_L_9_G" fill="freeze" attributeName="transform" from="1 1" to="0.36 0.36" type="scale" additive="sum" keyTimes="0;0.0727273;0.1090909;1" values="1 1;1 1;0.36 0.36;0.36 0.36" keySplines="0.167 0.167 0.833 0.833;0.167 0.167 0.833 0.833;0 0 0 0" calcMode="spline"/><animateTransform repeatCount="indefinite" dur="4.5833333s" begin="0s" xlink:href="#_R_G_L_9_G" fill="freeze" attributeName="transform" from="-400 -200" to="-400 -200" type="translate" additive="sum" keyTimes="0;1" values="-400 -200;-400 -200" keySplines="0 0 1 1" calcMode="spline"/><animate repeatCount="indefinite" dur="4.5833333s" begin="0s" xlink:href="#_R_G_L_9_G_M" fill="freeze" attributeName="opacity" from="0" to="1" keyTimes="0;0.1090909;0.1090913;1" values="0;0;1;1" keySplines="0 0 0 0;0 0 0 0;0 0 0 0" calcMode="spline"/><animate repeatCount="indefinite" dur="4.5833333s" begin="0s" xlink:href="#_R_G_L_8_G" fill="freeze" attributeName="opacity" from="0" to="0" keyTimes="0;0.0727273;0.8727273;0.9781818;1" values="0;1;1;0;0" keySplines="0.167 0.167 0.833 0.833;0.167 0.167 0.833 0.833;0.167 0.167 0.833 0.833;0 0 0 0" calcMode="spline"/><animateMotion repeatCount="indefinite" dur="4.5833333s" begin="0s" xlink:href="#_R_G_L_8_G" fill="freeze" keyTimes="0;0.0727273;0.1090909;0.1927273;1" path="M315.5 106 C315.5,106 315.5,106 315.5,106 C315.5,106 117,167 117,167 C117,167 422,291 422,291 C422,291 422,291 422,291 " keyPoints="0;0;0.39;1;1" keySplines="0.167 0.167 0.833 0.833;0.167 0.167 0.833 0.833;0.167 0.167 0.833 0.833;0 0 0 0" calcMode="spline"/><animateTransform repeatCount="indefinite" dur="4.5833333s" begin="0s" xlink:href="#_R_G_L_8_G" fill="freeze" attributeName="transform" from="1 1" to="0.36 0.36" type="scale" additive="sum" keyTimes="0;0.0727273;0.1090909;1" values="1 1;1 1;0.36 0.36;0.36 0.36" keySplines="0.167 0.167 0.833 0.833;0.167 0.167 0.833 0.833;0 0 0 0" calcMode="spline"/><animate repeatCount="indefinite" dur="4.5833333s" begin="0s" xlink:href="#_R_G_L_8_G_M" fill="freeze" attributeName="opacity" from="0" to="1" keyTimes="0;0.1090909;0.1090913;1" values="0;0;1;1" keySplines="0 0 0 0;0 0 0 0;0 0 0 0" calcMode="spline"/><animate repeatCount="indefinite" dur="4.5833333s" begin="0s" xlink:href="#_R_G_L_7_G" fill="freeze" attributeName="opacity" from="0" to="0" keyTimes="0;0.0727273;0.8727273;0.9781818;1" values="0;1;1;0;0" keySplines="0.167 0.167 0.833 0.833;0.167 0.167 0.833 0.833;0.167 0.167 0.833 0.833;0 0 0 0" calcMode="spline"/><animateMotion repeatCount="indefinite" dur="4.5833333s" begin="0s" xlink:href="#_R_G_L_7_G" fill="freeze" keyTimes="0;0.0727273;0.1090909;1" path="M402 200 C402,200 402,200 402,200 C402,200 148,200 148,200 C148,200 148,200 148,200 " keyPoints="0;0;1;1" keySplines="0.167 0.167 0.833 0.833;0.167 0.167 0.833 0.833;0 0 0 0" calcMode="spline"/><animateTransform repeatCount="indefinite" dur="4.5833333s" begin="0s" xlink:href="#_R_G_L_7_G" fill="freeze" attributeName="transform" from="1 1" to="0.36 0.36" type="scale" additive="sum" keyTimes="0;0.0727273;0.1090909;1" values="1 1;1 1;0.36 0.36;0.36 0.36" keySplines="0.167 0.167 0.833 0.833;0.167 0.167 0.833 0.833;0 0 0 0" calcMode="spline"/><animateTransform repeatCount="indefinite" dur="4.5833333s" begin="0s" xlink:href="#_R_G_L_7_G" fill="freeze" attributeName="transform" from="-400 -200" to="-400 -200" type="translate" additive="sum" keyTimes="0;1" values="-400 -200;-400 -200" keySplines="0 0 1 1" calcMode="spline"/><animate repeatCount="indefinite" dur="4.5833333s" begin="0s" xlink:href="#_R_G_L_6_G" fill="freeze" attributeName="opacity" from="0" to="0" keyTimes="0;0.0727273;0.8727273;0.9781818;1" values="0;1;1;0;0" keySplines="0.167 0.167 0.833 0.833;0.167 0.167 0.833 0.833;0.167 0.167 0.833 0.833;0 0 0 0" calcMode="spline"/><animateMotion repeatCount="indefinite" dur="4.5833333s" begin="0s" xlink:href="#_R_G_L_6_G" fill="freeze" keyTimes="0;0.0727273;0.1090909;1" path="M315.5 106 C315.5,106 315.5,106 315.5,106 C315.5,106 117,167 117,167 C117,167 117,167 117,167 " keyPoints="0;0;1;1" keySplines="0.167 0.167 0.833 0.833;0.167 0.167 0.833 0.833;0 0 0 0" calcMode="spline"/><animateTransform repeatCount="indefinite" dur="4.5833333s" begin="0s" xlink:href="#_R_G_L_6_G" fill="freeze" attributeName="transform" from="1 1" to="0.36 0.36" type="scale" additive="sum" keyTimes="0;0.0727273;0.1090909;1" values="1 1;1 1;0.36 0.36;0.36 0.36" keySplines="0.167 0.167 0.833 0.833;0.167 0.167 0.833 0.833;0 0 0 0" calcMode="spline"/><animate repeatCount="indefinite" dur="4.5833333s" begin="0s" xlink:href="#_R_G_L_5_G" fill="freeze" attributeName="opacity" from="0.22" to="0" keyTimes="0;0.1345455;0.8727273;0.9781818;1" values="0.22;0.22;0.22;0;0" keySplines="0.167 0.167 0.833 0.833;0.167 0.167 0.833 0.833;0.167 0.167 0.833 0.833;0 0 0 0" calcMode="spline"/><animateMotion repeatCount="indefinite" dur="4.5833333s" begin="0s" xlink:href="#_R_G_L_5_G" fill="freeze" keyTimes="0;0.1927273;0.3090909;1" path="M54.38 198 C54.38,198 54.38,198 54.38,198 C54.38,198 224.38,198 224.38,198 C224.38,198 224.38,198 224.38,198 " keyPoints="0;0;1;1" keySplines="0.167 0.167 0.833 0.833;0.167 0.167 0.833 0.833;0 0 0 0" calcMode="spline"/><animateTransform repeatCount="indefinite" dur="4.5833333s" begin="0s" xlink:href="#_R_G_L_5_G" fill="freeze" attributeName="transform" from="0.10833999999999999 0.38683" to="0.10833999999999999 0.38683" type="scale" additive="sum" keyTimes="0;1" values="0.10833999999999999 0.38683;0.10833999999999999 0.38683" keySplines="0 0 1 1" calcMode="spline"/><animateTransform repeatCount="indefinite" dur="4.5833333s" begin="0s" xlink:href="#_R_G_L_5_G" fill="freeze" attributeName="transform" from="196 0" to="196 0" type="translate" additive="sum" keyTimes="0;1" values="196 0;196 0" keySplines="0 0 1 1" calcMode="spline"/><animate repeatCount="indefinite" dur="4.5833333s" begin="0s" xlink:href="#_R_G_L_5_G_M" fill="freeze" attributeName="opacity" from="0" to="0" keyTimes="0;0.1927273;0.1927276;0.3127273;0.3127273;1" values="0;0;1;1;0;0" keySplines="0 0 0 0;0 0 0 0;0 0 0 0;0 0 0 0;0 0 0 0" calcMode="spline"/><animate repeatCount="indefinite" dur="4.5833333s" begin="0s" xlink:href="#_R_G_L_4_G" fill="freeze" attributeName="opacity" from="0" to="0" keyTimes="0;0.3018182;0.3236364;0.8727273;0.9781818;1" values="0;0;0.4;0.4;0;0" keySplines="0.167 0.167 0.833 0.833;0.167 0.167 0.833 0.833;0.167 0.167 0.833 0.833;0.167 0.167 0.833 0.833;0 0 0 0" calcMode="spline"/><animate repeatCount="indefinite" dur="4.5833333s" begin="0s" xlink:href="#_R_G_L_4_G_M" fill="freeze" attributeName="opacity" from="0" to="0" keyTimes="0;0.3090909;0.3090913;0.3818182;0.3818182;1" values="0;0;1;1;0;0" keySplines="0 0 0 0;0 0 0 0;0 0 0 0;0 0 0 0;0 0 0 0" calcMode="spline"/><animate repeatCount="indefinite" dur="4.5833333s" begin="0s" xlink:href="#_R_G_L_3_G" fill="freeze" attributeName="opacity" from="0" to="0" keyTimes="0;0.3745455;0.3963636;0.8727273;0.9781818;1" values="0;0;0.4;0.4;0;0" keySplines="0.167 0.167 0.833 0.833;0.167 0.167 0.833 0.833;0.167 0.167 0.833 0.833;0.167 0.167 0.833 0.833;0 0 0 0" calcMode="spline"/><animate repeatCount="indefinite" dur="4.5833333s" begin="0s" xlink:href="#_R_G_L_3_G_M" fill="freeze" attributeName="opacity" from="0" to="1" keyTimes="0;0.3818182;0.3818185;1" values="0;0;1;1" keySplines="0 0 0 0;0 0 0 0;0 0 0 0" calcMode="spline"/><animate repeatCount="indefinite" dur="4.5833333s" begin="0s" xlink:href="#_R_G_L_2_G" fill="freeze" attributeName="opacity" from="0" to="0" keyTimes="0;0.3818182;0.4363636;0.4727273;0.5090909;0.5454545;0.5818182;0.6181818;0.6545455;0.6909091;0.7272727;0.7636364;0.8;0.8363636;0.8727273;0.9781818;1" values="0;0;1;1;0;1;0;1;0;1;0;1;0;1;1;0;0" keySplines="0.167 0.167 0.833 0.833;0.167 0.167 0.833 0.833;0.167 0.167 0.833 0.833;0.167 0.167 0.833 0.833;0.167 0.167 0.833 0.833;0.167 0.167 0.833 0.833;0.167 0.167 0.833 0.833;0.167 0.167 0.833 0.833;0.167 0.167 0.833 0.833;0.167 0.167 0.833 0.833;0.167 0.167 0.833 0.833;0.167 0.167 0.833 0.833;0.167 0.167 0.833 0.833;0.167 0.167 0.833 0.833;0.167 0.167 0.833 0.833;0 0 0 0" calcMode="spline"/><animateMotion repeatCount="indefinite" dur="4.5833333s" begin="0s" xlink:href="#_R_G_L_2_G" fill="freeze" keyTimes="0;0.3818182;0.4254545;0.4436364;1" path="M705.5 174 C705.5,174 705.5,174 705.5,174 C705.5,174 705.5,138.27 705.5,138.27 C705.5,138.27 705.5,149.27 705.5,149.27 C705.5,149.27 705.5,149.27 705.5,149.27 " keyPoints="0;0;0.76;1;1" keySplines="0.167 0.167 0.833 0.833;0.167 0.167 0.833 0.833;0.167 0.167 0.833 0.833;0 0 0 0" calcMode="spline"/><animate repeatCount="indefinite" dur="4.5833333s" begin="0s" xlink:href="#_R_G_L_2_G_M" fill="freeze" attributeName="opacity" from="0" to="1" keyTimes="0;0.3818182;0.3818185;1" values="0;0;1;1" keySplines="0 0 0 0;0 0 0 0;0 0 0 0" calcMode="spline"/><animate repeatCount="indefinite" dur="4.5833333s" begin="0s" xlink:href="#_R_G_L_1_G" fill="freeze" attributeName="opacity" from="0" to="0" keyTimes="0;0.3818182;0.4363636;0.8727273;0.9781818;1" values="0;0;1;1;0;0" keySplines="0.167 0.167 0.833 0.833;0.167 0.167 0.833 0.833;0.167 0.167 0.833 0.833;0.167 0.167 0.833 0.833;0 0 0 0" calcMode="spline"/><animateMotion repeatCount="indefinite" dur="4.5833333s" begin="0s" xlink:href="#_R_G_L_1_G" fill="freeze" keyTimes="0;0.3818182;0.4254545;0.4436364;1" path="M204 159 C204,159 204,159 204,159 C204,159 204,131 204,131 C204,131 204,142 204,142 C204,142 204,142 204,142 " keyPoints="0;0;0.72;1;1" keySplines="0.167 0.167 0.833 0.833;0.167 0.167 0.833 0.833;0.167 0.167 0.833 0.833;0 0 0 0" calcMode="spline"/><animate repeatCount="indefinite" dur="4.5833333s" begin="0s" xlink:href="#_R_G_L_1_G_M" fill="freeze" attributeName="opacity" from="0" to="1" keyTimes="0;0.3818182;0.3818185;1" values="0;0;1;1" keySplines="0 0 0 0;0 0 0 0;0 0 0 0" calcMode="spline"/><animate repeatCount="indefinite" dur="4.5833333s" begin="0s" xlink:href="#_R_G_L_0_G" fill="freeze" attributeName="opacity" from="0" to="0" keyTimes="0;0.44;0.4872727;0.8727273;0.9781818;1" values="0;0;1;1;0;0" keySplines="0.167 0.167 0.833 0.833;0.167 0.167 0.833 0.833;0.167 0.167 0.833 0.833;0.167 0.167 0.833 0.833;0 0 0 0" calcMode="spline"/><animate repeatCount="indefinite" dur="4.5833333s" begin="0s" xlink:href="#_R_G_L_0_G_M" fill="freeze" attributeName="opacity" from="0" to="1" keyTimes="0;0.3818182;0.3818185;1" values="0;0;1;1" keySplines="0 0 0 0;0 0 0 0;0 0 0 0" calcMode="spline"/><animate attributeType="XML" attributeName="opacity" dur="5s" from="0" to="1" xlink:href="#time_group"/></defs><g id="_R_G"><g id="_R_G_L_13_G_M"><g id="_R_G_L_13_G"><path id="_R_G_L_13_G_D_0_P_0" fill="#1a1a1a" fill-opacity="1" fill-rule="nonzero" d=" M173.33 328.21 C173.33,328.21 643.64,328.21 643.64,328.21 C652.54,328.21 659.83,320.92 659.83,312.02 C659.83,312.02 659.83,75.7 659.83,75.7 C659.83,66.8 652.54,59.52 643.64,59.52 C643.64,59.52 173.33,59.52 173.33,59.52 C164.43,59.52 157.15,66.8 157.15,75.7 C157.15,75.7 157.15,312.02 157.15,312.02 C157.15,320.92 164.43,328.21 173.33,328.21z "/><path id="_R_G_L_13_G_D_1_P_0" fill="#5e5e5e" fill-opacity="1" fill-rule="nonzero" d=" M173.33 328.21 C164.43,328.21 157.15,320.92 157.15,312.02 C157.15,312.02 157.15,75.7 157.15,75.7 C157.15,74.31 157.34,72.97 157.68,71.68 C148.28,72.8 140.93,80.84 140.93,90.53 C140.93,90.53 140.93,321.23 140.93,321.23 C140.93,331.68 149.48,340.23 159.93,340.23 C159.93,340.23 624.61,340.23 624.61,340.23 C632.59,340.23 639.46,335.23 642.25,328.21 C642.25,328.21 173.33,328.21 173.33,328.21z "/><path id="_R_G_L_13_G_D_2_P_0" stroke="#ffffff" stroke-linecap="round" stroke-linejoin="round" fill="none" stroke-width="0.5" stroke-opacity="1" d=" M184.59 115.01 C184.59,115.01 445.59,115.01 445.59,115.01 "/><path id="_R_G_L_13_G_D_3_P_0" fill="#5e5e5e" fill-opacity="1" fill-rule="nonzero" d=" M634.49 102.34 C634.49,106.72 630.93,110.28 626.55,110.28 C622.16,110.28 618.61,106.72 618.61,102.34 C618.61,97.95 622.16,94.4 626.55,94.4 C630.93,94.4 634.49,97.95 634.49,102.34z "/><path id="_R_G_L_13_G_D_4_P_0" fill="#5e5e5e" fill-opacity="1" fill-rule="nonzero" d=" M602.49 102.34 C602.49,106.72 598.93,110.28 594.55,110.28 C590.16,110.28 586.61,106.72 586.61,102.34 C586.61,97.95 590.16,94.4 594.55,94.4 C598.93,94.4 602.49,97.95 602.49,102.34z "/><path id="_R_G_L_13_G_D_5_P_0" fill="#5e5e5e" fill-opacity="1" fill-rule="nonzero" d=" M570.49 102.34 C570.49,106.72 566.93,110.28 562.55,110.28 C558.16,110.28 554.61,106.72 554.61,102.34 C554.61,97.95 558.16,94.4 562.55,94.4 C566.93,94.4 570.49,97.95 570.49,102.34z "/><path id="_R_G_L_13_G_D_6_P_0" fill="#5e5e5e" fill-opacity="1" fill-rule="nonzero" d=" M191.45 241.79 C191.45,241.79 504.01,241.79 504.01,241.79 C508.29,241.79 511.79,238.29 511.79,234.01 C511.79,234.01 511.79,154.58 511.79,154.58 C511.79,150.3 508.29,146.8 504.01,146.8 C504.01,146.8 191.45,146.8 191.45,146.8 C187.17,146.8 183.67,150.3 183.67,154.58 C183.67,154.58 183.67,234.01 183.67,234.01 C183.67,238.29 187.17,241.79 191.45,241.79z "/><path id="_R_G_L_13_G_D_7_P_0" fill="#5e5e5e" fill-opacity="1" fill-rule="nonzero" d=" M543.39 305.23 C543.39,305.23 621.82,305.23 621.82,305.23 C624.69,305.23 627.05,302.88 627.05,300 C627.05,300 627.05,151.77 627.05,151.77 C627.05,148.9 624.69,146.54 621.82,146.54 C621.82,146.54 543.39,146.54 543.39,146.54 C540.51,146.54 538.16,148.9 538.16,151.77 C538.16,151.77 538.16,300 538.16,300 C538.16,302.88 540.51,305.23 543.39,305.23z "/><path id="_R_G_L_13_G_D_8_P_0" fill="#1a1a1a" fill-opacity="1" fill-rule="nonzero" d=" M606.92 167.93 C606.92,167.93 558.24,167.93 558.24,167.93 C557.88,167.93 557.58,167.64 557.58,167.28 C557.58,167.28 557.58,164.59 557.58,164.59 C557.58,164.23 557.88,163.93 558.24,163.93 C558.24,163.93 606.92,163.93 606.92,163.93 C607.29,163.93 607.58,164.23 607.58,164.59 C607.58,164.59 607.58,167.28 607.58,167.28 C607.58,167.64 607.29,167.93 606.92,167.93z "/><path id="_R_G_L_13_G_D_9_P_0" fill="#1a1a1a" fill-opacity="1" fill-rule="nonzero" d=" M447.91 170.61 C447.91,170.61 202.08,170.61 202.08,170.61 C200.93,170.61 200,169.67 200,168.53 C200,168.53 200,164.69 200,164.69 C200,163.55 200.93,162.61 202.08,162.61 C202.08,162.61 447.91,162.61 447.91,162.61 C449.06,162.61 450,163.55 450,164.69 C450,164.69 450,168.53 450,168.53 C450,169.67 449.06,170.61 447.91,170.61z "/><path id="_R_G_L_13_G_D_10_P_0" fill="#1a1a1a" fill-opacity="1" fill-rule="nonzero" d=" M398.68 191.01 C398.68,191.01 201.31,191.01 201.31,191.01 C200.59,191.01 200,190.42 200,189.7 C200,189.7 200,188.33 200,188.33 C200,187.61 200.59,187.01 201.31,187.01 C201.31,187.01 398.68,187.01 398.68,187.01 C399.4,187.01 400,187.61 400,188.33 C400,188.33 400,189.7 400,189.7 C400,190.42 399.4,191.01 398.68,191.01z "/><path id="_R_G_L_13_G_D_11_P_0" fill="#1a1a1a" fill-opacity="1" fill-rule="nonzero" d=" M348.86 211.42 C348.86,211.42 201.14,211.42 201.14,211.42 C200.51,211.42 200,210.9 200,210.28 C200,210.28 200,208.56 200,208.56 C200,207.93 200.51,207.42 201.14,207.42 C201.14,207.42 348.86,207.42 348.86,207.42 C349.48,207.42 350,207.93 350,208.56 C350,208.56 350,210.28 350,210.28 C350,210.9 349.48,211.42 348.86,211.42z "/><path id="_R_G_L_13_G_D_12_P_0" fill="#1a1a1a" fill-opacity="1" fill-rule="nonzero" d=" M606.92 187.05 C606.92,187.05 558.24,187.05 558.24,187.05 C557.88,187.05 557.58,186.75 557.58,186.39 C557.58,186.39 557.58,183.71 557.58,183.71 C557.58,183.34 557.88,183.05 558.24,183.05 C558.24,183.05 606.92,183.05 606.92,183.05 C607.29,183.05 607.58,183.34 607.58,183.71 C607.58,183.71 607.58,186.39 607.58,186.39 C607.58,186.75 607.29,187.05 606.92,187.05z "/><path id="_R_G_L_13_G_D_13_P_0" fill="#1a1a1a" fill-opacity="1" fill-rule="nonzero" d=" M606.92 206.16 C606.92,206.16 558.24,206.16 558.24,206.16 C557.88,206.16 557.58,205.87 557.58,205.51 C557.58,205.51 557.58,202.82 557.58,202.82 C557.58,202.46 557.88,202.16 558.24,202.16 C558.24,202.16 606.92,202.16 606.92,202.16 C607.29,202.16 607.58,202.46 607.58,202.82 C607.58,202.82 607.58,205.51 607.58,205.51 C607.58,205.87 607.29,206.16 606.92,206.16z "/><path id="_R_G_L_13_G_D_14_P_0" fill="#1a1a1a" fill-opacity="1" fill-rule="nonzero" d=" M606.92 225.28 C606.92,225.28 558.24,225.28 558.24,225.28 C557.88,225.28 557.58,224.98 557.58,224.62 C557.58,224.62 557.58,221.93 557.58,221.93 C557.58,221.57 557.88,221.28 558.24,221.28 C558.24,221.28 606.92,221.28 606.92,221.28 C607.29,221.28 607.58,221.57 607.58,221.93 C607.58,221.93 607.58,224.62 607.58,224.62 C607.58,224.98 607.29,225.28 606.92,225.28z "/></g></g><g id="_R_G_L_12_G_M"><g id="_R_G_L_12_G"><text id="_R_G_L_12_G_X" font-size="21px" font-family="Kode Mono" font-weight="Regular" fill="#5e5e5e" text-anchor="start" letter-spacing="0"><tspan id="_R_G_L_12_G_X_A_0" x="0" dy="0">https://app.yoursite.com</tspan></text></g></g><g id="_R_G_L_11_G_M"><g id="_R_G_L_11_G"><g id="_R_G_L_11_G_D_0_P_0_G_0_T_0" transform=" translate(408.485, 193.862) translate(0, 0)"><path id="_R_G_L_11_G_D_0_P_0" fill="#1a1a1a" fill-opacity="1" fill-rule="nonzero" opacity="0.6" d=" M-235.15 134.35 C-235.15,134.35 235.15,134.35 235.15,134.35 C244.05,134.35 251.34,127.06 251.34,118.16 C251.34,118.16 251.34,-118.16 251.34,-118.16 C251.34,-127.06 244.05,-134.35 235.15,-134.35 C235.15,-134.35 -235.15,-134.35 -235.15,-134.35 C-244.06,-134.35 -251.34,-127.06 -251.34,-118.16 C-251.34,-118.16 -251.34,118.16 -251.34,118.16 C-251.34,127.06 -244.06,134.35 -235.15,134.35z "/></g><g id="_R_G_L_11_G_D_1_P_0_G_0_T_0" transform=" translate(391.591, 205.952) translate(0, 0)"><path id="_R_G_L_11_G_D_1_P_0" fill="#5e5e5e" fill-opacity="1" fill-rule="nonzero" opacity="0.6" d=" M-218.26 122.26 C-227.16,122.26 -234.45,114.97 -234.45,106.07 C-234.45,106.07 -234.45,-130.25 -234.45,-130.25 C-234.45,-131.64 -234.25,-132.98 -233.92,-134.27 C-243.31,-133.15 -250.66,-125.11 -250.66,-115.42 C-250.66,-115.42 -250.66,115.27 -250.66,115.27 C-250.66,125.72 -242.11,134.27 -231.66,134.27 C-231.66,134.27 233.02,134.27 233.02,134.27 C241,134.27 247.86,129.27 250.66,122.26 C250.66,122.26 -218.26,122.26 -218.26,122.26z "/></g><path id="_R_G_L_11_G_D_2_P_0" stroke="#ffffff" stroke-linecap="round" stroke-linejoin="round" fill="none" stroke-width="0.5" stroke-opacity="1" d=" M184.59 115.01 C184.59,115.01 445.59,115.01 445.59,115.01 "/><path id="_R_G_L_11_G_D_3_P_0" fill="#5e5e5e" fill-opacity="1" fill-rule="nonzero" d=" M634.49 102.34 C634.49,106.72 630.93,110.28 626.55,110.28 C622.16,110.28 618.61,106.72 618.61,102.34 C618.61,97.95 622.16,94.4 626.55,94.4 C630.93,94.4 634.49,97.95 634.49,102.34z "/><path id="_R_G_L_11_G_D_4_P_0" fill="#5e5e5e" fill-opacity="1" fill-rule="nonzero" d=" M602.49 102.34 C602.49,106.72 598.93,110.28 594.55,110.28 C590.16,110.28 586.61,106.72 586.61,102.34 C586.61,97.95 590.16,94.4 594.55,94.4 C598.93,94.4 602.49,97.95 602.49,102.34z "/><path id="_R_G_L_11_G_D_5_P_0" fill="#5e5e5e" fill-opacity="1" fill-rule="nonzero" d=" M570.49 102.34 C570.49,106.72 566.93,110.28 562.55,110.28 C558.16,110.28 554.61,106.72 554.61,102.34 C554.61,97.95 558.16,94.4 562.55,94.4 C566.93,94.4 570.49,97.95 570.49,102.34z "/><path id="_R_G_L_11_G_D_6_P_0" fill="#5e5e5e" fill-opacity="1" fill-rule="nonzero" d=" M191.45 241.79 C191.45,241.79 504.01,241.79 504.01,241.79 C508.29,241.79 511.79,238.29 511.79,234.01 C511.79,234.01 511.79,154.58 511.79,154.58 C511.79,150.3 508.29,146.8 504.01,146.8 C504.01,146.8 191.45,146.8 191.45,146.8 C187.17,146.8 183.67,150.3 183.67,154.58 C183.67,154.58 183.67,234.01 183.67,234.01 C183.67,238.29 187.17,241.79 191.45,241.79z "/><path id="_R_G_L_11_G_D_7_P_0" fill="#5e5e5e" fill-opacity="1" fill-rule="nonzero" d=" M543.39 305.23 C543.39,305.23 621.82,305.23 621.82,305.23 C624.69,305.23 627.05,302.88 627.05,300 C627.05,300 627.05,151.77 627.05,151.77 C627.05,148.9 624.69,146.54 621.82,146.54 C621.82,146.54 543.39,146.54 543.39,146.54 C540.51,146.54 538.16,148.9 538.16,151.77 C538.16,151.77 538.16,300 538.16,300 C538.16,302.88 540.51,305.23 543.39,305.23z "/><path id="_R_G_L_11_G_D_8_P_0" fill="#1a1a1a" fill-opacity="1" fill-rule="nonzero" d=" M606.92 167.93 C606.92,167.93 558.24,167.93 558.24,167.93 C557.88,167.93 557.58,167.64 557.58,167.28 C557.58,167.28 557.58,164.59 557.58,164.59 C557.58,164.23 557.88,163.93 558.24,163.93 C558.24,163.93 606.92,163.93 606.92,163.93 C607.29,163.93 607.58,164.23 607.58,164.59 C607.58,164.59 607.58,167.28 607.58,167.28 C607.58,167.64 607.29,167.93 606.92,167.93z "/><path id="_R_G_L_11_G_D_9_P_0" fill="#1a1a1a" fill-opacity="1" fill-rule="nonzero" d=" M447.91 170.61 C447.91,170.61 202.08,170.61 202.08,170.61 C200.93,170.61 200,169.67 200,168.53 C200,168.53 200,164.69 200,164.69 C200,163.55 200.93,162.61 202.08,162.61 C202.08,162.61 447.91,162.61 447.91,162.61 C449.06,162.61 450,163.55 450,164.69 C450,164.69 450,168.53 450,168.53 C450,169.67 449.06,170.61 447.91,170.61z "/><path id="_R_G_L_11_G_D_10_P_0" fill="#1a1a1a" fill-opacity="1" fill-rule="nonzero" d=" M398.68 191.01 C398.68,191.01 201.31,191.01 201.31,191.01 C200.59,191.01 200,190.42 200,189.7 C200,189.7 200,188.33 200,188.33 C200,187.61 200.59,187.01 201.31,187.01 C201.31,187.01 398.68,187.01 398.68,187.01 C399.4,187.01 400,187.61 400,188.33 C400,188.33 400,189.7 400,189.7 C400,190.42 399.4,191.01 398.68,191.01z "/><path id="_R_G_L_11_G_D_11_P_0" fill="#1a1a1a" fill-opacity="1" fill-rule="nonzero" d=" M348.86 211.42 C348.86,211.42 201.14,211.42 201.14,211.42 C200.51,211.42 200,210.9 200,210.28 C200,210.28 200,208.56 200,208.56 C200,207.93 200.51,207.42 201.14,207.42 C201.14,207.42 348.86,207.42 348.86,207.42 C349.48,207.42 350,207.93 350,208.56 C350,208.56 350,210.28 350,210.28 C350,210.9 349.48,211.42 348.86,211.42z "/><path id="_R_G_L_11_G_D_12_P_0" fill="#1a1a1a" fill-opacity="1" fill-rule="nonzero" d=" M606.92 187.05 C606.92,187.05 558.24,187.05 558.24,187.05 C557.88,187.05 557.58,186.75 557.58,186.39 C557.58,186.39 557.58,183.71 557.58,183.71 C557.58,183.34 557.88,183.05 558.24,183.05 C558.24,183.05 606.92,183.05 606.92,183.05 C607.29,183.05 607.58,183.34 607.58,183.71 C607.58,183.71 607.58,186.39 607.58,186.39 C607.58,186.75 607.29,187.05 606.92,187.05z "/><path id="_R_G_L_11_G_D_13_P_0" fill="#1a1a1a" fill-opacity="1" fill-rule="nonzero" d=" M606.92 206.16 C606.92,206.16 558.24,206.16 558.24,206.16 C557.88,206.16 557.58,205.87 557.58,205.51 C557.58,205.51 557.58,202.82 557.58,202.82 C557.58,202.46 557.88,202.16 558.24,202.16 C558.24,202.16 606.92,202.16 606.92,202.16 C607.29,202.16 607.58,202.46 607.58,202.82 C607.58,202.82 607.58,205.51 607.58,205.51 C607.58,205.87 607.29,206.16 606.92,206.16z "/><path id="_R_G_L_11_G_D_14_P_0" fill="#1a1a1a" fill-opacity="1" fill-rule="nonzero" d=" M606.92 225.28 C606.92,225.28 558.24,225.28 558.24,225.28 C557.88,225.28 557.58,224.98 557.58,224.62 C557.58,224.62 557.58,221.93 557.58,221.93 C557.58,221.57 557.88,221.28 558.24,221.28 C558.24,221.28 606.92,221.28 606.92,221.28 C607.29,221.28 607.58,221.57 607.58,221.93 C607.58,221.93 607.58,224.62 607.58,224.62 C607.58,224.98 607.29,225.28 606.92,225.28z "/></g></g><g id="_R_G_L_10_G_M"><g id="_R_G_L_10_G"><text id="_R_G_L_10_G_X" font-size="21px" font-family="Kode Mono" font-weight="Regular" fill="#5e5e5e" text-anchor="start" letter-spacing="0"><tspan id="_R_G_L_10_G_X_A_0" x="0" dy="0">https://store.yoursite.com</tspan></text></g></g><g id="_R_G_L_9_G_M"><g id="_R_G_L_9_G"><path id="_R_G_L_9_G_D_0_P_0" fill="#1a1a1a" fill-opacity="1" fill-rule="nonzero" d=" M173.33 328.21 C173.33,328.21 643.64,328.21 643.64,328.21 C652.54,328.21 659.83,320.92 659.83,312.02 C659.83,312.02 659.83,75.7 659.83,75.7 C659.83,66.8 652.54,59.52 643.64,59.52 C643.64,59.52 173.33,59.52 173.33,59.52 C164.43,59.52 157.15,66.8 157.15,75.7 C157.15,75.7 157.15,312.02 157.15,312.02 C157.15,320.92 164.43,328.21 173.33,328.21z "/><path id="_R_G_L_9_G_D_1_P_0" fill="#5e5e5e" fill-opacity="1" fill-rule="nonzero" d=" M173.33 328.21 C164.43,328.21 157.15,320.92 157.15,312.02 C157.15,312.02 157.15,75.7 157.15,75.7 C157.15,74.31 157.34,72.97 157.68,71.68 C148.28,72.8 140.93,80.84 140.93,90.53 C140.93,90.53 140.93,321.23 140.93,321.23 C140.93,331.68 149.48,340.23 159.93,340.23 C159.93,340.23 624.61,340.23 624.61,340.23 C632.59,340.23 639.46,335.23 642.25,328.21 C642.25,328.21 173.33,328.21 173.33,328.21z "/><path id="_R_G_L_9_G_D_2_P_0" stroke="#ffffff" stroke-linecap="round" stroke-linejoin="round" fill="none" stroke-width="0.5" stroke-opacity="1" d=" M184.59 115.01 C184.59,115.01 445.59,115.01 445.59,115.01 "/><path id="_R_G_L_9_G_D_3_P_0" fill="#5e5e5e" fill-opacity="1" fill-rule="nonzero" d=" M634.49 102.34 C634.49,106.72 630.93,110.28 626.55,110.28 C622.16,110.28 618.61,106.72 618.61,102.34 C618.61,97.95 622.16,94.4 626.55,94.4 C630.93,94.4 634.49,97.95 634.49,102.34z "/><path id="_R_G_L_9_G_D_4_P_0" fill="#5e5e5e" fill-opacity="1" fill-rule="nonzero" d=" M602.49 102.34 C602.49,106.72 598.93,110.28 594.55,110.28 C590.16,110.28 586.61,106.72 586.61,102.34 C586.61,97.95 590.16,94.4 594.55,94.4 C598.93,94.4 602.49,97.95 602.49,102.34z "/><path id="_R_G_L_9_G_D_5_P_0" fill="#5e5e5e" fill-opacity="1" fill-rule="nonzero" d=" M570.49 102.34 C570.49,106.72 566.93,110.28 562.55,110.28 C558.16,110.28 554.61,106.72 554.61,102.34 C554.61,97.95 558.16,94.4 562.55,94.4 C566.93,94.4 570.49,97.95 570.49,102.34z "/><path id="_R_G_L_9_G_D_6_P_0" fill="#5e5e5e" fill-opacity="1" fill-rule="nonzero" d=" M191.45 241.79 C191.45,241.79 504.01,241.79 504.01,241.79 C508.29,241.79 511.79,238.29 511.79,234.01 C511.79,234.01 511.79,154.58 511.79,154.58 C511.79,150.3 508.29,146.8 504.01,146.8 C504.01,146.8 191.45,146.8 191.45,146.8 C187.17,146.8 183.67,150.3 183.67,154.58 C183.67,154.58 183.67,234.01 183.67,234.01 C183.67,238.29 187.17,241.79 191.45,241.79z "/><path id="_R_G_L_9_G_D_7_P_0" fill="#5e5e5e" fill-opacity="1" fill-rule="nonzero" d=" M543.39 305.23 C543.39,305.23 621.82,305.23 621.82,305.23 C624.69,305.23 627.05,302.88 627.05,300 C627.05,300 627.05,151.77 627.05,151.77 C627.05,148.9 624.69,146.54 621.82,146.54 C621.82,146.54 543.39,146.54 543.39,146.54 C540.51,146.54 538.16,148.9 538.16,151.77 C538.16,151.77 538.16,300 538.16,300 C538.16,302.88 540.51,305.23 543.39,305.23z "/><path id="_R_G_L_9_G_D_8_P_0" fill="#1a1a1a" fill-opacity="1" fill-rule="nonzero" d=" M606.92 167.93 C606.92,167.93 558.24,167.93 558.24,167.93 C557.88,167.93 557.58,167.64 557.58,167.28 C557.58,167.28 557.58,164.59 557.58,164.59 C557.58,164.23 557.88,163.93 558.24,163.93 C558.24,163.93 606.92,163.93 606.92,163.93 C607.29,163.93 607.58,164.23 607.58,164.59 C607.58,164.59 607.58,167.28 607.58,167.28 C607.58,167.64 607.29,167.93 606.92,167.93z "/><path id="_R_G_L_9_G_D_9_P_0" fill="#1a1a1a" fill-opacity="1" fill-rule="nonzero" d=" M447.91 170.61 C447.91,170.61 202.08,170.61 202.08,170.61 C200.93,170.61 200,169.67 200,168.53 C200,168.53 200,164.69 200,164.69 C200,163.55 200.93,162.61 202.08,162.61 C202.08,162.61 447.91,162.61 447.91,162.61 C449.06,162.61 450,163.55 450,164.69 C450,164.69 450,168.53 450,168.53 C450,169.67 449.06,170.61 447.91,170.61z "/><path id="_R_G_L_9_G_D_10_P_0" fill="#1a1a1a" fill-opacity="1" fill-rule="nonzero" d=" M398.68 191.01 C398.68,191.01 201.31,191.01 201.31,191.01 C200.59,191.01 200,190.42 200,189.7 C200,189.7 200,188.33 200,188.33 C200,187.61 200.59,187.01 201.31,187.01 C201.31,187.01 398.68,187.01 398.68,187.01 C399.4,187.01 400,187.61 400,188.33 C400,188.33 400,189.7 400,189.7 C400,190.42 399.4,191.01 398.68,191.01z "/><path id="_R_G_L_9_G_D_11_P_0" fill="#1a1a1a" fill-opacity="1" fill-rule="nonzero" d=" M348.86 211.42 C348.86,211.42 201.14,211.42 201.14,211.42 C200.51,211.42 200,210.9 200,210.28 C200,210.28 200,208.56 200,208.56 C200,207.93 200.51,207.42 201.14,207.42 C201.14,207.42 348.86,207.42 348.86,207.42 C349.48,207.42 350,207.93 350,208.56 C350,208.56 350,210.28 350,210.28 C350,210.9 349.48,211.42 348.86,211.42z "/><path id="_R_G_L_9_G_D_12_P_0" fill="#1a1a1a" fill-opacity="1" fill-rule="nonzero" d=" M606.92 187.05 C606.92,187.05 558.24,187.05 558.24,187.05 C557.88,187.05 557.58,186.75 557.58,186.39 C557.58,186.39 557.58,183.71 557.58,183.71 C557.58,183.34 557.88,183.05 558.24,183.05 C558.24,183.05 606.92,183.05 606.92,183.05 C607.29,183.05 607.58,183.34 607.58,183.71 C607.58,183.71 607.58,186.39 607.58,186.39 C607.58,186.75 607.29,187.05 606.92,187.05z "/><path id="_R_G_L_9_G_D_13_P_0" fill="#1a1a1a" fill-opacity="1" fill-rule="nonzero" d=" M606.92 206.16 C606.92,206.16 558.24,206.16 558.24,206.16 C557.88,206.16 557.58,205.87 557.58,205.51 C557.58,205.51 557.58,202.82 557.58,202.82 C557.58,202.46 557.88,202.16 558.24,202.16 C558.24,202.16 606.92,202.16 606.92,202.16 C607.29,202.16 607.58,202.46 607.58,202.82 C607.58,202.82 607.58,205.51 607.58,205.51 C607.58,205.87 607.29,206.16 606.92,206.16z "/><path id="_R_G_L_9_G_D_14_P_0" fill="#1a1a1a" fill-opacity="1" fill-rule="nonzero" d=" M606.92 225.28 C606.92,225.28 558.24,225.28 558.24,225.28 C557.88,225.28 557.58,224.98 557.58,224.62 C557.58,224.62 557.58,221.93 557.58,221.93 C557.58,221.57 557.88,221.28 558.24,221.28 C558.24,221.28 606.92,221.28 606.92,221.28 C607.29,221.28 607.58,221.57 607.58,221.93 C607.58,221.93 607.58,224.62 607.58,224.62 C607.58,224.98 607.29,225.28 606.92,225.28z "/></g></g><g id="_R_G_L_8_G_M"><g id="_R_G_L_8_G"><text id="_R_G_L_8_G_X" font-size="21px" font-family="Kode Mono" font-weight="Regular" fill="#5e5e5e" text-anchor="start" letter-spacing="0"><tspan id="_R_G_L_8_G_X_A_0" x="0" dy="0">https://dash.yoursite.com</tspan></text></g></g><g id="_R_G_L_7_G"><g id="_R_G_L_7_G_D_0_P_0_G_0_T_0" transform=" translate(408.485, 193.862) translate(0, 0)"><path id="_R_G_L_7_G_D_0_P_0" fill="#1a1a1a" fill-opacity="1" fill-rule="nonzero" opacity="0.6" d=" M-235.15 134.35 C-235.15,134.35 235.15,134.35 235.15,134.35 C244.05,134.35 251.34,127.06 251.34,118.16 C251.34,118.16 251.34,-118.16 251.34,-118.16 C251.34,-127.06 244.05,-134.35 235.15,-134.35 C235.15,-134.35 -235.15,-134.35 -235.15,-134.35 C-244.06,-134.35 -251.34,-127.06 -251.34,-118.16 C-251.34,-118.16 -251.34,118.16 -251.34,118.16 C-251.34,127.06 -244.06,134.35 -235.15,134.35z "/></g><g id="_R_G_L_7_G_D_1_P_0_G_0_T_0" transform=" translate(391.591, 205.952) translate(0, 0)"><path id="_R_G_L_7_G_D_1_P_0" fill="#5e5e5e" fill-opacity="1" fill-rule="nonzero" opacity="0.6" d=" M-218.26 122.26 C-227.16,122.26 -234.45,114.97 -234.45,106.07 C-234.45,106.07 -234.45,-130.25 -234.45,-130.25 C-234.45,-131.64 -234.25,-132.98 -233.92,-134.27 C-243.31,-133.15 -250.66,-125.11 -250.66,-115.42 C-250.66,-115.42 -250.66,115.27 -250.66,115.27 C-250.66,125.72 -242.11,134.27 -231.66,134.27 C-231.66,134.27 233.02,134.27 233.02,134.27 C241,134.27 247.86,129.27 250.66,122.26 C250.66,122.26 -218.26,122.26 -218.26,122.26z "/></g><path id="_R_G_L_7_G_D_2_P_0" stroke="#ffffff" stroke-linecap="round" stroke-linejoin="round" fill="none" stroke-width="0.5" stroke-opacity="1" d=" M184.59 115.01 C184.59,115.01 445.59,115.01 445.59,115.01 "/><path id="_R_G_L_7_G_D_3_P_0" fill="#5e5e5e" fill-opacity="1" fill-rule="nonzero" d=" M634.49 102.34 C634.49,106.72 630.93,110.28 626.55,110.28 C622.16,110.28 618.61,106.72 618.61,102.34 C618.61,97.95 622.16,94.4 626.55,94.4 C630.93,94.4 634.49,97.95 634.49,102.34z "/><path id="_R_G_L_7_G_D_4_P_0" fill="#5e5e5e" fill-opacity="1" fill-rule="nonzero" d=" M602.49 102.34 C602.49,106.72 598.93,110.28 594.55,110.28 C590.16,110.28 586.61,106.72 586.61,102.34 C586.61,97.95 590.16,94.4 594.55,94.4 C598.93,94.4 602.49,97.95 602.49,102.34z "/><path id="_R_G_L_7_G_D_5_P_0" fill="#5e5e5e" fill-opacity="1" fill-rule="nonzero" d=" M570.49 102.34 C570.49,106.72 566.93,110.28 562.55,110.28 C558.16,110.28 554.61,106.72 554.61,102.34 C554.61,97.95 558.16,94.4 562.55,94.4 C566.93,94.4 570.49,97.95 570.49,102.34z "/><path id="_R_G_L_7_G_D_6_P_0" fill="#5e5e5e" fill-opacity="1" fill-rule="nonzero" d=" M191.45 241.79 C191.45,241.79 504.01,241.79 504.01,241.79 C508.29,241.79 511.79,238.29 511.79,234.01 C511.79,234.01 511.79,154.58 511.79,154.58 C511.79,150.3 508.29,146.8 504.01,146.8 C504.01,146.8 191.45,146.8 191.45,146.8 C187.17,146.8 183.67,150.3 183.67,154.58 C183.67,154.58 183.67,234.01 183.67,234.01 C183.67,238.29 187.17,241.79 191.45,241.79z "/><path id="_R_G_L_7_G_D_7_P_0" fill="#5e5e5e" fill-opacity="1" fill-rule="nonzero" d=" M543.39 305.23 C543.39,305.23 621.82,305.23 621.82,305.23 C624.69,305.23 627.05,302.88 627.05,300 C627.05,300 627.05,151.77 627.05,151.77 C627.05,148.9 624.69,146.54 621.82,146.54 C621.82,146.54 543.39,146.54 543.39,146.54 C540.51,146.54 538.16,148.9 538.16,151.77 C538.16,151.77 538.16,300 538.16,300 C538.16,302.88 540.51,305.23 543.39,305.23z "/><path id="_R_G_L_7_G_D_8_P_0" fill="#1a1a1a" fill-opacity="1" fill-rule="nonzero" d=" M606.92 167.93 C606.92,167.93 558.24,167.93 558.24,167.93 C557.88,167.93 557.58,167.64 557.58,167.28 C557.58,167.28 557.58,164.59 557.58,164.59 C557.58,164.23 557.88,163.93 558.24,163.93 C558.24,163.93 606.92,163.93 606.92,163.93 C607.29,163.93 607.58,164.23 607.58,164.59 C607.58,164.59 607.58,167.28 607.58,167.28 C607.58,167.64 607.29,167.93 606.92,167.93z "/><path id="_R_G_L_7_G_D_9_P_0" fill="#1a1a1a" fill-opacity="1" fill-rule="nonzero" d=" M447.91 170.61 C447.91,170.61 202.08,170.61 202.08,170.61 C200.93,170.61 200,169.67 200,168.53 C200,168.53 200,164.69 200,164.69 C200,163.55 200.93,162.61 202.08,162.61 C202.08,162.61 447.91,162.61 447.91,162.61 C449.06,162.61 450,163.55 450,164.69 C450,164.69 450,168.53 450,168.53 C450,169.67 449.06,170.61 447.91,170.61z "/><path id="_R_G_L_7_G_D_10_P_0" fill="#1a1a1a" fill-opacity="1" fill-rule="nonzero" d=" M398.68 191.01 C398.68,191.01 201.31,191.01 201.31,191.01 C200.59,191.01 200,190.42 200,189.7 C200,189.7 200,188.33 200,188.33 C200,187.61 200.59,187.01 201.31,187.01 C201.31,187.01 398.68,187.01 398.68,187.01 C399.4,187.01 400,187.61 400,188.33 C400,188.33 400,189.7 400,189.7 C400,190.42 399.4,191.01 398.68,191.01z "/><path id="_R_G_L_7_G_D_11_P_0" fill="#1a1a1a" fill-opacity="1" fill-rule="nonzero" d=" M348.86 211.42 C348.86,211.42 201.14,211.42 201.14,211.42 C200.51,211.42 200,210.9 200,210.28 C200,210.28 200,208.56 200,208.56 C200,207.93 200.51,207.42 201.14,207.42 C201.14,207.42 348.86,207.42 348.86,207.42 C349.48,207.42 350,207.93 350,208.56 C350,208.56 350,210.28 350,210.28 C350,210.9 349.48,211.42 348.86,211.42z "/><path id="_R_G_L_7_G_D_12_P_0" fill="#1a1a1a" fill-opacity="1" fill-rule="nonzero" d=" M606.92 187.05 C606.92,187.05 558.24,187.05 558.24,187.05 C557.88,187.05 557.58,186.75 557.58,186.39 C557.58,186.39 557.58,183.71 557.58,183.71 C557.58,183.34 557.88,183.05 558.24,183.05 C558.24,183.05 606.92,183.05 606.92,183.05 C607.29,183.05 607.58,183.34 607.58,183.71 C607.58,183.71 607.58,186.39 607.58,186.39 C607.58,186.75 607.29,187.05 606.92,187.05z "/><path id="_R_G_L_7_G_D_13_P_0" fill="#1a1a1a" fill-opacity="1" fill-rule="nonzero" d=" M606.92 206.16 C606.92,206.16 558.24,206.16 558.24,206.16 C557.88,206.16 557.58,205.87 557.58,205.51 C557.58,205.51 557.58,202.82 557.58,202.82 C557.58,202.46 557.88,202.16 558.24,202.16 C558.24,202.16 606.92,202.16 606.92,202.16 C607.29,202.16 607.58,202.46 607.58,202.82 C607.58,202.82 607.58,205.51 607.58,205.51 C607.58,205.87 607.29,206.16 606.92,206.16z "/><path id="_R_G_L_7_G_D_14_P_0" fill="#1a1a1a" fill-opacity="1" fill-rule="nonzero" d=" M606.92 225.28 C606.92,225.28 558.24,225.28 558.24,225.28 C557.88,225.28 557.58,224.98 557.58,224.62 C557.58,224.62 557.58,221.93 557.58,221.93 C557.58,221.57 557.88,221.28 558.24,221.28 C558.24,221.28 606.92,221.28 606.92,221.28 C607.29,221.28 607.58,221.57 607.58,221.93 C607.58,221.93 607.58,224.62 607.58,224.62 C607.58,224.98 607.29,225.28 606.92,225.28z "/></g><g id="_R_G_L_6_G"><text id="_R_G_L_6_G_X" font-size="21px" font-family="Kode Mono" font-weight="Regular" fill="#5e5e5e" text-anchor="start" letter-spacing="0"><tspan id="_R_G_L_6_G_X_A_0" x="0" dy="0">https://yoursite.com</tspan></text></g><g id="_R_G_L_5_G_M"><g id="_R_G_L_5_G"><path id="_R_G_L_5_G_D_0_P_0" fill="#f9e3ba" fill-opacity="1" fill-rule="nonzero" d=" M4620.89 -108.83 C4620.89,-108.83 4620.89,118.17 4620.89,118.17 C4620.89,127.55 4613.27,135.17 4603.89,135.17 C4603.89,135.17 4514.89,135.17 4514.89,135.17 C4505.51,135.17 4497.89,127.55 4497.89,118.17 C4497.89,118.17 4497.89,-108.83 4497.89,-108.83 C4497.89,-118.21 4505.51,-125.83 4514.89,-125.83 C4514.89,-125.83 4603.89,-125.83 4603.89,-125.83 C4613.27,-125.83 4620.89,-118.21 4620.89,-108.83z "/><path id="_R_G_L_5_G_D_1_P_0" fill="#f9e3ba" fill-opacity="1" fill-rule="nonzero" d=" M2708.72 212.15 C2708.72,212.15 2708.72,439.15 2708.72,439.15 C2708.72,448.54 2701.1,456.15 2691.72,456.15 C2691.72,456.15 2602.72,456.15 2602.72,456.15 C2593.33,456.15 2585.72,448.54 2585.72,439.15 C2585.72,439.15 2585.72,212.15 2585.72,212.15 C2585.72,202.77 2593.33,195.15 2602.72,195.15 C2602.72,195.15 2691.72,195.15 2691.72,195.15 C2701.1,195.15 2708.72,202.77 2708.72,212.15z "/><path id="_R_G_L_5_G_D_2_P_0" fill="#f9e3ba" fill-opacity="1" fill-rule="nonzero" d=" M2650.95 -411.64 C2650.95,-411.64 2650.95,-184.64 2650.95,-184.64 C2650.95,-175.26 2643.33,-167.64 2633.95,-167.64 C2633.95,-167.64 2544.95,-167.64 2544.95,-167.64 C2535.57,-167.64 2527.95,-175.26 2527.95,-184.64 C2527.95,-184.64 2527.95,-411.64 2527.95,-411.64 C2527.95,-421.02 2535.57,-428.64 2544.95,-428.64 C2544.95,-428.64 2633.95,-428.64 2633.95,-428.64 C2643.33,-428.64 2650.95,-421.02 2650.95,-411.64z "/><path id="_R_G_L_5_G_D_3_P_0" fill="#f9e3ba" fill-opacity="1" fill-rule="nonzero" d=" M-107.61 -110.65 C-107.61,-110.65 -107.61,116.35 -107.61,116.35 C-107.61,125.73 -115.23,133.35 -124.61,133.35 C-124.61,133.35 -213.61,133.35 -213.61,133.35 C-222.99,133.35 -230.61,125.73 -230.61,116.35 C-230.61,116.35 -230.61,-110.65 -230.61,-110.65 C-230.61,-120.03 -222.99,-127.65 -213.61,-127.65 C-213.61,-127.65 -124.61,-127.65 -124.61,-127.65 C-115.23,-127.65 -107.61,-120.03 -107.61,-110.65z "/></g></g><g id="_R_G_L_4_G_M"><g id="_R_G_L_4_G" transform=" translate(150, 197.5) scale(0.37052999999999997, 0.37228) translate(0, 0)"><path id="_R_G_L_4_G_D_0_P_0" fill="#f9e3ba" fill-opacity="1" fill-rule="nonzero" d=" M1053.11 -428.95 C1053.11,-428.95 1053.11,-190.63 1053.11,-190.63 C1053.11,-180.7 1045.13,-172.63 1035.29,-172.63 C1035.29,-172.63 567.59,-172.63 567.59,-172.63 C557.76,-172.63 549.77,-180.7 549.77,-190.63 C549.77,-190.63 549.77,-428.95 549.77,-428.95 C549.77,-438.89 557.76,-446.95 567.59,-446.95 C567.59,-446.95 1035.29,-446.95 1035.29,-446.95 C1045.13,-446.95 1053.11,-438.89 1053.11,-428.95z "/><path id="_R_G_L_4_G_D_1_P_0" fill="#f9e3ba" fill-opacity="1" fill-rule="nonzero" d=" M244.88 -116 C244.88,-116 244.88,122.32 244.88,122.32 C244.88,132.25 236.9,140.32 227.06,140.32 C227.06,140.32 -240.64,140.32 -240.64,140.32 C-250.47,140.32 -258.46,132.25 -258.46,122.32 C-258.46,122.32 -258.46,-116 -258.46,-116 C-258.46,-125.93 -250.47,-134 -240.64,-134 C-240.64,-134 227.06,-134 227.06,-134 C236.9,-134 244.88,-125.93 244.88,-116z "/><path id="_R_G_L_4_G_D_2_P_0" fill="#f9e3ba" fill-opacity="1" fill-rule="nonzero" d=" M1617.49 -115.54 C1617.49,-115.54 1617.49,122.78 1617.49,122.78 C1617.49,132.71 1609.5,140.78 1599.67,140.78 C1599.67,140.78 1131.97,140.78 1131.97,140.78 C1122.13,140.78 1114.15,132.71 1114.15,122.78 C1114.15,122.78 1114.15,-115.54 1114.15,-115.54 C1114.15,-125.48 1122.13,-133.54 1131.97,-133.54 C1131.97,-133.54 1599.67,-133.54 1599.67,-133.54 C1609.5,-133.54 1617.49,-125.48 1617.49,-115.54z "/><path id="_R_G_L_4_G_D_3_P_0" fill="#f9e3ba" fill-opacity="1" fill-rule="nonzero" d=" M1069.77 220.95 C1069.77,220.95 1069.77,459.27 1069.77,459.27 C1069.77,469.21 1061.78,477.27 1051.95,477.27 C1051.95,477.27 584.25,477.27 584.25,477.27 C574.41,477.27 566.43,469.21 566.43,459.27 C566.43,459.27 566.43,220.95 566.43,220.95 C566.43,211.02 574.41,202.95 584.25,202.95 C584.25,202.95 1051.95,202.95 1051.95,202.95 C1061.78,202.95 1069.77,211.02 1069.77,220.95z "/></g></g><g id="_R_G_L_3_G_M"><g id="_R_G_L_3_G" transform=" translate(150, 197.5) scale(0.37052999999999997, 0.37228) translate(0, 0)"><path id="_R_G_L_3_G_D_0_P_0" fill="#ff0000" fill-opacity="1" fill-rule="nonzero" d=" M1617.49 -115.54 C1617.49,-115.54 1617.49,122.78 1617.49,122.78 C1617.49,132.71 1609.5,140.78 1599.67,140.78 C1599.67,140.78 1131.97,140.78 1131.97,140.78 C1122.13,140.78 1114.15,132.71 1114.15,122.78 C1114.15,122.78 1114.15,-115.54 1114.15,-115.54 C1114.15,-125.48 1122.13,-133.54 1131.97,-133.54 C1131.97,-133.54 1599.67,-133.54 1599.67,-133.54 C1609.5,-133.54 1617.49,-125.48 1617.49,-115.54z "/></g></g><g id="_R_G_L_2_G_M"><g id="_R_G_L_2_G"><path id="_R_G_L_2_G_D_0_P_0" fill="#c20000" fill-opacity="1" fill-rule="nonzero" d=" M40.51 -17.97 C40.51,-17.97 41.92,-15.87 41.92,-15.87 C41.92,-15.87 40.85,-14.78 40.85,-14.78 C40.85,-14.78 39.71,-16.46 39.71,-16.46 C39.71,-16.46 35.26,-16.46 35.26,-16.46 C35.26,-16.46 34.63,-15.79 34.63,-15.79 C34.63,-15.79 34.63,-5.92 34.63,-5.92 C34.63,-5.92 35.36,-4.78 35.36,-4.78 C35.36,-4.78 40.55,-4.78 40.55,-4.78 C40.55,-4.78 40.55,-10.35 40.55,-10.35 C40.55,-10.35 37.59,-10.35 37.59,-10.35 C37.59,-10.35 37.59,-11.86 37.59,-11.86 C37.59,-11.86 41.39,-11.86 41.39,-11.86 C41.39,-11.86 42.25,-10.56 42.25,-10.56 C42.25,-10.56 42.25,-3.27 42.25,-3.27 C42.25,-3.27 34.57,-3.27 34.57,-3.27 C34.57,-3.27 32.95,-5.69 32.95,-5.69 C32.95,-5.69 32.95,-16.21 32.95,-16.21 C32.95,-16.21 34.63,-17.97 34.63,-17.97 C34.63,-17.97 40.51,-17.97 40.51,-17.97z "/><path id="_R_G_L_2_G_D_1_P_0" fill="#c20000" fill-opacity="1" fill-rule="nonzero" d=" M29.86 -17.97 C29.86,-17.97 29.86,-3.27 29.86,-3.27 C29.86,-3.27 28.16,-3.27 28.16,-3.27 C28.16,-3.27 28.16,-8.88 28.16,-8.88 C28.16,-8.88 23.06,-16.46 23.06,-16.46 C23.06,-16.46 22.24,-16.46 22.24,-16.46 C22.24,-16.46 22.24,-3.27 22.24,-3.27 C22.24,-3.27 20.56,-3.27 20.56,-3.27 C20.56,-3.27 20.56,-17.97 20.56,-17.97 C20.56,-17.97 23.86,-17.97 23.86,-17.97 C23.86,-17.97 28.16,-11.61 28.16,-11.61 C28.16,-11.61 28.16,-17.97 28.16,-17.97 C28.16,-17.97 29.86,-17.97 29.86,-17.97z "/><path id="_R_G_L_2_G_D_2_P_0" fill="#c20000" fill-opacity="1" fill-rule="nonzero" d=" M17.24 -17.97 C17.24,-17.97 17.24,-16.44 17.24,-16.44 C17.24,-16.44 13.44,-16.44 13.44,-16.44 C13.44,-16.44 13.44,-4.8 13.44,-4.8 C13.44,-4.8 17.24,-4.8 17.24,-4.8 C17.24,-4.8 17.24,-3.27 17.24,-3.27 C17.24,-3.27 7.96,-3.27 7.96,-3.27 C7.96,-3.27 7.96,-4.8 7.96,-4.8 C7.96,-4.8 11.76,-4.8 11.76,-4.8 C11.76,-4.8 11.76,-16.44 11.76,-16.44 C11.76,-16.44 7.96,-16.44 7.96,-16.44 C7.96,-16.44 7.96,-17.97 7.96,-17.97 C7.96,-17.97 17.24,-17.97 17.24,-17.97z "/><path id="_R_G_L_2_G_D_3_P_0" fill="#c20000" fill-opacity="1" fill-rule="nonzero" d=" M4.66 -17.97 C4.66,-17.97 4.66,-3.27 4.66,-3.27 C4.66,-3.27 2.96,-3.27 2.96,-3.27 C2.96,-3.27 2.96,-8.88 2.96,-8.88 C2.96,-8.88 -2.14,-16.46 -2.14,-16.46 C-2.14,-16.46 -2.96,-16.46 -2.96,-16.46 C-2.96,-16.46 -2.96,-3.27 -2.96,-3.27 C-2.96,-3.27 -4.64,-3.27 -4.64,-3.27 C-4.64,-3.27 -4.64,-17.97 -4.64,-17.97 C-4.64,-17.97 -1.34,-17.97 -1.34,-17.97 C-1.34,-17.97 2.96,-11.61 2.96,-11.61 C2.96,-11.61 2.96,-17.97 2.96,-17.97 C2.96,-17.97 4.66,-17.97 4.66,-17.97z "/><path id="_R_G_L_2_G_D_4_P_0" fill="#c20000" fill-opacity="1" fill-rule="nonzero" d=" M-15.58 -11.88 C-15.58,-11.88 -10.71,-11.88 -10.71,-11.88 C-10.71,-11.88 -9.64,-12.95 -9.64,-12.95 C-9.64,-12.95 -9.64,-14.44 -9.64,-14.44 C-9.64,-14.44 -11.02,-16.46 -11.02,-16.46 C-11.02,-16.46 -15.58,-16.46 -15.58,-16.46 C-15.58,-16.46 -15.58,-11.88 -15.58,-11.88z  M-10.21 -17.97 C-10.21,-17.97 -7.94,-14.67 -7.94,-14.67 C-7.94,-14.67 -7.94,-12.57 -7.94,-12.57 C-7.94,-12.57 -10.02,-10.45 -10.02,-10.45 C-10.02,-10.45 -7.94,-7.45 -7.94,-7.45 C-7.94,-7.45 -7.94,-3.27 -7.94,-3.27 C-7.94,-3.27 -9.64,-3.27 -9.64,-3.27 C-9.64,-3.27 -9.64,-7.26 -9.64,-7.26 C-9.64,-7.26 -11.76,-10.35 -11.76,-10.35 C-11.76,-10.35 -13.92,-10.35 -13.92,-10.35 C-13.92,-10.35 -15.58,-11.38 -15.58,-11.38 C-15.58,-11.38 -15.58,-3.27 -15.58,-3.27 C-15.58,-3.27 -17.26,-3.27 -17.26,-3.27 C-17.26,-3.27 -17.26,-17.97 -17.26,-17.97 C-17.26,-17.97 -10.21,-17.97 -10.21,-17.97z "/><path id="_R_G_L_2_G_D_5_P_0" fill="#c20000" fill-opacity="1" fill-rule="nonzero" d=" M-28.14 -11.5 C-28.14,-11.5 -22.26,-11.5 -22.26,-11.5 C-22.26,-11.5 -22.26,-16.46 -22.26,-16.46 C-22.26,-16.46 -25.81,-16.46 -25.81,-16.46 C-25.81,-16.46 -28.14,-14.06 -28.14,-14.06 C-28.14,-14.06 -28.14,-11.5 -28.14,-11.5z  M-20.58 -17.97 C-20.58,-17.97 -20.58,-3.27 -20.58,-3.27 C-20.58,-3.27 -22.26,-3.27 -22.26,-3.27 C-22.26,-3.27 -22.26,-9.99 -22.26,-9.99 C-22.26,-9.99 -28.14,-9.99 -28.14,-9.99 C-28.14,-9.99 -28.14,-3.27 -28.14,-3.27 C-28.14,-3.27 -29.82,-3.27 -29.82,-3.27 C-29.82,-3.27 -29.82,-14.46 -29.82,-14.46 C-29.82,-14.46 -26.42,-17.97 -26.42,-17.97 C-26.42,-17.97 -20.58,-17.97 -20.58,-17.97z "/><path id="_R_G_L_2_G_D_6_P_0" fill="#c20000" fill-opacity="1" fill-rule="nonzero" d=" M-41.2 -17.97 C-41.2,-17.97 -41.2,-5.77 -41.2,-5.77 C-41.2,-5.77 -40.61,-4.78 -40.61,-4.78 C-40.61,-4.78 -40.09,-4.78 -40.09,-4.78 C-40.09,-4.78 -38.66,-6.27 -38.66,-6.27 C-38.66,-6.27 -38.66,-11.88 -38.66,-11.88 C-38.66,-11.88 -36.96,-11.88 -36.96,-11.88 C-36.96,-11.88 -36.96,-6.9 -36.96,-6.9 C-36.96,-6.9 -35.51,-4.78 -35.51,-4.78 C-35.51,-4.78 -35.01,-4.78 -35.01,-4.78 C-35.01,-4.78 -34.44,-5.41 -34.44,-5.41 C-34.44,-5.41 -34.44,-17.97 -34.44,-17.97 C-34.44,-17.97 -32.74,-17.97 -32.74,-17.97 C-32.74,-17.97 -32.74,-5.01 -32.74,-5.01 C-32.74,-5.01 -34.44,-3.27 -34.44,-3.27 C-34.44,-3.27 -36.33,-3.27 -36.33,-3.27 C-36.33,-3.27 -37.63,-5.2 -37.63,-5.2 C-37.63,-5.2 -39.46,-3.27 -39.46,-3.27 C-39.46,-3.27 -41.2,-3.27 -41.2,-3.27 C-41.2,-3.27 -42.88,-5.79 -42.88,-5.79 C-42.88,-5.79 -42.88,-17.97 -42.88,-17.97 C-42.88,-17.97 -41.2,-17.97 -41.2,-17.97z "/></g></g><g id="_R_G_L_1_G_M"><g id="_R_G_L_1_G"><path id="_R_G_L_1_G_D_0_P_0" fill="#f9e3ba" fill-opacity="1" fill-rule="nonzero" d=" M36.14 -11 C36.14,-11 36.14,-9.49 36.14,-9.49 C36.14,-9.49 29.17,-9.49 29.17,-9.49 C29.17,-9.49 28.52,-8.8 28.52,-8.8 C28.52,-8.8 28.52,-4.91 28.52,-4.91 C28.52,-4.91 33.39,-4.91 33.39,-4.91 C33.39,-4.91 33.39,-3.38 33.39,-3.38 C33.39,-3.38 28.52,-3.38 28.52,-3.38 C28.52,-3.38 28.52,0.97 28.52,0.97 C28.52,0.97 29.34,2.18 29.34,2.18 C29.34,2.18 36.14,2.18 36.14,2.18 C36.14,2.18 36.14,3.7 36.14,3.7 C36.14,3.7 28.52,3.7 28.52,3.7 C28.52,3.7 26.84,1.18 26.84,1.18 C26.84,1.18 26.84,-9.26 26.84,-9.26 C26.84,-9.26 28.54,-11 28.54,-11 C28.54,-11 36.14,-11 36.14,-11z "/><path id="_R_G_L_1_G_D_1_P_0" fill="#f9e3ba" fill-opacity="1" fill-rule="nonzero" d=" M15.92 -4.91 C15.92,-4.91 20.79,-4.91 20.79,-4.91 C20.79,-4.91 21.86,-5.98 21.86,-5.98 C21.86,-5.98 21.86,-7.47 21.86,-7.47 C21.86,-7.47 20.48,-9.49 20.48,-9.49 C20.48,-9.49 15.92,-9.49 15.92,-9.49 C15.92,-9.49 15.92,-4.91 15.92,-4.91z  M21.29 -11 C21.29,-11 23.56,-7.71 23.56,-7.71 C23.56,-7.71 23.56,-5.61 23.56,-5.61 C23.56,-5.61 21.48,-3.48 21.48,-3.48 C21.48,-3.48 23.56,-0.48 23.56,-0.48 C23.56,-0.48 23.56,3.7 23.56,3.7 C23.56,3.7 21.86,3.7 21.86,3.7 C21.86,3.7 21.86,-0.29 21.86,-0.29 C21.86,-0.29 19.74,-3.38 19.74,-3.38 C19.74,-3.38 17.58,-3.38 17.58,-3.38 C17.58,-3.38 15.92,-4.41 15.92,-4.41 C15.92,-4.41 15.92,3.7 15.92,3.7 C15.92,3.7 14.24,3.7 14.24,3.7 C14.24,3.7 14.24,-11 14.24,-11 C14.24,-11 21.29,-11 21.29,-11z "/><path id="_R_G_L_1_G_D_2_P_0" fill="#f9e3ba" fill-opacity="1" fill-rule="nonzero" d=" M10.96 -11 C10.96,-11 10.96,3.7 10.96,3.7 C10.96,3.7 9.26,3.7 9.26,3.7 C9.26,3.7 9.26,2.67 9.26,2.67 C9.26,2.67 7.58,3.7 7.58,3.7 C7.58,3.7 3.34,3.7 3.34,3.7 C3.34,3.7 1.64,1.18 1.64,1.18 C1.64,1.18 1.64,-11 1.64,-11 C1.64,-11 3.32,-11 3.32,-11 C3.32,-11 3.32,0.97 3.32,0.97 C3.32,0.97 4.14,2.18 4.14,2.18 C4.14,2.18 8.59,2.18 8.59,2.18 C8.59,2.18 9.26,1.49 9.26,1.49 C9.26,1.49 9.26,-11 9.26,-11 C9.26,-11 10.96,-11 10.96,-11z "/><path id="_R_G_L_1_G_D_3_P_0" fill="#f9e3ba" fill-opacity="1" fill-rule="nonzero" d=" M-10.6 -9.26 C-10.6,-9.26 -10.6,1.18 -10.6,1.18 C-10.6,1.18 -8.93,3.7 -8.93,3.7 C-8.93,3.7 -3,3.7 -3,3.7 C-3,3.7 -1.57,2.18 -1.57,2.18 C-1.57,2.18 -2.41,0.92 -2.41,0.92 C-2.41,0.92 -3.67,2.18 -3.67,2.18 C-3.67,2.18 -8.11,2.18 -8.11,2.18 C-8.11,2.18 -8.93,0.97 -8.93,0.97 C-8.93,0.97 -8.93,-8.8 -8.93,-8.8 C-8.93,-8.8 -8.27,-9.49 -8.27,-9.49 C-8.27,-9.49 -3.8,-9.49 -3.8,-9.49 C-3.8,-9.49 -2.69,-7.77 -2.69,-7.77 C-2.69,-7.77 -1.62,-8.9 -1.62,-8.9 C-1.62,-8.9 -3,-11 -3,-11 C-3,-11 -8.9,-11 -8.9,-11 C-8.9,-11 -10.6,-9.26 -10.6,-9.26z "/><path id="_R_G_L_1_G_D_4_P_0" fill="#f9e3ba" fill-opacity="1" fill-rule="nonzero" d=" M-14.26 -11 C-14.26,-11 -14.26,-9.49 -14.26,-9.49 C-14.26,-9.49 -21.23,-9.49 -21.23,-9.49 C-21.23,-9.49 -21.88,-8.8 -21.88,-8.8 C-21.88,-8.8 -21.88,-4.91 -21.88,-4.91 C-21.88,-4.91 -17.01,-4.91 -17.01,-4.91 C-17.01,-4.91 -17.01,-3.38 -17.01,-3.38 C-17.01,-3.38 -21.88,-3.38 -21.88,-3.38 C-21.88,-3.38 -21.88,0.97 -21.88,0.97 C-21.88,0.97 -21.06,2.18 -21.06,2.18 C-21.06,2.18 -14.26,2.18 -14.26,2.18 C-14.26,2.18 -14.26,3.7 -14.26,3.7 C-14.26,3.7 -21.88,3.7 -21.88,3.7 C-21.88,3.7 -23.56,1.18 -23.56,1.18 C-23.56,1.18 -23.56,-9.26 -23.56,-9.26 C-23.56,-9.26 -21.86,-11 -21.86,-11 C-21.86,-11 -14.26,-11 -14.26,-11z "/><path id="_R_G_L_1_G_D_5_P_0" fill="#f9e3ba" fill-opacity="1" fill-rule="nonzero" d=" M-36.14 -9.26 C-36.14,-9.26 -36.14,-5.88 -36.14,-5.88 C-36.14,-5.88 -34.46,-3.38 -34.46,-3.38 C-34.46,-3.38 -29.17,-3.38 -29.17,-3.38 C-29.17,-3.38 -28.54,-2.48 -28.54,-2.48 C-28.54,-2.48 -28.54,1.74 -28.54,1.74 C-28.54,1.74 -29.04,2.18 -29.04,2.18 C-29.04,2.18 -34.44,2.18 -34.44,2.18 C-34.44,2.18 -35.09,1.28 -35.09,1.28 C-35.09,1.28 -36.14,2.39 -36.14,2.39 C-36.14,2.39 -35.22,3.7 -35.22,3.7 C-35.22,3.7 -28.33,3.7 -28.33,3.7 C-28.33,3.7 -26.86,2.16 -26.86,2.16 C-26.86,2.16 -26.86,-2.67 -26.86,-2.67 C-26.86,-2.67 -28.35,-4.89 -28.35,-4.89 C-28.35,-4.89 -33.62,-4.89 -33.62,-4.89 C-33.62,-4.89 -34.46,-6.11 -34.46,-6.11 C-34.46,-6.11 -34.46,-8.82 -34.46,-8.82 C-34.46,-8.82 -33.83,-9.49 -33.83,-9.49 C-33.83,-9.49 -29.36,-9.49 -29.36,-9.49 C-29.36,-9.49 -28.5,-8.23 -28.5,-8.23 C-28.5,-8.23 -27.43,-9.28 -27.43,-9.28 C-27.43,-9.28 -28.54,-11 -28.54,-11 C-28.54,-11 -34.46,-11 -34.46,-11 C-34.46,-11 -36.14,-9.26 -36.14,-9.26z "/><path id="_R_G_L_1_G_D_6_P_0" fill="#f9e3ba" fill-opacity="1" fill-rule="nonzero" d=" M334.59 -127.95 C334.59,-127.95 334.59,-126.43 334.59,-126.43 C334.59,-126.43 327.62,-126.43 327.62,-126.43 C327.62,-126.43 326.97,-125.74 326.97,-125.74 C326.97,-125.74 326.97,-121.86 326.97,-121.86 C326.97,-121.86 331.84,-121.86 331.84,-121.86 C331.84,-121.86 331.84,-120.32 331.84,-120.32 C331.84,-120.32 326.97,-120.32 326.97,-120.32 C326.97,-120.32 326.97,-115.98 326.97,-115.98 C326.97,-115.98 327.79,-114.76 327.79,-114.76 C327.79,-114.76 334.59,-114.76 334.59,-114.76 C334.59,-114.76 334.59,-113.25 334.59,-113.25 C334.59,-113.25 326.97,-113.25 326.97,-113.25 C326.97,-113.25 325.29,-115.77 325.29,-115.77 C325.29,-115.77 325.29,-126.2 325.29,-126.2 C325.29,-126.2 326.99,-127.95 326.99,-127.95 C326.99,-127.95 334.59,-127.95 334.59,-127.95z "/><path id="_R_G_L_1_G_D_7_P_0" fill="#f9e3ba" fill-opacity="1" fill-rule="nonzero" d=" M314.37 -121.86 C314.37,-121.86 319.24,-121.86 319.24,-121.86 C319.24,-121.86 320.31,-122.93 320.31,-122.93 C320.31,-122.93 320.31,-124.42 320.31,-124.42 C320.31,-124.42 318.93,-126.43 318.93,-126.43 C318.93,-126.43 314.37,-126.43 314.37,-126.43 C314.37,-126.43 314.37,-121.86 314.37,-121.86z  M319.75 -127.95 C319.75,-127.95 322.02,-124.65 322.02,-124.65 C322.02,-124.65 322.02,-122.55 322.02,-122.55 C322.02,-122.55 319.94,-120.43 319.94,-120.43 C319.94,-120.43 322.02,-117.43 322.02,-117.43 C322.02,-117.43 322.02,-113.25 322.02,-113.25 C322.02,-113.25 320.31,-113.25 320.31,-113.25 C320.31,-113.25 320.31,-117.24 320.31,-117.24 C320.31,-117.24 318.19,-120.32 318.19,-120.32 C318.19,-120.32 316.03,-120.32 316.03,-120.32 C316.03,-120.32 314.37,-121.35 314.37,-121.35 C314.37,-121.35 314.37,-113.25 314.37,-113.25 C314.37,-113.25 312.69,-113.25 312.69,-113.25 C312.69,-113.25 312.69,-127.95 312.69,-127.95 C312.69,-127.95 319.75,-127.95 319.75,-127.95z "/><path id="_R_G_L_1_G_D_8_P_0" fill="#f9e3ba" fill-opacity="1" fill-rule="nonzero" d=" M309.41 -127.95 C309.41,-127.95 309.41,-113.25 309.41,-113.25 C309.41,-113.25 307.71,-113.25 307.71,-113.25 C307.71,-113.25 307.71,-114.28 307.71,-114.28 C307.71,-114.28 306.03,-113.25 306.03,-113.25 C306.03,-113.25 301.79,-113.25 301.79,-113.25 C301.79,-113.25 300.09,-115.77 300.09,-115.77 C300.09,-115.77 300.09,-127.95 300.09,-127.95 C300.09,-127.95 301.77,-127.95 301.77,-127.95 C301.77,-127.95 301.77,-115.98 301.77,-115.98 C301.77,-115.98 302.59,-114.76 302.59,-114.76 C302.59,-114.76 307.04,-114.76 307.04,-114.76 C307.04,-114.76 307.71,-115.45 307.71,-115.45 C307.71,-115.45 307.71,-127.95 307.71,-127.95 C307.71,-127.95 309.41,-127.95 309.41,-127.95z "/><path id="_R_G_L_1_G_D_9_P_0" fill="#f9e3ba" fill-opacity="1" fill-rule="nonzero" d=" M287.85 -126.2 C287.85,-126.2 287.85,-115.77 287.85,-115.77 C287.85,-115.77 289.53,-113.25 289.53,-113.25 C289.53,-113.25 295.45,-113.25 295.45,-113.25 C295.45,-113.25 296.88,-114.76 296.88,-114.76 C296.88,-114.76 296.04,-116.02 296.04,-116.02 C296.04,-116.02 294.78,-114.76 294.78,-114.76 C294.78,-114.76 290.35,-114.76 290.35,-114.76 C290.35,-114.76 289.53,-115.98 289.53,-115.98 C289.53,-115.98 289.53,-125.74 289.53,-125.74 C289.53,-125.74 290.18,-126.43 290.18,-126.43 C290.18,-126.43 294.65,-126.43 294.65,-126.43 C294.65,-126.43 295.77,-124.71 295.77,-124.71 C295.77,-124.71 296.84,-125.85 296.84,-125.85 C296.84,-125.85 295.45,-127.95 295.45,-127.95 C295.45,-127.95 289.55,-127.95 289.55,-127.95 C289.55,-127.95 287.85,-126.2 287.85,-126.2z "/><path id="_R_G_L_1_G_D_10_P_0" fill="#f9e3ba" fill-opacity="1" fill-rule="nonzero" d=" M284.19 -127.95 C284.19,-127.95 284.19,-126.43 284.19,-126.43 C284.19,-126.43 277.22,-126.43 277.22,-126.43 C277.22,-126.43 276.57,-125.74 276.57,-125.74 C276.57,-125.74 276.57,-121.86 276.57,-121.86 C276.57,-121.86 281.44,-121.86 281.44,-121.86 C281.44,-121.86 281.44,-120.32 281.44,-120.32 C281.44,-120.32 276.57,-120.32 276.57,-120.32 C276.57,-120.32 276.57,-115.98 276.57,-115.98 C276.57,-115.98 277.39,-114.76 277.39,-114.76 C277.39,-114.76 284.19,-114.76 284.19,-114.76 C284.19,-114.76 284.19,-113.25 284.19,-113.25 C284.19,-113.25 276.57,-113.25 276.57,-113.25 C276.57,-113.25 274.89,-115.77 274.89,-115.77 C274.89,-115.77 274.89,-126.2 274.89,-126.2 C274.89,-126.2 276.59,-127.95 276.59,-127.95 C276.59,-127.95 284.19,-127.95 284.19,-127.95z "/><path id="_R_G_L_1_G_D_11_P_0" fill="#f9e3ba" fill-opacity="1" fill-rule="nonzero" d=" M262.31 -126.2 C262.31,-126.2 262.31,-122.82 262.31,-122.82 C262.31,-122.82 263.99,-120.32 263.99,-120.32 C263.99,-120.32 269.28,-120.32 269.28,-120.32 C269.28,-120.32 269.91,-119.42 269.91,-119.42 C269.91,-119.42 269.91,-115.2 269.91,-115.2 C269.91,-115.2 269.41,-114.76 269.41,-114.76 C269.41,-114.76 264.01,-114.76 264.01,-114.76 C264.01,-114.76 263.36,-115.66 263.36,-115.66 C263.36,-115.66 262.31,-114.55 262.31,-114.55 C262.31,-114.55 263.24,-113.25 263.24,-113.25 C263.24,-113.25 270.12,-113.25 270.12,-113.25 C270.12,-113.25 271.59,-114.78 271.59,-114.78 C271.59,-114.78 271.59,-119.61 271.59,-119.61 C271.59,-119.61 270.1,-121.84 270.1,-121.84 C270.1,-121.84 264.83,-121.84 264.83,-121.84 C264.83,-121.84 263.99,-123.05 263.99,-123.05 C263.99,-123.05 263.99,-125.76 263.99,-125.76 C263.99,-125.76 264.62,-126.43 264.62,-126.43 C264.62,-126.43 269.09,-126.43 269.09,-126.43 C269.09,-126.43 269.96,-125.17 269.96,-125.17 C269.96,-125.17 271.03,-126.22 271.03,-126.22 C271.03,-126.22 269.91,-127.95 269.91,-127.95 C269.91,-127.95 263.99,-127.95 263.99,-127.95 C263.99,-127.95 262.31,-126.2 262.31,-126.2z "/><path id="_R_G_L_1_G_D_12_P_0" fill="#f9e3ba" fill-opacity="1" fill-rule="nonzero" d=" M341.03 111 C341.03,111 341.03,112.51 341.03,112.51 C341.03,112.51 334.06,112.51 334.06,112.51 C334.06,112.51 333.41,113.21 333.41,113.21 C333.41,113.21 333.41,117.09 333.41,117.09 C333.41,117.09 338.28,117.09 338.28,117.09 C338.28,117.09 338.28,118.63 338.28,118.63 C338.28,118.63 333.41,118.63 333.41,118.63 C333.41,118.63 333.41,122.97 333.41,122.97 C333.41,122.97 334.23,124.19 334.23,124.19 C334.23,124.19 341.03,124.19 341.03,124.19 C341.03,124.19 341.03,125.7 341.03,125.7 C341.03,125.7 333.41,125.7 333.41,125.7 C333.41,125.7 331.73,123.18 331.73,123.18 C331.73,123.18 331.73,112.75 331.73,112.75 C331.73,112.75 333.43,111 333.43,111 C333.43,111 341.03,111 341.03,111z "/><path id="_R_G_L_1_G_D_13_P_0" fill="#f9e3ba" fill-opacity="1" fill-rule="nonzero" d=" M320.81 117.09 C320.81,117.09 325.68,117.09 325.68,117.09 C325.68,117.09 326.75,116.02 326.75,116.02 C326.75,116.02 326.75,114.53 326.75,114.53 C326.75,114.53 325.37,112.51 325.37,112.51 C325.37,112.51 320.81,112.51 320.81,112.51 C320.81,112.51 320.81,117.09 320.81,117.09z  M326.19 111 C326.19,111 328.45,114.3 328.45,114.3 C328.45,114.3 328.45,116.4 328.45,116.4 C328.45,116.4 326.37,118.52 326.37,118.52 C326.37,118.52 328.45,121.52 328.45,121.52 C328.45,121.52 328.45,125.7 328.45,125.7 C328.45,125.7 326.75,125.7 326.75,125.7 C326.75,125.7 326.75,121.71 326.75,121.71 C326.75,121.71 324.63,118.63 324.63,118.63 C324.63,118.63 322.47,118.63 322.47,118.63 C322.47,118.63 320.81,117.6 320.81,117.6 C320.81,117.6 320.81,125.7 320.81,125.7 C320.81,125.7 319.13,125.7 319.13,125.7 C319.13,125.7 319.13,111 319.13,111 C319.13,111 326.19,111 326.19,111z "/><path id="_R_G_L_1_G_D_14_P_0" fill="#f9e3ba" fill-opacity="1" fill-rule="nonzero" d=" M315.85 111 C315.85,111 315.85,125.7 315.85,125.7 C315.85,125.7 314.15,125.7 314.15,125.7 C314.15,125.7 314.15,124.67 314.15,124.67 C314.15,124.67 312.47,125.7 312.47,125.7 C312.47,125.7 308.23,125.7 308.23,125.7 C308.23,125.7 306.53,123.18 306.53,123.18 C306.53,123.18 306.53,111 306.53,111 C306.53,111 308.21,111 308.21,111 C308.21,111 308.21,122.97 308.21,122.97 C308.21,122.97 309.03,124.19 309.03,124.19 C309.03,124.19 313.48,124.19 313.48,124.19 C313.48,124.19 314.15,123.5 314.15,123.5 C314.15,123.5 314.15,111 314.15,111 C314.15,111 315.85,111 315.85,111z "/><path id="_R_G_L_1_G_D_15_P_0" fill="#f9e3ba" fill-opacity="1" fill-rule="nonzero" d=" M294.29 112.75 C294.29,112.75 294.29,123.18 294.29,123.18 C294.29,123.18 295.97,125.7 295.97,125.7 C295.97,125.7 301.89,125.7 301.89,125.7 C301.89,125.7 303.32,124.19 303.32,124.19 C303.32,124.19 302.48,122.93 302.48,122.93 C302.48,122.93 301.22,124.19 301.22,124.19 C301.22,124.19 296.79,124.19 296.79,124.19 C296.79,124.19 295.97,122.97 295.97,122.97 C295.97,122.97 295.97,113.21 295.97,113.21 C295.97,113.21 296.62,112.51 296.62,112.51 C296.62,112.51 301.09,112.51 301.09,112.51 C301.09,112.51 302.2,114.24 302.2,114.24 C302.2,114.24 303.27,113.1 303.27,113.1 C303.27,113.1 301.89,111 301.89,111 C301.89,111 295.99,111 295.99,111 C295.99,111 294.29,112.75 294.29,112.75z "/><path id="_R_G_L_1_G_D_16_P_0" fill="#f9e3ba" fill-opacity="1" fill-rule="nonzero" d=" M290.63 111 C290.63,111 290.63,112.51 290.63,112.51 C290.63,112.51 283.66,112.51 283.66,112.51 C283.66,112.51 283.01,113.21 283.01,113.21 C283.01,113.21 283.01,117.09 283.01,117.09 C283.01,117.09 287.88,117.09 287.88,117.09 C287.88,117.09 287.88,118.63 287.88,118.63 C287.88,118.63 283.01,118.63 283.01,118.63 C283.01,118.63 283.01,122.97 283.01,122.97 C283.01,122.97 283.83,124.19 283.83,124.19 C283.83,124.19 290.63,124.19 290.63,124.19 C290.63,124.19 290.63,125.7 290.63,125.7 C290.63,125.7 283.01,125.7 283.01,125.7 C283.01,125.7 281.33,123.18 281.33,123.18 C281.33,123.18 281.33,112.75 281.33,112.75 C281.33,112.75 283.03,111 283.03,111 C283.03,111 290.63,111 290.63,111z "/><path id="_R_G_L_1_G_D_17_P_0" fill="#f9e3ba" fill-opacity="1" fill-rule="nonzero" d=" M268.75 112.75 C268.75,112.75 268.75,116.13 268.75,116.13 C268.75,116.13 270.43,118.63 270.43,118.63 C270.43,118.63 275.72,118.63 275.72,118.63 C275.72,118.63 276.35,119.53 276.35,119.53 C276.35,119.53 276.35,123.75 276.35,123.75 C276.35,123.75 275.85,124.19 275.85,124.19 C275.85,124.19 270.45,124.19 270.45,124.19 C270.45,124.19 269.8,123.29 269.8,123.29 C269.8,123.29 268.75,124.4 268.75,124.4 C268.75,124.4 269.67,125.7 269.67,125.7 C269.67,125.7 276.56,125.7 276.56,125.7 C276.56,125.7 278.03,124.17 278.03,124.17 C278.03,124.17 278.03,119.34 278.03,119.34 C278.03,119.34 276.54,117.11 276.54,117.11 C276.54,117.11 271.27,117.11 271.27,117.11 C271.27,117.11 270.43,115.9 270.43,115.9 C270.43,115.9 270.43,113.19 270.43,113.19 C270.43,113.19 271.06,112.51 271.06,112.51 C271.06,112.51 275.53,112.51 275.53,112.51 C275.53,112.51 276.39,113.78 276.39,113.78 C276.39,113.78 277.47,112.73 277.47,112.73 C277.47,112.73 276.35,111 276.35,111 C276.35,111 270.43,111 270.43,111 C270.43,111 268.75,112.75 268.75,112.75z "/></g></g><g id="_R_G_L_0_G_M"><g id="_R_G_L_0_G" transform=" translate(569, 150.75) scale(0.29736999999999997, 0.29736999999999997) translate(-50, -50)"><path id="_R_G_L_0_G_D_0_P_0" fill="#fefdfd" fill-opacity="1" fill-rule="nonzero" d=" M52.08 92.36 C52.08,92.36 52.08,92.54 52.08,92.54 C52.08,92.54 47.06,92.54 47.06,92.54 C47.06,92.54 47.06,92.36 47.06,92.36 C48.73,92.46 50.41,92.46 52.08,92.36z "/><path id="_R_G_L_0_G_D_1_P_0" fill="#fefdfd" fill-opacity="1" fill-rule="nonzero" d=" M6.58 52.72 C6.58,52.72 6.4,52.72 6.4,52.72 C6.4,52.72 6.4,46.02 6.4,46.02 C6.4,46.02 6.57,46.02 6.57,46.02 C6.4,48.25 6.4,50.49 6.58,52.72z "/><path id="_R_G_L_0_G_D_2_P_0" fill="#ff0000" fill-opacity="1" fill-rule="nonzero" d=" M92.7 49.31 C92.7,25.49 73.39,6.18 49.57,6.18 C25.75,6.18 6.44,25.49 6.44,49.31 C6.44,73.13 25.75,92.44 49.57,92.44 C73.39,92.44 92.7,73.13 92.7,49.31z  M47.35 22.64 C43.78,23.15 41.53,28.08 41.87,31.39 C43.07,39.36 44.1,47.37 45.37,55.33 C45.65,57.13 45.62,60.65 47.89,61.18 C49.91,61.65 51.39,60.64 51.7,58.62 C51.93,57.19 51.9,55.49 52.1,53.99 C53.09,46.84 54.85,38.94 55.41,31.86 C55.8,26.91 52.93,21.83 47.35,22.64z  M55.63 70.11 C55.63,66.5 52.71,63.58 49.1,63.58 C45.49,63.58 42.56,66.5 42.56,70.11 C42.56,73.72 45.49,76.64 49.1,76.64 C52.71,76.64 55.63,73.72 55.63,70.11z "/><path id="_R_G_L_0_G_D_3_P_0" fill="#f9e3ba" fill-opacity="1" fill-rule="nonzero" d=" M47.35 22.64 C52.93,21.83 55.8,26.91 55.41,31.86 C54.85,38.94 53.09,46.84 52.1,53.99 C51.9,55.49 51.93,57.19 51.71,58.62 C51.39,60.64 49.91,61.65 47.88,61.18 C45.62,60.65 45.65,57.13 45.37,55.33 C44.1,47.37 43.07,39.36 41.87,31.39 C41.53,28.08 43.78,23.16 47.35,22.64z "/><path id="_R_G_L_0_G_D_4_P_0" fill="#f9e3ba" fill-opacity="1" fill-rule="nonzero" d=" M55.63 70.11 C55.63,73.72 52.71,76.64 49.1,76.64 C45.49,76.64 42.56,73.72 42.56,70.11 C42.56,66.5 45.49,63.57 49.1,63.57 C52.71,63.57 55.63,66.5 55.63,70.11z "/></g></g></g><g id="time_group"/></svg>