<svg xmlns="http://www.w3.org/2000/svg" fill="#fff2df" viewBox="0 11.600000381469727 322.20001220703125 39.20000076293945" data-asc="0.944" width="322.20001220703125" height="39.20000076293945"><defs/><g><g><g transform="translate(0, 0)"><path d="M28.70 39.15L28.80 41.25Q28.80 45.95 25.58 48.37Q22.35 50.80 17.95 50.80Q16.60 50.80 15.25 50.45Q13.90 50.10 13.20 49.72Q12.50 49.35 11.53 48.77Q10.55 48.20 10.45 48.15L9.25 47.45Q8.20 48.50 6.47 49.35Q4.75 50.20 3.40 50.20L0.90 47.20L0 45.80Q0.90 45.30 0.90 43.60L0.90 34.60L6.70 34.60L9.20 37.60L9.20 39.15L9.40 40.60Q10.45 41.25 12.68 41.25Q14.90 41.25 15.40 39.15Q14.60 39.60 14.30 39.90L9.45 34.10L10.30 33.35Q8.15 32.00 6.88 31.05Q5.60 30.10 3.85 28.40Q0.35 25.10 0.35 20.67Q0.35 16.25 3.72 13.92Q7.10 11.60 11.55 11.60Q13.95 11.60 15.85 12.32Q17.75 13.05 18.45 13.80L19.15 14.50L19.15 12.20L25.35 12.20L27.85 15.20L27.85 26.40L22.00 26.40L19.50 23.40L18.80 21.10Q17.95 20.65 16.80 20.65Q15.65 20.65 14.88 21.45Q14.10 22.25 14.10 23.65L14.15 24.10Q14.30 24.25 16.93 25.47Q19.55 26.70 21.95 28.37Q24.35 30.05 24.95 31.70Q25.70 31.60 27.65 31.60L30.15 34.60L30.15 38.25Q28.70 38.25 28.70 39.15M1.85 20.30Q1.85 22.75 3.13 24.67Q4.40 26.60 5.90 27.57Q7.40 28.55 9.75 29.85Q12.10 31.15 13.05 31.85Q13.95 31.60 14.85 31.60Q16.80 31.60 18.60 33.10L19.50 32.10L20.75 32.10Q21.40 32.95 21.90 33.25Q22.50 32.50 23.40 32.10Q22.35 30.25 20.00 28.72Q17.65 27.20 15.53 26.35Q13.40 25.50 11.72 24.02Q10.05 22.55 10.05 20.65Q10.05 19.40 10.60 18.35Q11.75 16.25 14.40 16.25Q18.80 16.25 20.65 22.00L24.20 22.00L24.20 13.60L20.40 13.60L20.40 17.10L20.10 17.10Q16.85 13.05 11.60 13.05Q7.65 13.05 4.75 15.02Q1.85 17.00 1.85 20.30M24.85 38.35L24.75 36.15Q24.75 34.05 26.40 34.05L26.40 32.80Q25.45 32.80 24.98 32.87Q24.50 32.95 23.75 33.50Q23.00 34.05 22.35 35.15Q21.15 34.95 20.15 33.45Q19.20 34.60 18.15 34.90Q16.75 32.80 14.35 32.80Q12.80 32.80 11.30 34.20L12.05 35.15Q13 34.40 14 34.40Q15.00 34.40 15.78 35.00Q16.55 35.60 16.73 36.40Q16.90 37.20 16.90 38.17Q16.90 39.15 16.63 40.05Q16.35 40.95 15.30 41.82Q14.25 42.70 12.55 42.70Q9.70 42.70 7.65 41.00Q5.60 39.30 5.30 36.05L2.35 36.05L2.35 43.10Q2.35 45.15 1.85 45.60Q2.80 45.45 4.42 44.45Q6.05 43.45 6.45 42.70Q7.15 43.15 8.45 43.95Q12.40 46.40 15.35 46.40Q19.35 46.40 22.10 44.32Q24.85 42.25 24.85 38.35ZM62.00 16.15Q62.00 16.15 63.95 18.12Q65.90 20.10 65.90 25.95Q65.90 31.80 62.83 34.67Q59.75 37.55 54.40 37.55L51.90 37.55L51.90 38.25Q49.95 38.25 49.38 38.95Q48.80 39.65 48.80 41.20L48.80 41.95Q49.15 41.95 49.40 41.55L50.80 42.45L53.30 45.45Q53.00 47.80 51.60 49.00Q50.20 50.20 48.23 50.20Q46.25 50.20 44.35 48.85Q42.45 50.20 40.43 50.20Q38.40 50.20 35.80 47.80Q33.20 45.40 32.90 42.45L34.30 41.55Q34.50 42.00 35.25 42.00Q37.40 42.00 37.40 38.25L36.80 38.25L34.30 35.25L34.30 31.60Q36.35 31.60 37.20 31.75L37.20 22.25L35.80 22.25L33.30 19.25L33.30 12.20L51.25 12.20Q58.10 12.20 62.00 16.15M40.00 33.25Q40.50 32.95 41.20 32.05L42.50 32.05Q43.15 32.95 43.70 33.25Q44.55 32.10 45.73 31.85Q46.90 31.60 49.40 31.60L50.70 33.15L51.45 33.15Q61.90 33.15 61.90 22.95Q61.90 19.85 60.20 17.15Q59.15 15.55 56.78 14.57Q54.40 13.60 50.90 13.60L34.70 13.60L34.70 17.85L38.70 17.85L38.70 32.15Q39.40 32.50 40.00 33.25M45.10 17.85L48.25 17.85Q55.40 17.85 55.40 23.40Q55.40 26.35 53.68 28.25Q51.95 30.15 48.30 30.15L45.10 30.15L45.10 17.85M42.00 44.15Q43.80 45.70 45.98 45.70Q48.15 45.70 49.15 43.20Q48.80 43.40 48.35 43.40Q44.85 43.40 44.85 38.25Q44.85 34.05 48.15 34.05L48.15 32.80Q47.20 32.80 46.70 32.87Q46.20 32.95 45.45 33.50Q44.70 34.05 44.10 35.15Q42.90 34.90 41.85 33.40Q40.80 34.75 39.60 35.15Q38.95 34.05 38.20 33.50Q37.45 32.95 36.95 32.87Q36.45 32.80 35.55 32.80L35.55 34.05Q38.85 34.05 38.85 38.25Q38.85 42.05 37.25 43.00Q36.50 43.40 35.35 43.40L34.55 43.20Q35.55 45.70 37.73 45.70Q39.90 45.70 41.70 44.15L42.00 44.15M50.60 22.20L49.00 22.20L49.00 28.70Q54.00 28.30 54.00 23.40L53.95 22.65Q53.00 22.20 50.60 22.20ZM85.85 50.80Q78.65 50.80 74.05 47.37Q69.45 43.95 69.45 38.80L69.45 38.25L68.95 38.25L66.45 35.25L66.45 31.60Q68.65 31.60 69.50 31.75L69.50 20.65Q69.50 18.05 70.78 16.17Q72.05 14.30 74.20 13.35Q78.15 11.60 83.35 11.60Q90.65 11.60 95.18 14.92Q99.70 18.25 99.70 23.65L99.70 31.60L100.25 31.60L102.75 34.60L102.75 38.25Q100.85 38.25 100.30 38.95Q99.75 39.65 99.75 41.15L99.75 41.80Q99.75 44.40 98.48 46.25Q97.20 48.10 95 49.05Q91 50.80 85.85 50.80M72.10 33.25Q72.70 32.90 73.35 32.05L74.60 32.05Q75.25 32.95 75.80 33.25Q76.70 32.20 77.85 31.90L77.85 22.05Q77.85 19.50 79.40 18.07Q80.95 16.65 83.40 16.65Q85.85 16.65 87.35 18.05Q88.85 19.45 88.85 22.05L88.85 31.90Q90 32.20 90.90 33.25Q91.40 32.95 92.10 32.05L93.35 32.05Q94 32.95 94.60 33.25Q95.10 32.60 95.75 32.25L95.75 20.75Q95.75 18.65 94.65 17.10Q93.55 15.55 91.70 14.70Q89.85 13.85 87.75 13.45Q85.65 13.05 83.35 13.05Q81.05 13.05 78.98 13.45Q76.90 13.85 75.03 14.70Q73.15 15.55 72.05 17.10Q70.95 18.65 70.95 20.75L70.95 32.25Q71.65 32.70 72.10 33.25M77.55 45.65Q77.55 45.65 78.88 45.97Q80.20 46.30 83.35 46.30Q86.50 46.30 89.15 45.65Q91.80 45.00 93.78 43.22Q95.75 41.45 95.75 38.75L95.75 38.25Q95.75 34.10 99 34.10L99 32.90Q98.10 32.90 97.63 32.97Q97.15 33.05 96.38 33.57Q95.60 34.10 94.95 35.15Q93.85 34.90 92.75 33.45Q91.85 34.75 90.45 35.15Q89.85 34.10 89.10 33.57Q88.35 33.05 87.85 32.97Q87.35 32.90 86.45 32.90L86.45 34.10Q88.10 34.10 88.80 35.05Q89.50 36.00 89.50 36.95Q89.50 39.65 87.75 41.17Q86 42.70 83.35 42.70Q80.70 42.70 78.95 41.17Q77.20 39.65 77.20 36.95Q77.20 36.00 77.90 35.05Q78.60 34.10 80.25 34.10L80.25 32.90Q79.35 32.90 78.85 32.97Q78.35 33.05 77.60 33.57Q76.85 34.10 76.25 35.15Q74.95 34.90 73.95 33.45Q72.95 34.75 71.75 35.15Q71.10 34.10 70.33 33.57Q69.55 33.05 69.08 32.97Q68.60 32.90 67.70 32.90L67.70 34.10Q70.95 34.10 70.95 38.25L70.95 38.75Q70.95 41.45 72.93 43.22Q74.90 45.00 77.55 45.65M81.80 25.10L81.80 31.85L84.10 34.60L84.10 38.25Q83.25 38.30 82.75 38.37Q82.25 38.45 81.68 38.90Q81.10 39.35 81.10 40.20Q81.10 41.25 83.10 41.25Q85.10 41.25 86.33 40.42Q87.55 39.60 87.95 38.25L87.60 38.25L85.10 35.25L85.10 31.60Q86.70 31.60 87.40 31.65L87.40 22.10Q87.40 21.70 86.85 21.42Q86.30 21.15 85.85 21.15Q84 21.15 82.90 22.17Q81.80 23.20 81.80 25.10ZM123.10 50.80Q115.90 50.80 111.30 47.37Q106.70 43.95 106.70 38.80L106.70 38.25L106.20 38.25L103.70 35.25L103.70 31.60Q105.90 31.60 106.75 31.75L106.75 20.65Q106.75 18.05 108.03 16.17Q109.30 14.30 111.45 13.35Q115.40 11.60 120.60 11.60Q127.90 11.60 132.43 14.92Q136.95 18.25 136.95 23.65L136.95 31.60L137.50 31.60L140 34.60L140 38.25Q138.10 38.25 137.55 38.95Q137 39.65 137 41.15L137 41.80Q137 44.40 135.73 46.25Q134.45 48.10 132.25 49.05Q128.25 50.80 123.10 50.80M109.35 33.25Q109.95 32.90 110.60 32.05L111.85 32.05Q112.50 32.95 113.05 33.25Q113.95 32.20 115.10 31.90L115.10 22.05Q115.10 19.50 116.65 18.07Q118.20 16.65 120.65 16.65Q123.10 16.65 124.60 18.05Q126.10 19.45 126.10 22.05L126.10 31.90Q127.25 32.20 128.15 33.25Q128.65 32.95 129.35 32.05L130.60 32.05Q131.25 32.95 131.85 33.25Q132.35 32.60 133 32.25L133 20.75Q133 18.65 131.90 17.10Q130.80 15.55 128.95 14.70Q127.10 13.85 125 13.45Q122.90 13.05 120.60 13.05Q118.30 13.05 116.23 13.45Q114.15 13.85 112.28 14.70Q110.40 15.55 109.30 17.10Q108.20 18.65 108.20 20.75L108.20 32.25Q108.90 32.70 109.35 33.25M114.80 45.65Q114.80 45.65 116.13 45.97Q117.45 46.30 120.60 46.30Q123.75 46.30 126.40 45.65Q129.05 45.00 131.03 43.22Q133 41.45 133 38.75L133 38.25Q133 34.10 136.25 34.10L136.25 32.90Q135.35 32.90 134.88 32.97Q134.40 33.05 133.63 33.57Q132.85 34.10 132.20 35.15Q131.10 34.90 130 33.45Q129.10 34.75 127.70 35.15Q127.10 34.10 126.35 33.57Q125.60 33.05 125.10 32.97Q124.60 32.90 123.70 32.90L123.70 34.10Q125.35 34.10 126.05 35.05Q126.75 36.00 126.75 36.95Q126.75 39.65 125 41.17Q123.25 42.70 120.60 42.70Q117.95 42.70 116.20 41.17Q114.45 39.65 114.45 36.95Q114.45 36.00 115.15 35.05Q115.85 34.10 117.50 34.10L117.50 32.90Q116.60 32.90 116.10 32.97Q115.60 33.05 114.85 33.57Q114.10 34.10 113.50 35.15Q112.20 34.90 111.20 33.45Q110.20 34.75 109 35.15Q108.35 34.10 107.58 33.57Q106.80 33.05 106.33 32.97Q105.85 32.90 104.95 32.90L104.95 34.10Q108.20 34.10 108.20 38.25L108.20 38.75Q108.20 41.45 110.18 43.22Q112.15 45.00 114.80 45.65M119.05 25.10L119.05 31.85L121.35 34.60L121.35 38.25Q120.50 38.30 120 38.37Q119.50 38.45 118.93 38.90Q118.35 39.35 118.35 40.20Q118.35 41.25 120.35 41.25Q122.35 41.25 123.58 40.42Q124.80 39.60 125.20 38.25L124.85 38.25L122.35 35.25L122.35 31.60Q123.95 31.60 124.65 31.65L124.65 22.10Q124.65 21.70 124.10 21.42Q123.55 21.15 123.10 21.15Q121.25 21.15 120.15 22.17Q119.05 23.20 119.05 25.10ZM175 24.30L175 31.60L175.65 31.60L178.15 34.60L178.15 38.25Q176.15 38.25 175.60 39.05Q175.05 39.85 175.05 41.80Q175.05 50.20 161.55 50.20Q157.90 50.20 156.20 49.75Q154.50 49.30 153.05 48.25Q151.20 50.20 148.95 50.20Q146 50.20 143.78 47.70Q141.55 45.20 141.15 42.45L142.50 41.55Q142.80 41.95 143.60 41.95Q144.40 41.95 144.90 41.32Q145.40 40.70 145.50 40.02Q145.60 39.35 145.60 38.25L145 38.25L142.50 35.25L142.50 31.60Q144.70 31.60 145.60 31.75L145.60 22.25L145.20 22.25L142.70 19.25L142.70 12.20L159.90 12.20Q165.90 12.20 170.25 14.90Q172.45 16.30 173.73 18.72Q175 21.15 175 24.30M166.30 33.25Q166.80 32.85 167.45 32.05L168.80 32.05Q169.35 32.95 169.95 33.25Q170.45 32.60 171.10 32.25L171.10 21.35Q171.10 17.35 167.90 15.47Q164.70 13.60 159.90 13.60L144.10 13.60L144.10 17.85L147.10 17.85L147.10 32.30Q147.60 32.55 148.20 33.25Q148.60 33.00 149.35 32.05L150.65 32.05Q151.30 32.95 151.80 33.25Q152.55 32.35 153.50 32.00L153.50 17.85L159 17.85Q161.50 17.85 163 19.15Q164.50 20.45 164.50 22.90L164.50 31.95Q165.55 32.35 166.30 33.25M164.85 36.95Q164.85 42.10 159.03 42.10Q153.20 42.10 153.20 36.95Q153.20 36.05 153.93 35.07Q154.65 34.10 156.30 34.10L156.30 32.90Q155.40 32.90 154.90 32.97Q154.40 33.05 153.65 33.57Q152.90 34.10 152.25 35.15Q151.05 34.90 150 33.45Q149 34.75 147.80 35.15Q147.15 34.10 146.40 33.57Q145.65 33.05 145.15 32.97Q144.65 32.90 143.75 32.90L143.75 34.10Q146.95 34.10 146.95 38.25Q146.95 39.85 146.78 40.80Q146.60 41.75 145.83 42.55Q145.05 43.35 143.55 43.35L142.70 43.25Q143.90 45.85 146.35 45.85Q147.50 45.85 148.38 45.30Q149.25 44.75 150.35 43.55L150.75 43.55Q152.10 44.75 153.78 45.25Q155.45 45.75 159.05 45.75Q171.15 45.75 171.15 38.75Q171.15 34.10 174.35 34.10L174.35 32.90Q173.45 32.90 172.98 32.97Q172.50 33.05 171.75 33.57Q171 34.10 170.35 35.15Q169.20 34.90 168.15 33.45Q167.15 34.75 165.80 35.15Q165.15 34.10 164.43 33.57Q163.70 33.05 163.23 32.97Q162.75 32.90 161.80 32.90L161.80 34.10Q163.45 34.10 164.15 35.05Q164.85 36.00 164.85 36.95M160.50 31.60Q162.35 31.60 163.10 31.70L163.10 23.10L163.05 22.45Q162.45 22.25 161.50 22.25L157.40 22.25L157.40 31.60L157.60 31.60L160.10 34.60L160.10 38.25Q157.15 38.35 157.15 40.20L157.15 40.45Q157.95 40.65 159.05 40.65Q162.70 40.65 163.35 38.25L163 38.25L160.50 35.25L160.50 31.60ZM187 31.60L188.45 31.60L183.50 22.25L181.05 22.25L178.55 19.25L178.55 12.20L193.35 12.20L195.75 15.10L195.75 12.20L210.50 12.20L213 15.20L213 22.25L209.60 22.25L203.65 33.45L204.60 34.60L204.60 38.25Q202.65 38.25 202.08 38.95Q201.50 39.65 201.50 41.20L201.50 41.95Q201.85 41.95 202.10 41.55L203.50 42.45L206 45.45Q205.70 47.80 204.30 49.00Q202.90 50.20 200.93 50.20Q198.95 50.20 197.05 48.85Q195.15 50.20 193.13 50.20Q191.10 50.20 188.50 47.80Q185.90 45.40 185.60 42.45L187 41.55Q187.20 42.00 187.95 42.00Q190.10 42.00 190.10 38.25L189.50 38.25L187 35.25L187 31.60M192.70 33.25Q193.20 32.95 193.90 32.05L195.20 32.05Q195.85 32.95 196.40 33.25Q197.25 32.05 198.90 31.75L206.10 17.85L209.10 17.85L209.10 13.60L197.15 13.60L197.15 17.85L200.20 17.85L195.45 28.15L193.65 28.15L188.85 17.85L191.95 17.85L191.95 13.60L179.95 13.60L179.95 17.85L182.95 17.85L190.10 31.75Q191.80 32.05 192.70 33.25M194.70 44.15Q196.50 45.70 198.68 45.70Q200.85 45.70 201.85 43.20Q201.50 43.40 201.05 43.40Q197.55 43.40 197.55 38.25Q197.55 34.05 200.85 34.05L200.85 32.80Q199.90 32.80 199.40 32.87Q198.90 32.95 198.15 33.50Q197.40 34.05 196.80 35.15Q195.60 34.90 194.55 33.40Q193.50 34.75 192.30 35.15Q191.65 34.05 190.90 33.50Q190.15 32.95 189.65 32.87Q189.15 32.80 188.25 32.80L188.25 34.05Q191.55 34.05 191.55 38.25Q191.55 42.05 189.95 43.00Q189.20 43.40 188.05 43.40L187.25 43.20Q188.25 45.70 190.43 45.70Q192.60 45.70 194.40 44.15L194.70 44.15M195.85 22.25L193.70 22.25L195.15 25.65L197.15 20.95L195.85 19.40L195.85 22.25ZM245.90 23.65L245.90 31.60L246.45 31.60L248.95 34.60L248.95 38.25Q247.05 38.25 246.45 38.95Q245.85 39.65 245.85 41.10L245.85 41.90Q246.20 41.85 246.45 41.55L247.80 42.45L250.30 45.45Q249.95 47.80 248.55 49.00Q247.15 50.20 244.95 50.20Q242.75 50.20 240.90 48.25Q239.70 49.15 239.03 49.55Q238.35 49.95 236.60 50.37Q234.85 50.80 231.50 50.80Q228.15 50.80 224.68 49.67Q221.20 48.55 218.80 45.75Q216.40 42.95 216.40 38.80L216.40 38.25L215.80 38.25L213.30 35.25L213.30 31.60Q215.55 31.60 216.45 31.75L216.45 20.65Q216.45 18.05 217.68 16.20Q218.90 14.35 221 13.40Q224.90 11.60 229.90 11.60Q235.85 11.60 240.50 14.10Q242.95 15.45 244.43 17.90Q245.90 20.35 245.90 23.65M237.15 33.25Q237.65 32.85 238.30 32.05L239.60 32.05Q239.95 32.70 240.75 33.25Q241.25 32.60 242 32.20L242 20.70Q242 18.00 240.10 16.20Q238.20 14.40 235.63 13.75Q233.05 13.10 229.93 13.10Q226.80 13.10 224.22 13.75Q221.65 14.40 219.75 16.20Q217.85 18.00 217.85 20.70L217.85 32.25Q218.55 32.70 219 33.25Q219.50 33.00 220.15 32.05L221.50 32.05Q222.15 32.95 222.65 33.25Q223.60 32.10 224.85 31.80L224.85 22.65Q224.85 20.00 226.20 18.60Q227.55 17.20 229.95 17.20Q232.35 17.20 233.72 18.57Q235.10 19.95 235.10 22.65L235.10 31.90Q236.25 32.20 237.15 33.25M232.65 32.90L232.65 35.20Q234.35 35.35 235.05 36.22Q235.75 37.10 235.75 37.95Q235.75 40.65 234.25 41.67Q232.75 42.70 230 42.70Q227.25 42.70 225.68 41.20Q224.10 39.70 224.10 36.95Q224.10 36.00 224.80 35.05Q225.50 34.10 227.15 34.10L227.15 32.90Q226.20 32.90 225.72 32.97Q225.25 33.05 224.53 33.57Q223.80 34.10 223.15 35.15Q221.90 34.90 220.80 33.45Q219.85 34.75 218.60 35.15Q217.95 34.10 217.20 33.57Q216.45 33.05 215.97 32.97Q215.50 32.90 214.60 32.90L214.60 34.10Q217.80 34.10 217.80 38.75Q217.80 41.45 219.70 43.20Q223.05 46.35 229.90 46.35Q232.30 46.35 234.03 45.87Q235.75 45.40 236.43 44.95Q237.10 44.50 238.20 43.55L238.60 43.55Q239.70 44.75 240.57 45.30Q241.45 45.85 242.60 45.85Q245.05 45.85 246.25 43.25Q245.95 43.35 245.40 43.35Q243.90 43.35 243.13 42.55Q242.35 41.75 242.18 40.80Q242 39.85 242 38.25Q242 34.10 245.20 34.10L245.20 32.90Q244.30 32.90 243.80 32.97Q243.30 33.05 242.55 33.57Q241.80 34.10 241.15 35.15Q240.10 34.80 238.95 33.45Q238.05 34.75 236.70 35.15Q236.05 34.10 235.30 33.57Q234.55 33.05 234.05 32.97Q233.55 32.90 232.65 32.90M228.75 25.75L228.75 32.40L230.95 34.60L230.95 38.25Q230.10 38.30 229.57 38.37Q229.05 38.45 228.50 38.90Q227.95 39.35 227.95 40.20L228.05 41.05Q228.85 41.35 229.90 41.35Q233.45 41.35 234.15 39.35L233.85 39.35L231.35 35.85L231.35 31.60Q233 31.60 233.70 31.65L233.70 22.75L233.65 21.90Q233.30 21.75 232.40 21.75Q228.75 21.75 228.75 25.75ZM289.25 22.25L286.25 22.25L286.25 31.60L286.60 31.60L289.10 34.60L289.10 38.25Q287.20 38.25 286.65 38.95Q286.10 39.65 286.10 41.15L286.10 41.80Q286.10 44.40 284.82 46.25Q283.55 48.10 281.40 49.05Q277.35 50.80 272.20 50.80Q265 50.80 260.40 47.37Q255.80 43.95 255.80 38.80L255.80 38.25L255.30 38.25L252.80 35.25L252.80 31.60Q254.85 31.60 255.70 31.75L255.70 22.25L255.30 22.25L252.80 19.25L252.80 12.20L268 12.20L270.50 15.20L270.50 22.25L267.50 22.25L267.50 31.60L267.95 31.60L270.45 34.60L270.45 38.25Q269.60 38.30 269.10 38.37Q268.60 38.45 268.02 38.90Q267.45 39.35 267.45 40.20Q267.45 41.25 269.45 41.25Q271.45 41.25 272.68 40.42Q273.90 39.60 274.30 38.25L273.95 38.25L271.45 35.25L271.45 31.60Q273.60 31.60 274.45 31.75L274.45 22.25L274.05 22.25L271.55 19.25L271.55 12.20L286.75 12.20L289.25 15.20L289.25 22.25M263.90 45.65Q263.90 45.65 265.22 45.97Q266.55 46.30 269.70 46.30Q272.85 46.30 275.50 45.65Q278.15 45.00 280.13 43.22Q282.10 41.45 282.10 38.75L282.10 38.25Q282.10 34.10 285.35 34.10L285.35 32.90Q284.45 32.90 283.97 32.97Q283.50 33.05 282.72 33.57Q281.95 34.10 281.30 35.15Q280.20 34.90 279.10 33.45Q278.20 34.75 276.80 35.15Q276.20 34.10 275.45 33.57Q274.70 33.05 274.20 32.97Q273.70 32.90 272.80 32.90L272.80 34.10Q274.45 34.10 275.15 35.05Q275.85 36.00 275.85 36.95Q275.85 39.65 274.10 41.17Q272.35 42.70 269.70 42.70Q267.05 42.70 265.30 41.17Q263.55 39.65 263.55 36.95Q263.55 36.00 264.25 35.05Q264.95 34.10 266.60 34.10L266.60 32.90Q265.70 32.90 265.20 32.97Q264.70 33.05 263.95 33.57Q263.20 34.10 262.60 35.15Q261.30 34.90 260.30 33.45Q259.30 34.75 258.10 35.15Q257.45 34.10 256.68 33.57Q255.90 33.05 255.42 32.97Q254.95 32.90 254.05 32.90L254.05 34.10Q257.30 34.10 257.30 38.25L257.30 38.75Q257.30 41.45 259.27 43.22Q261.25 45.00 263.90 45.65M277.25 33.25Q277.75 32.95 278.45 32.05L279.70 32.05Q280.35 32.95 280.95 33.25Q281.50 32.60 282.25 32.20L282.25 17.85L285.35 17.85L285.35 13.60L272.95 13.60L272.95 17.85L275.95 17.85L275.95 32.20Q276.65 32.60 277.25 33.25M258.45 33.25Q259.05 32.90 259.70 32.05L260.95 32.05Q261.60 32.95 262.15 33.25Q262.70 32.55 263.50 32.15L263.50 17.85L266.60 17.85L266.60 13.60L254.20 13.60L254.20 17.85L257.20 17.85L257.20 32.20Q257.85 32.55 258.45 33.25ZM321.30 46.55Q321.30 48.30 322.20 48.85L321.30 50.20Q320 50.20 318.57 49.55Q317.15 48.90 316.35 48.15Q315.50 48.90 313.47 49.55Q311.45 50.20 309.65 50.20Q306 50.20 303.70 48.25Q301.65 50.20 299.02 50.20Q296.40 50.20 294.17 47.67Q291.95 45.15 291.60 42.45L293 41.55Q293.25 41.95 294 41.95Q296 41.95 296 38.25L295.50 38.25L293 35.25L293 31.60Q295.10 31.60 295.95 31.75L295.95 22.25L294.55 22.25L292.05 19.25L292.05 12.20L318.90 12.20L321.40 15.20L321.40 27.40L315.60 27.40L313.10 24.40L313.10 22.25L307.75 22.25L307.75 25.15L311.30 25.15L313.80 28.15L313.80 33.95L310.05 33.95L310.60 34.60L310.60 38.25Q309.80 38.30 309.30 38.37Q308.80 38.45 308.25 38.90Q307.70 39.35 307.70 40.20L307.70 40.40Q308.40 40.65 309.70 40.65Q311 40.65 312.15 39.85Q313.30 39.05 313.30 37.60Q313.30 37.35 313 36.15L313 34.55L318.80 34.55L321.30 37.55L321.30 46.55M298.70 33.25Q299.20 32.95 299.90 32.05L301.25 32.05Q301.90 32.95 302.40 33.25Q302.95 32.55 303.75 32.15L303.75 29.55L309.90 29.55L309.90 26.55L303.75 26.55L303.75 17.85L314.50 17.85L314.50 23.00L317.50 23.00L317.50 13.60L293.45 13.60L293.45 17.85L297.45 17.85L297.45 32.20Q298.10 32.55 298.70 33.25M314.65 37.80Q314.65 39.80 313.13 40.95Q311.60 42.10 309.40 42.10Q307.20 42.10 305.47 40.82Q303.75 39.55 303.75 36.95Q303.75 36.05 304.47 35.07Q305.20 34.10 306.80 34.10L306.80 32.90Q305.90 32.90 305.42 32.97Q304.95 33.05 304.20 33.57Q303.45 34.10 302.85 35.15Q301.65 34.90 300.55 33.45Q299.65 34.75 298.30 35.15Q297.65 34.10 296.90 33.57Q296.15 33.05 295.67 32.97Q295.20 32.90 294.30 32.90L294.30 34.10Q296 34.10 296.77 35.27Q297.55 36.45 297.55 38.55Q297.55 40.65 296.88 42.00Q296.20 43.35 294.05 43.35L293.35 43.25Q294.25 45.80 296.50 45.80Q298.75 45.80 300.90 43.55L301.35 43.55L301.55 43.75Q303.95 45.75 307.38 45.75Q310.80 45.75 313.85 43.40Q314.30 43.85 315.70 44.67Q317.10 45.50 317.90 45.65Q317.45 45.15 317.45 43.05L317.45 36.05L314.40 36.05Q314.65 36.90 314.65 37.80Z"/></g></g></g></svg>